<svg width="44" height="44" viewBox="0 0 44 44" fill="none" xmlns="http://www.w3.org/2000/svg">
<path d="M2.03776 6.97199L30.9985 35.9327H5.6935C3.67118 35.9327 2.01183 37.5921 2.01183 39.6144C2.01183 41.6367 3.64525 43.2701 5.66757 43.2701H39.8397C41.862 43.2701 43.4954 41.6367 43.4954 39.6144V5.44228C43.4954 3.41996 41.862 1.78654 39.8397 1.78654C38.8698 1.78545 37.9393 2.17025 37.2535 2.85608C36.5677 3.5419 36.1829 4.47239 36.1839 5.44228V30.7473L7.22321 1.78654C5.79721 0.360542 3.46376 0.360541 2.03776 1.78654C0.611762 3.21254 0.611762 5.54599 2.03776 6.97199Z" fill="#19191B"/>
</svg>
