<svg width="1312" height="1337" viewBox="0 0 1312 1337" fill="none" xmlns="http://www.w3.org/2000/svg">
<mask id="mask4" mask-type="alpha" maskUnits="userSpaceOnUse" x="-500" y="-500" width="3000" height="3000">
<path d="M262.849 157.509C578.517 -121.32 943.962 -2.80417 1226 310C1446 554 1372.14 933.928 1170.85 1135.22C969.56 1336.51 442.513 1392.34 126.844 1113.51C-101.156 912.119 -1.1507 390.7 262.849 157.509Z" fill="#005289" class="mask-rotate-1"/>
</mask>
<g mask="url(#mask4)">
<path d="M-290.254 -245.207C25.414 -524.036 1359.71 -462.011 1641.75 -149.207C1861.75 94.7926 1815.04 1437.5 1613.75 1638.79C1412.45 1840.08 25.4157 1785.62 -290.254 1506.79C-518.254 1305.4 -554.254 -12.0159 -290.254 -245.207Z" fill="#005289"/>
<path d="M114 683.968L166 853L227.025 544.871L294 754.935L366 581L433.919 987.71L502.884 408.613L594 905L630 544.871L703.392 754.935L770 349L842 683.968L902 581L986 803.194L1061.62 454.032L1110 683.968L1197 544.871" stroke="white" stroke-width="37" stroke-linecap="round" stroke-linejoin="round" class="line"/>
<g class="simple">
<path d="M190.343 589.392C190.343 583.056 195.975 579.536 205.127 579.536C216.743 579.536 223.783 585.872 228.711 595.024L273.767 570.736C258.983 545.744 233.639 533.072 205.127 533.072C168.519 533.072 136.135 552.432 136.135 590.8C136.135 651.696 222.727 641.488 222.727 660.848C222.727 667.888 216.391 671.76 203.719 671.76C188.231 671.76 178.375 664.368 173.799 650.992L128.039 677.04C141.767 705.552 168.519 718.928 203.719 718.928C241.735 718.928 276.935 701.68 276.935 661.2C276.935 596.08 190.343 609.456 190.343 589.392Z" fill="white" class="simple-s"/>
<path d="M329.697 522.512C346.945 522.512 361.377 508.08 361.377 490.832C361.377 473.584 346.945 459.152 329.697 459.152C312.449 459.152 298.017 473.584 298.017 490.832C298.017 508.08 312.449 522.512 329.697 522.512ZM303.297 714H356.097V538H303.297V714Z" fill="white" class="simple-i"/>
<path d="M591.854 533.072C566.862 533.072 550.67 542.224 540.814 556.304C530.958 541.52 515.47 533.072 494.702 533.072C471.118 533.072 455.63 542.224 447.534 554.192V538H394.734V714H447.534V614.736C447.534 593.968 457.39 581.648 474.99 581.648C491.886 581.648 500.334 592.912 500.334 610.512V714H553.134V614.736C553.134 593.968 562.99 581.648 580.59 581.648C597.486 581.648 605.934 592.912 605.934 610.512V714H658.734V605.936C658.734 561.936 632.334 533.072 591.854 533.072Z" fill="white" class="simple-m"/>
<path d="M800.076 533.072C776.492 533.072 759.244 541.168 747.628 554.544V538H694.828V784.4H747.628V697.456C759.244 710.832 776.492 718.928 800.076 718.928C846.188 718.928 884.204 678.448 884.204 626C884.204 573.552 846.188 533.072 800.076 533.072ZM789.516 668.944C765.228 668.944 747.628 652.4 747.628 626C747.628 599.6 765.228 583.056 789.516 583.056C813.804 583.056 831.404 599.6 831.404 626C831.404 652.4 813.804 668.944 789.516 668.944Z" fill="white" class="simple-p"/>
<path d="M914.14 714H966.94V457.04H914.14V714Z" fill="white" class="simple-l"/>
<path d="M1052.75 647.12H1177.71C1179.11 640.432 1179.82 633.392 1179.82 626C1179.82 572.848 1141.8 533.072 1090.41 533.072C1034.79 533.072 996.778 573.552 996.778 626C996.778 678.448 1034.09 718.928 1094.28 718.928C1127.72 718.928 1153.77 706.608 1171.02 682.672L1128.78 658.384C1121.74 666.128 1109.42 671.76 1094.99 671.76C1075.63 671.76 1059.43 665.424 1052.75 647.12ZM1051.69 607.696C1056.62 589.744 1069.99 579.888 1090.06 579.888C1105.9 579.888 1121.74 587.28 1127.37 607.696H1051.69Z" fill="white" class="simple-e"/>
</g>
</g>
</svg>
