<svg width="206" height="254" viewBox="0 0 206 254" fill="none" xmlns="http://www.w3.org/2000/svg">
<path d="M180.273 248H25.3525V82.3085L102.813 15.6837L180.273 82.3085V248Z" fill="#FF9839"/>
<path d="M180.467 121.587H168.857V126.94H180.467V121.587Z" fill="#ED852F"/>
<path d="M174.017 128.23H162.407V133.583H174.017V128.23Z" fill="#ED852F"/>
<path d="M167.567 121.587H155.958V126.94H167.567V121.587Z" fill="#ED852F"/>
<path d="M119.904 65.2815H108.295V70.6347H119.904V65.2815Z" fill="#ED852F"/>
<path d="M43.4121 128.23H31.8027V133.583H43.4121V128.23Z" fill="#ED852F"/>
<path d="M165.826 219.17H154.217V224.523H165.826V219.17Z" fill="#ED852F"/>
<path d="M74.7568 89.9836H63.1475V95.3368H74.7568V89.9836Z" fill="#ED852F"/>
<path d="M36.9619 121.587H25.3525V126.94H36.9619V121.587Z" fill="#ED852F"/>
<path d="M107.844 178.15H96.2344V183.504H107.844V178.15Z" fill="#ED852F"/>
<path d="M101.395 171.507H89.7852V176.86H101.395V171.507Z" fill="#ED852F"/>
<path d="M25.3525 82.3085V92.37L102.619 26.906L180.273 92.6279V82.3085L102.813 15.6837L25.3525 82.3085Z" fill="#EA633A"/>
<path d="M180.273 248H25.3525V82.3085L102.813 15.6837L180.273 82.3085V248Z" stroke="#23241F" stroke-width="3" stroke-miterlimit="10" stroke-linecap="round" stroke-linejoin="round"/>
<path d="M154.217 160.285H107.779V248H154.217V160.285Z" fill="#99393E"/>
<path d="M154.216 160.285H148.928V248H154.216V160.285Z" fill="#822E36"/>
<path d="M154.217 160.285H107.779V248H154.217V160.285Z" stroke="#23241F" stroke-width="3" stroke-miterlimit="10" stroke-linecap="round" stroke-linejoin="round"/>
<path d="M89.7847 160.285H49.7969V206.722H89.7847V160.285Z" fill="#89C6CC"/>
<path opacity="0.92" d="M49.7969 198.918L79.1428 160.285H66.179L49.7969 181.891V198.918Z" fill="#D0F6FB"/>
<path opacity="0.92" d="M89.7847 160.672V160.285H83.593L49.7969 204.787V206.722H54.7631L89.7847 160.672Z" fill="#D0F6FB"/>
<path d="M94.2996 209.302H45.2822V217.042H94.2996V209.302Z" fill="#EA633A" stroke="#EA633A" stroke-width="6" stroke-miterlimit="10" stroke-linecap="round" stroke-linejoin="round"/>
<path d="M89.7847 160.285H49.7969V206.722H89.7847V160.285Z" stroke="#23241F" stroke-width="3" stroke-miterlimit="10" stroke-linecap="round" stroke-linejoin="round"/>
<path d="M94.2996 206.722H45.2822V214.462H94.2996V206.722Z" fill="#656B82"/>
<path d="M94.2996 206.722H45.2822V214.462H94.2996V206.722Z" stroke="#23241F" stroke-width="3" stroke-miterlimit="10" stroke-linecap="round" stroke-linejoin="round"/>
<path d="M102.813 107.398C113.143 107.398 121.517 99.0235 121.517 88.6936C121.517 78.3637 113.143 69.9896 102.813 69.9896C92.4834 69.9896 84.1094 78.3637 84.1094 88.6936C84.1094 99.0235 92.4834 107.398 102.813 107.398Z" fill="#98AAB5"/>
<path d="M102.813 69.9896C101.007 69.9896 99.2657 70.2476 97.6533 70.6991C105.457 72.9564 111.198 80.1156 111.198 88.6936C111.198 97.2071 105.457 104.431 97.6533 106.688C99.2657 107.14 101.007 107.398 102.813 107.398C113.132 107.398 121.517 99.013 121.517 88.6936C121.517 78.3097 113.132 69.9896 102.813 69.9896Z" fill="#7B929E"/>
<path d="M102.813 107.398C113.143 107.398 121.517 99.0235 121.517 88.6936C121.517 78.3637 113.143 69.9896 102.813 69.9896C92.4834 69.9896 84.1094 78.3637 84.1094 88.6936C84.1094 99.0235 92.4834 107.398 102.813 107.398Z" stroke="#23241F" stroke-width="3" stroke-miterlimit="10" stroke-linecap="round" stroke-linejoin="round"/>
<path d="M161.957 248H100.04V242.84C100.04 237.874 104.103 233.811 109.07 233.811H152.927C157.893 233.811 161.957 237.874 161.957 242.84V248Z" fill="#6E818E"/>
<path d="M161.957 241.937H100.04V247.935H161.957V241.937Z" fill="#5C6F7A"/>
<path d="M161.957 248H100.04V242.84C100.04 237.874 104.103 233.811 109.07 233.811H152.927C157.893 233.811 161.957 237.874 161.957 242.84V248Z" stroke="#23241F" stroke-width="3" stroke-miterlimit="10" stroke-linecap="round" stroke-linejoin="round"/>
<path d="M202.009 94.3693C199.816 97.0137 195.817 97.4007 193.173 95.1433L102.62 18.457L12.0665 95.1433C9.42218 97.4007 5.4879 97.0137 3.23053 94.3693C1.03765 91.725 1.36012 87.8552 4.00447 85.6623L93.0096 10.3949L102.684 2.20386L112.294 10.3949L201.299 85.6623C203.879 87.7907 204.202 91.725 202.009 94.3693Z" fill="#FF4B53"/>
<path d="M41.7982 67.2808H32.5107V72.634H41.7982V67.2808Z" fill="#EA3F54"/>
<path d="M110.166 10.7175H101.588V16.0707H110.166V10.7175Z" fill="#EA3F54"/>
<path d="M202.009 94.3693C199.816 97.0137 195.817 97.4007 193.173 95.1433L102.62 18.457L12.0665 95.1433C9.42218 97.4007 5.4879 97.0137 3.23053 94.3693C1.03765 91.725 1.36012 87.8552 4.00447 85.6623L93.0096 10.3949L102.684 2.20386L112.294 10.3949L201.299 85.6623C203.879 87.7907 204.202 91.725 202.009 94.3693Z" stroke="#23241F" stroke-width="3" stroke-miterlimit="10" stroke-linecap="round" stroke-linejoin="round"/>
<path d="M102.812 107.398V69.9896" stroke="#23241F" stroke-width="3" stroke-miterlimit="10" stroke-linecap="round" stroke-linejoin="round"/>
<path d="M84.1094 88.6937H121.517" stroke="#23241F" stroke-width="3" stroke-miterlimit="10" stroke-linecap="round" stroke-linejoin="round"/>
<path d="M115.325 204.658V219.17" stroke="#23241F" stroke-width="3" stroke-miterlimit="10" stroke-linecap="round" stroke-linejoin="round"/>
<path d="M143.252 174.99H118.808V198.789H143.252V174.99Z" fill="#89C6CC"/>
<path opacity="0.92" d="M118.808 193.178L132.61 174.99H119.711L118.808 176.151V193.178Z" fill="#D0F6FB"/>
<path opacity="0.92" d="M136.286 174.99L118.808 198.015V198.789H121.452L139.511 174.99H136.286Z" fill="#D0F6FB"/>
<path d="M143.252 174.99H118.808V198.789H143.252V174.99Z" stroke="#23241F" stroke-width="3" stroke-miterlimit="10" stroke-linecap="round" stroke-linejoin="round"/>
<path d="M2 253C35.6667 237.667 122.8 212.6 204 253L2 253Z" fill="#22805C"/>
<path d="M31.5 253C65.1667 237.667 122.8 212.6 204 253H31.5Z" fill="#33A572"/>
<path d="M2 252C35.6667 236.667 122.8 211.6 204 252" stroke="#23241F" stroke-width="3" stroke-linecap="round"/>
<path d="M187.857 78.6944C191.043 84.9012 194.029 94.6777 196.082 105.873C198.133 117.062 199.244 129.633 198.697 141.414C198.151 153.205 195.946 164.156 191.404 172.143C186.878 180.102 180.046 185.106 170.166 185.106C160.286 185.106 153.459 180.102 148.939 172.144C144.404 164.157 142.207 153.205 141.665 141.414C141.124 129.633 142.238 117.062 144.285 105.873C146.333 94.6774 149.31 84.9005 152.475 78.6932C157.786 68.4045 164.672 63.8384 170.166 63.8384C175.66 63.8384 182.546 68.4048 187.857 78.6944Z" fill="#2CDF78" stroke="#23241F"/>
<path d="M188.301 78.4651C201.171 103.537 210.531 185.606 170.166 185.606C129.8 185.606 139.244 103.537 152.03 78.4651C157.379 68.102 164.399 63.3384 170.166 63.3384C175.932 63.3384 182.952 68.102 188.301 78.4651Z" stroke="#23241F" stroke-width="3" stroke-miterlimit="10" stroke-linecap="round" stroke-linejoin="round"/>
<path d="M170.583 247.7V120.168" stroke="#23241F" stroke-width="3" stroke-miterlimit="10" stroke-linecap="round" stroke-linejoin="round"/>
<path d="M170.583 135.963L179.609 129.277" stroke="#23241F" stroke-width="3" stroke-miterlimit="10" stroke-linecap="round" stroke-linejoin="round"/>
<path d="M170.583 160.199L184.623 150.421" stroke="#23241F" stroke-width="3" stroke-miterlimit="10" stroke-linecap="round" stroke-linejoin="round"/>
<path d="M170.165 146.577L160.722 137.635" stroke="#23241F" stroke-width="3" stroke-miterlimit="10" stroke-linecap="round" stroke-linejoin="round"/>
</svg>
