<svg width="1361" height="1305" viewBox="0 0 1361 1305" fill="none" xmlns="http://www.w3.org/2000/svg">
<mask id="mask56" mask-type="alpha" maskUnits="userSpaceOnUse" x="-500" y="-500" width="3000" height="3000">
<path d="M262.849 157.509C578.517 -121.32 943.962 -2.80417 1226 310C1446 554 1372.14 933.928 1170.85 1135.22C969.56 1336.51 442.513 1392.34 126.844 1113.51C-101.156 912.119 -1.1507 390.7 262.849 157.509Z" fill="#005289" class="mask-rotate-1-rev"/>
</mask>
<g mask="url(#mask56)">
<path d="M-290.254 -277.207C25.414 -556.036 1359.71 -494.011 1641.75 -181.207C1861.75 62.7927 1815.04 1405.5 1613.75 1606.79C1412.45 1808.08 25.4157 1753.62 -290.254 1474.79C-518.254 1273.4 -554.254 -44.0158 -290.254 -277.207Z" fill="#B2E2F3"/>
<g class="wiggle-1">
<rect x="189.799" y="287" width="476.093" height="36" rx="18" fill="#E0F4FA" class="wiggle-1"/>
<path d="M256 357L593.021 357C567.111 357 567.111 321 593.021 321L256 321C283.073 321 281.072 357 256 357Z" fill="#E0F4FA" class="wiggle-2"/>
<path d="M230 634L593.021 634C567.111 634 567.111 598 593.021 598L230 598C261.072 598 261.073 634 230 634Z" fill="#E0F4FA" class="wiggle-10"/>
<path d="M260 427L696.659 427C670.749 427 670.749 391 696.659 391L260 391L260 427Z" fill="#E0F4FA" class="wiggle-3"/>
<path d="M174 496L618.931 496C593.021 496 593.021 460 618.931 460L174 460C213.163 460 213.162 496 174 496Z" fill="#E0F4FA" class="wiggle-5"/>
<path d="M254 565L644.841 565C618.931 565 618.931 529 644.841 529L254 529C289.251 529 287.252 565 254 565Z" fill="#E0F4FA" class="wiggle-7"/>
<path d="M319 374C319 364.059 326.975 356 336.813 356H777.28C787.118 356 795.093 364.059 795.093 374C795.093 383.941 787.118 392 777.28 392H336.813C326.975 392 319 383.941 319 374Z" fill="#E0F4FA" class="wiggle-3"/>
<path d="M241 444C241 434.059 248.975 426 258.813 426H699.28C709.118 426 717.093 434.059 717.093 444C717.093 453.941 709.118 462 699.28 462H258.813C248.975 462 241 453.941 241 444Z" fill="#E0F4FA" class="wiggle-5"/>
<path d="M108 512C108 502.059 119.089 494 132.769 494H745.231C758.911 494 770 502.059 770 512C770 521.941 758.911 530 745.231 530H132.769C119.089 530 108 521.941 108 512Z" fill="#E0F4FA" class="wiggle-7"/>
<path d="M215 582C215 572.059 222.975 564 232.813 564H673.28C683.118 564 691.093 572.059 691.093 582C691.093 591.941 683.118 600 673.28 600H232.813C222.975 600 215 591.941 215 582Z" fill="#E0F4FA" class="wiggle-9"/>
<path d="M137 651C137 641.059 144.975 633 154.813 633H595.28C605.118 633 613.093 641.059 613.093 651C613.093 660.941 605.118 669 595.28 669H154.813C144.975 669 137 660.941 137 651Z" fill="#E0F4FA" class="wiggle-11"/>
<path d="M226 428L593.021 428C567.111 428 567.111 392 593.021 392L226 392C251.072 392 251.072 428 226 428Z" fill="#E0F4FA" class="wiggle-4"/>
<path d="M200 375C200 365.059 209.113 357 220.354 357H723.646C734.887 357 744 365.059 744 375C744 384.941 734.887 393 723.646 393H220.354C209.113 393 200 384.941 200 375Z" fill="#E0F4FA" class="wiggle-3"/>
<path d="M163 445C163 435.059 170.975 427 180.813 427H621.28C631.118 427 639.093 435.059 639.093 445C639.093 454.941 631.118 463 621.28 463H180.813C170.975 463 163 454.941 163 445Z" fill="#E0F4FA" class="wiggle-5"/>
</g>
<g class="wiggle-11">
<rect width="476.093" height="36" rx="18" transform="matrix(-1 0 0 1 1213.29 605)" fill="#E0F4FA"/>
<path d="M1147.09 675L810.073 675C835.983 675 835.983 639 810.073 639L1147.09 639C1120.02 639 1122.02 675 1147.09 675Z" fill="#E0F4FA" class="wiggle-2"/>
<path d="M1143.09 745L706.435 745C732.344 745 732.344 709 706.435 709L1143.09 709L1143.09 745Z" fill="#E0F4FA" class="wiggle-4"/>
<path d="M1229.09 814L784.163 814C810.073 814 810.073 778 784.163 778L1229.09 778C1189.93 778 1189.93 814 1229.09 814Z" fill="#E0F4FA" class="wiggle-6"/>
<path d="M1149.09 883L758.253 883C784.163 883 784.163 847 758.253 847L1149.09 847C1113.84 847 1115.84 883 1149.09 883Z" fill="#E0F4FA" class="wiggle-8"/>
<path d="M1084.09 692C1084.09 682.059 1076.12 674 1066.28 674H625.814C615.976 674 608.001 682.059 608.001 692C608.001 701.941 615.976 710 625.814 710H1066.28C1076.12 710 1084.09 701.941 1084.09 692Z" fill="#E0F4FA" class="wiggle-3"/>
<path d="M1162.09 762C1162.09 752.059 1154.12 744 1144.28 744H703.814C693.976 744 686.001 752.059 686.001 762C686.001 771.941 693.976 780 703.814 780H1144.28C1154.12 780 1162.09 771.941 1162.09 762Z" fill="#E0F4FA" class="wiggle-5"/>
<path d="M1295.09 830C1295.09 820.059 1284 812 1270.33 812H657.862C644.183 812 633.094 820.059 633.094 830C633.094 839.941 644.183 848 657.862 848H1270.33C1284 848 1295.09 839.941 1295.09 830Z" fill="#E0F4FA" class="wiggle-7"/>
<path d="M1188.09 900C1188.09 890.059 1180.12 882 1170.28 882H729.814C719.976 882 712.001 890.059 712.001 900C712.001 909.941 719.976 918 729.814 918H1170.28C1180.12 918 1188.09 909.941 1188.09 900Z" fill="#E0F4FA" class="wiggle-9"/>
<path d="M1177.09 746L810.073 746C835.983 746 835.983 710 810.073 710L1177.09 710C1152.02 710 1152.02 746 1177.09 746Z" fill="#E0F4FA" class="wiggle-4"/>
<path d="M1203.09 693C1203.09 683.059 1193.98 675 1182.74 675H679.447C668.206 675 659.094 683.059 659.094 693C659.094 702.941 668.206 711 679.447 711H1182.74C1193.98 711 1203.09 702.941 1203.09 693Z" fill="#E0F4FA" class="wiggle-3"/>
<path d="M1240.09 763C1240.09 753.059 1232.12 745 1222.28 745H781.814C771.976 745 764.001 753.059 764.001 763C764.001 772.941 771.976 781 781.814 781H1222.28C1232.12 781 1240.09 772.941 1240.09 763Z" fill="#E0F4FA" class="wiggle-5"/>
</g>
<path d="M543.146 688.796C558.388 696.692 573.199 698.036 585.822 693.061C598.305 688.141 606.718 677.784 610.661 666.123C617.799 645.014 610.955 618.159 586.965 602.756C587.325 587.461 578.854 572.446 568.476 562.669C558.044 552.84 542.492 545.38 526.344 548.563C517.699 535.8 503.274 528.156 488.834 527.122C474.161 526.071 459.281 531.792 449.504 545.105C439.423 540.086 427.527 538.95 417.016 541.194C404.218 543.927 392.028 551.987 386.03 565.532C378.642 564.267 371.559 564.666 364.974 566.595C354.579 569.64 346.443 576.198 340.789 583.97C332.875 594.847 328.81 609.797 331.364 623.333C317.552 631.664 310.028 647.551 309.102 662.113C308.484 671.849 310.609 682.206 316.546 690.976C322.62 699.948 332.152 705.763 344.666 708.263H345.86H436.524C441.661 708.263 445.663 710.574 448.668 715.492C452.816 722.279 453.993 733.459 451.434 741.491C449.114 748.775 444.436 753.022 436.524 753.022C429.726 753.022 424.216 758.533 424.216 765.33C424.216 772.128 429.726 777.639 436.524 777.639C457.283 777.639 470.012 764.271 474.889 748.963C477.538 740.647 478.076 731.371 476.556 722.499H491.714C504.651 722.499 514.761 716.214 521.338 707.509C527.708 699.079 530.836 688.414 531.136 678.229H536.502C536.633 682.547 539.038 686.667 543.146 688.796Z" fill="#FF63A8" class="brain-1"/>
<path fill-rule="evenodd" clip-rule="evenodd" d="M487.076 551.675C496.65 552.361 505.582 558.68 508.585 567.679L508.769 568.232C511.111 575.252 519.254 578.42 525.725 574.828L526.234 574.545C533.464 570.532 542.919 572.412 551.595 580.586C560.583 589.054 563.676 599.652 561.784 605.794L561.66 606.199C559.916 611.859 562.63 617.937 568.009 620.417L568.393 620.594C587.239 629.284 591.337 646.423 587.342 658.238C585.338 664.164 581.499 668.305 576.796 670.159C572.231 671.958 564.918 672.351 554.469 666.938C548.433 663.811 541.005 666.169 537.878 672.205C534.752 678.241 537.11 685.669 543.146 688.796C558.388 696.692 573.199 698.036 585.822 693.061C598.305 688.141 606.718 677.784 610.661 666.123C617.799 645.014 610.955 618.159 586.965 602.756C587.325 587.461 578.854 572.446 568.476 562.669C558.044 552.84 542.492 545.38 526.344 548.563C517.699 535.8 503.274 528.156 488.834 527.122C474.161 526.071 459.281 531.792 449.504 545.105C439.423 540.086 427.527 538.95 417.016 541.194C404.218 543.927 392.028 551.987 386.03 565.532C378.642 564.267 371.559 564.666 364.974 566.595C354.579 569.64 346.443 576.198 340.789 583.97C332.875 594.847 328.81 609.797 331.364 623.333C317.552 631.664 310.028 647.551 309.102 662.113C308.484 671.849 310.609 682.206 316.546 690.976C322.619 699.948 332.152 705.763 344.666 708.263H345.86H436.524C441.661 708.263 445.663 710.574 448.668 715.492C452.816 722.279 453.993 733.459 451.434 741.491C449.114 748.775 444.436 753.022 436.524 753.022C429.726 753.022 424.216 758.533 424.216 765.33C424.216 772.128 429.726 777.639 436.524 777.639C457.283 777.639 470.012 764.271 474.889 748.963C477.538 740.647 478.076 731.371 476.556 722.499H491.714C504.651 722.499 514.761 716.214 521.338 707.509C527.708 699.079 530.836 688.414 531.136 678.229C531.435 668.061 528.944 659.341 522.502 650.587C515.752 641.416 505.194 634.414 491.714 634.414H407.977C401.18 634.414 395.669 639.858 395.669 646.655C395.669 653.453 401.18 659.031 407.977 659.031H491.714C497.265 659.031 500.504 662.227 502.676 665.178C505.154 668.545 506.707 671.511 506.53 677.505C506.354 683.481 504.487 688.978 501.698 692.669C499.116 696.086 495.905 697.882 491.714 697.882H465.378C458.625 690.082 448.892 683.647 436.524 683.647H348.403C342.546 682.24 339.055 680.314 336.931 677.176C334.541 673.647 333.336 668.911 333.669 663.674C334.381 652.471 341.287 643.939 349.344 642.43L350.051 642.298C358.303 640.752 362.361 631.338 357.818 624.277L357.428 623.672C354.049 618.42 354.199 607.379 360.694 598.453C363.651 594.389 367.481 591.511 371.894 590.219C376.201 588.957 382.084 588.903 389.811 592.211L390.42 592.472C397.783 595.625 406.085 590.698 406.845 582.724L406.908 582.064C407.834 572.349 413.994 567.011 422.157 565.268C431.133 563.351 439.966 566.384 444.044 571.477L444.599 572.17C450.454 579.482 462.082 577.407 465.046 568.522L465.327 567.679C469.552 555.016 478.469 551.059 487.076 551.675Z" fill="#23241F" class="brain-1"/>
<path d="M543.146 688.796C558.388 696.692 573.199 698.036 585.822 693.061C598.305 688.141 606.718 677.784 610.661 666.123C617.799 645.014 610.955 618.159 586.965 602.756C587.325 587.461 578.854 572.446 568.476 562.669C558.044 552.84 542.492 545.38 526.344 548.563C517.699 535.8 503.274 528.156 488.834 527.122C474.161 526.071 459.281 531.792 449.504 545.105C439.423 540.086 427.527 538.95 417.016 541.194C404.218 543.927 392.028 551.987 386.03 565.532C378.642 564.267 371.559 564.666 364.974 566.595C354.579 569.64 346.443 576.198 340.789 583.97C332.875 594.847 328.81 609.797 331.364 623.333C317.552 631.664 310.028 647.551 309.102 662.113C308.484 671.849 310.609 682.206 316.546 690.976C322.62 699.948 332.152 705.763 344.666 708.263H345.86H436.524C441.661 708.263 445.663 710.574 448.668 715.492C452.816 722.279 453.993 733.459 451.434 741.491C449.114 748.775 444.436 753.022 436.524 753.022C429.726 753.022 424.216 758.533 424.216 765.33C424.216 772.128 429.726 777.639 436.524 777.639C457.283 777.639 470.012 764.271 474.889 748.963C477.538 740.647 478.076 731.371 476.556 722.499H491.714C504.651 722.499 514.761 716.214 521.338 707.509C527.708 699.079 530.836 688.414 531.136 678.229H536.502C536.633 682.547 539.038 686.667 543.146 688.796Z" fill="#FF63A8" class="brain-4"/>
<path fill-rule="evenodd" clip-rule="evenodd" d="M487.076 551.675C496.65 552.361 505.582 558.68 508.585 567.679L508.769 568.232C511.111 575.252 519.254 578.42 525.725 574.828L526.234 574.545C533.464 570.532 542.919 572.412 551.595 580.586C560.583 589.054 563.676 599.652 561.784 605.794L561.66 606.199C559.916 611.859 562.63 617.937 568.009 620.417L568.393 620.594C587.239 629.284 591.337 646.423 587.342 658.238C585.338 664.164 581.499 668.305 576.796 670.159C572.231 671.958 564.918 672.351 554.469 666.938C548.433 663.811 541.005 666.169 537.878 672.205C534.752 678.241 537.11 685.669 543.146 688.796C558.388 696.692 573.199 698.036 585.822 693.061C598.305 688.141 606.718 677.784 610.661 666.123C617.799 645.014 610.955 618.159 586.965 602.756C587.325 587.461 578.854 572.446 568.476 562.669C558.044 552.84 542.492 545.38 526.344 548.563C517.699 535.8 503.274 528.156 488.834 527.122C474.161 526.071 459.281 531.792 449.504 545.105C439.423 540.086 427.527 538.95 417.016 541.194C404.218 543.927 392.028 551.987 386.03 565.532C378.642 564.267 371.559 564.666 364.974 566.595C354.579 569.64 346.443 576.198 340.789 583.97C332.875 594.847 328.81 609.797 331.364 623.333C317.552 631.664 310.028 647.551 309.102 662.113C308.484 671.849 310.609 682.206 316.546 690.976C322.619 699.948 332.152 705.763 344.666 708.263H345.86H436.524C441.661 708.263 445.663 710.574 448.668 715.492C452.816 722.279 453.993 733.459 451.434 741.491C449.114 748.775 444.436 753.022 436.524 753.022C429.726 753.022 424.216 758.533 424.216 765.33C424.216 772.128 429.726 777.639 436.524 777.639C457.283 777.639 470.012 764.271 474.889 748.963C477.538 740.647 478.076 731.371 476.556 722.499H491.714C504.651 722.499 514.761 716.214 521.338 707.509C527.708 699.079 530.836 688.414 531.136 678.229C531.435 668.061 528.944 659.341 522.502 650.587C515.752 641.416 505.194 634.414 491.714 634.414H407.977C401.18 634.414 395.669 639.858 395.669 646.655C395.669 653.453 401.18 659.031 407.977 659.031H491.714C497.265 659.031 500.504 662.227 502.676 665.178C505.154 668.545 506.707 671.511 506.53 677.505C506.354 683.481 504.487 688.978 501.698 692.669C499.116 696.086 495.905 697.882 491.714 697.882H465.378C458.625 690.082 448.892 683.647 436.524 683.647H348.403C342.546 682.24 339.055 680.314 336.931 677.176C334.541 673.647 333.336 668.911 333.669 663.674C334.381 652.471 341.287 643.939 349.344 642.43L350.051 642.298C358.303 640.752 362.361 631.338 357.818 624.277L357.428 623.672C354.049 618.42 354.199 607.379 360.694 598.453C363.651 594.389 367.481 591.511 371.894 590.219C376.201 588.957 382.084 588.903 389.811 592.211L390.42 592.472C397.783 595.625 406.085 590.698 406.845 582.724L406.908 582.064C407.834 572.349 413.994 567.011 422.157 565.268C431.133 563.351 439.966 566.384 444.044 571.477L444.599 572.17C450.454 579.482 462.082 577.407 465.046 568.522L465.327 567.679C469.552 555.016 478.469 551.059 487.076 551.675Z" fill="#23241F" class="brain-4"/>
<path d="M817.218 688.796C801.975 696.692 787.164 698.036 774.542 693.062C762.058 688.142 753.645 677.784 749.702 666.123C742.564 645.014 749.408 618.16 773.398 602.757C773.038 587.462 781.51 572.447 791.888 562.669C802.32 552.841 817.871 545.38 834.019 548.563C842.665 535.8 857.089 528.156 871.529 527.122C886.202 526.072 901.082 531.793 910.859 545.105C920.94 540.087 932.836 538.95 943.348 541.195C956.145 543.928 968.335 551.987 974.333 565.532C981.722 564.268 988.804 564.666 995.389 566.595C1005.78 569.64 1013.92 576.198 1019.57 583.97C1027.49 594.847 1031.55 609.798 1029 623.333C1042.81 631.664 1050.34 647.552 1051.26 662.113C1051.88 671.85 1049.75 682.206 1043.82 690.976C1037.74 699.948 1028.21 705.763 1015.7 708.264H1014.5H923.84C918.703 708.264 914.701 710.575 911.695 715.492C907.547 722.279 906.37 733.46 908.929 741.491C911.249 748.775 915.927 753.023 923.84 753.023C930.637 753.023 936.148 758.533 936.148 765.331C936.148 772.128 930.637 777.639 923.84 777.639C903.081 777.639 890.351 764.272 885.474 748.964C882.825 740.648 882.287 731.371 883.807 722.499H868.649C855.713 722.499 845.602 716.214 839.025 707.51C832.656 699.08 829.527 688.415 829.227 678.229H823.861C823.73 682.547 821.326 686.668 817.218 688.796Z" fill="#FF63A8" class="brain-2"/>
<path fill-rule="evenodd" clip-rule="evenodd" d="M873.287 551.676C863.713 552.361 854.781 558.68 851.778 567.68L851.594 568.232C849.252 575.252 841.109 578.42 834.639 574.828L834.13 574.546C826.9 570.533 817.444 572.412 808.768 580.586C799.78 589.054 796.687 599.652 798.579 605.795L798.704 606.199C800.447 611.86 797.733 617.937 792.354 620.417L791.97 620.594C773.124 629.285 769.026 646.423 773.021 658.238C775.025 664.165 778.864 668.306 783.568 670.16C788.132 671.959 795.445 672.352 805.894 666.938C811.93 663.812 819.358 666.17 822.485 672.206C825.612 678.241 823.254 685.669 817.218 688.796C801.975 696.692 787.164 698.036 774.542 693.062C762.058 688.142 753.645 677.784 749.702 666.123C742.564 645.014 749.408 618.16 773.398 602.757C773.038 587.462 781.51 572.447 791.888 562.669C802.32 552.841 817.871 545.38 834.019 548.563C842.665 535.8 857.089 528.156 871.529 527.122C886.202 526.072 901.082 531.793 910.859 545.105C920.94 540.087 932.836 538.95 943.348 541.195C956.145 543.928 968.335 551.987 974.333 565.532C981.722 564.268 988.804 564.666 995.389 566.595C1005.78 569.64 1013.92 576.198 1019.57 583.97C1027.49 594.847 1031.55 609.798 1029 623.333C1042.81 631.664 1050.34 647.552 1051.26 662.113C1051.88 671.85 1049.75 682.206 1043.82 690.976C1037.74 699.948 1028.21 705.763 1015.7 708.264H1014.5H923.84C918.703 708.264 914.701 710.575 911.695 715.492C907.547 722.279 906.37 733.46 908.929 741.491C911.249 748.775 915.927 753.023 923.84 753.023C930.637 753.023 936.148 758.533 936.148 765.331C936.148 772.128 930.637 777.639 923.84 777.639C903.081 777.639 890.351 764.272 885.474 748.964C882.825 740.648 882.287 731.371 883.807 722.499H868.649C855.713 722.499 845.602 716.214 839.025 707.51C832.656 699.08 829.527 688.415 829.227 678.229C828.928 668.062 831.419 659.341 837.862 650.587C844.611 641.416 855.169 634.415 868.649 634.415H952.386C959.184 634.415 964.694 639.858 964.694 646.656C964.694 653.453 959.184 659.031 952.386 659.031H868.649C863.098 659.031 859.859 662.228 857.688 665.178C855.21 668.545 853.657 671.511 853.833 677.505C854.009 683.481 855.876 688.978 858.665 692.67C861.247 696.086 864.458 697.883 868.649 697.883H894.986C901.738 690.082 911.471 683.647 923.84 683.647H1011.96C1017.82 682.241 1021.31 680.315 1023.43 677.177C1025.82 673.647 1027.03 668.911 1026.69 663.674C1025.98 652.471 1019.08 643.94 1011.02 642.43L1010.31 642.298C1002.06 640.752 998.003 631.338 1002.55 624.277L1002.93 623.673C1006.31 618.42 1006.16 607.379 999.669 598.453C996.713 594.389 992.882 591.512 988.469 590.219C984.162 588.957 978.279 588.903 970.553 592.211L969.944 592.472C962.58 595.625 954.278 590.698 953.518 582.724L953.455 582.065C952.529 572.349 946.37 567.012 938.207 565.268C929.23 563.352 920.397 566.384 916.319 571.477L915.764 572.171C909.909 579.483 898.282 577.408 895.317 568.522L895.036 567.68C890.811 555.016 881.894 551.059 873.287 551.676Z" fill="#23241F" class="brain-2"/>
<path d="M817.218 688.796C801.975 696.692 787.164 698.036 774.542 693.062C762.058 688.142 753.645 677.784 749.702 666.123C742.564 645.014 749.408 618.16 773.398 602.757C773.038 587.462 781.51 572.447 791.888 562.669C802.32 552.841 817.871 545.38 834.019 548.563C842.665 535.8 857.089 528.156 871.529 527.122C886.202 526.072 901.082 531.793 910.859 545.105C920.94 540.087 932.836 538.95 943.348 541.195C956.145 543.928 968.335 551.987 974.333 565.532C981.722 564.268 988.804 564.666 995.389 566.595C1005.78 569.64 1013.92 576.198 1019.57 583.97C1027.49 594.847 1031.55 609.798 1029 623.333C1042.81 631.664 1050.34 647.552 1051.26 662.113C1051.88 671.85 1049.75 682.206 1043.82 690.976C1037.74 699.948 1028.21 705.763 1015.7 708.264H1014.5H923.84C918.703 708.264 914.701 710.575 911.695 715.492C907.547 722.279 906.37 733.46 908.929 741.491C911.249 748.775 915.927 753.023 923.84 753.023C930.637 753.023 936.148 758.533 936.148 765.331C936.148 772.128 930.637 777.639 923.84 777.639C903.081 777.639 890.351 764.272 885.474 748.964C882.825 740.648 882.287 731.371 883.807 722.499H868.649C855.713 722.499 845.602 716.214 839.025 707.51C832.656 699.08 829.527 688.415 829.227 678.229H823.861C823.73 682.547 821.326 686.668 817.218 688.796Z" fill="#FF63A8" class="brain-3"/>
<path fill-rule="evenodd" clip-rule="evenodd" d="M873.287 551.676C863.713 552.361 854.781 558.68 851.778 567.68L851.594 568.232C849.252 575.252 841.109 578.42 834.639 574.828L834.13 574.546C826.9 570.533 817.444 572.412 808.768 580.586C799.78 589.054 796.687 599.652 798.579 605.795L798.704 606.199C800.447 611.86 797.733 617.937 792.354 620.417L791.97 620.594C773.124 629.285 769.026 646.423 773.021 658.238C775.025 664.165 778.864 668.306 783.568 670.16C788.132 671.959 795.445 672.352 805.894 666.938C811.93 663.812 819.358 666.17 822.485 672.206C825.612 678.241 823.254 685.669 817.218 688.796C801.975 696.692 787.164 698.036 774.542 693.062C762.058 688.142 753.645 677.784 749.702 666.123C742.564 645.014 749.408 618.16 773.398 602.757C773.038 587.462 781.51 572.447 791.888 562.669C802.32 552.841 817.871 545.38 834.019 548.563C842.665 535.8 857.089 528.156 871.529 527.122C886.202 526.072 901.082 531.793 910.859 545.105C920.94 540.087 932.836 538.95 943.348 541.195C956.145 543.928 968.335 551.987 974.333 565.532C981.722 564.268 988.804 564.666 995.389 566.595C1005.78 569.64 1013.92 576.198 1019.57 583.97C1027.49 594.847 1031.55 609.798 1029 623.333C1042.81 631.664 1050.34 647.552 1051.26 662.113C1051.88 671.85 1049.75 682.206 1043.82 690.976C1037.74 699.948 1028.21 705.763 1015.7 708.264H1014.5H923.84C918.703 708.264 914.701 710.575 911.695 715.492C907.547 722.279 906.37 733.46 908.929 741.491C911.249 748.775 915.927 753.023 923.84 753.023C930.637 753.023 936.148 758.533 936.148 765.331C936.148 772.128 930.637 777.639 923.84 777.639C903.081 777.639 890.351 764.272 885.474 748.964C882.825 740.648 882.287 731.371 883.807 722.499H868.649C855.713 722.499 845.602 716.214 839.025 707.51C832.656 699.08 829.527 688.415 829.227 678.229C828.928 668.062 831.419 659.341 837.862 650.587C844.611 641.416 855.169 634.415 868.649 634.415H952.386C959.184 634.415 964.694 639.858 964.694 646.656C964.694 653.453 959.184 659.031 952.386 659.031H868.649C863.098 659.031 859.859 662.228 857.688 665.178C855.21 668.545 853.657 671.511 853.833 677.505C854.009 683.481 855.876 688.978 858.665 692.67C861.247 696.086 864.458 697.883 868.649 697.883H894.986C901.738 690.082 911.471 683.647 923.84 683.647H1011.96C1017.82 682.241 1021.31 680.315 1023.43 677.177C1025.82 673.647 1027.03 668.911 1026.69 663.674C1025.98 652.471 1019.08 643.94 1011.02 642.43L1010.31 642.298C1002.06 640.752 998.003 631.338 1002.55 624.277L1002.93 623.673C1006.31 618.42 1006.16 607.379 999.669 598.453C996.713 594.389 992.882 591.512 988.469 590.219C984.162 588.957 978.279 588.903 970.553 592.211L969.944 592.472C962.58 595.625 954.278 590.698 953.518 582.724L953.455 582.065C952.529 572.349 946.37 567.012 938.207 565.268C929.23 563.352 920.397 566.384 916.319 571.477L915.764 572.171C909.909 579.483 898.282 577.408 895.317 568.522L895.036 567.68C890.811 555.016 881.894 551.059 873.287 551.676Z" fill="#23241F" class="brain-3"/>
</g>
</svg>
