<svg width="434" height="345" viewBox="0 0 434 345" fill="none" xmlns="http://www.w3.org/2000/svg">
<path d="M120.204 38.8035C132.519 25.8218 151.858 23.1935 169.486 24.191C224.813 27.4426 274.754 59.0017 317.954 94.7051C333.595 107.627 348.992 121.556 359.142 139.356C379.822 175.588 373.677 225.779 344.944 255.627C335.165 265.781 323.314 273.581 311.147 280.469C289.513 292.737 266.169 302.587 241.614 305.405C224.108 307.4 206.382 305.779 188.972 302.991C140.34 295.196 92.602 277.96 52.5877 248.476C35.039 235.544 18.4905 219.465 11.2651 198.544C4.03961 177.622 8.66103 151.11 26.5812 138.727C33.9923 133.605 42.8553 131.291 51.5284 129.117C64.2995 125.92 77.2733 122.768 88.7952 116.27C100.701 109.557 114.793 96.5753 112.43 81.7134C109.906 65.7693 107.88 51.7702 120.204 38.8035Z" fill="#424242"/>
<path d="M431.886 208.32C431.886 184.087 413.515 164.153 389.738 161.873V156.401H375.472V261.086H389.738V254.768C413.45 252.487 431.886 232.554 431.886 208.32ZM389.673 239.719V176.986C404.917 179.201 416.903 192.425 416.903 208.385C416.903 224.28 404.917 237.504 389.673 239.719Z" fill="#F09F54"/>
<path opacity="0.29" d="M389.673 161.873V156.401H375.406V261.086H389.673V254.768C413.45 252.487 431.821 232.619 431.821 208.32C431.886 184.087 413.45 164.153 389.673 161.873ZM389.673 249.947V255.354H376.318V161.156H389.673V166.694C410.584 168.713 427.456 186.562 427.456 208.32C427.521 230.078 410.649 247.927 389.673 249.947Z" fill="#F09F54"/>
<path d="M431.886 208.32C431.886 184.087 413.515 164.153 389.738 161.873V156.401H375.472V261.086H389.738V254.768C413.45 252.487 431.886 232.554 431.886 208.32ZM389.673 239.719V176.986C404.917 179.201 416.903 192.425 416.903 208.385C416.903 224.28 404.917 237.504 389.673 239.719Z" stroke="#23241F" stroke-width="3" stroke-miterlimit="10" stroke-linecap="round" stroke-linejoin="round"/>
<path d="M381.139 250.598H375.406" stroke="#23241F" stroke-width="3" stroke-miterlimit="10" stroke-linecap="round" stroke-linejoin="round"/>
<path d="M381.139 240.175H375.406" stroke="#23241F" stroke-width="3" stroke-miterlimit="10" stroke-linecap="round" stroke-linejoin="round"/>
<path d="M381.139 229.687H375.406" stroke="#23241F" stroke-width="3" stroke-miterlimit="10" stroke-linecap="round" stroke-linejoin="round"/>
<path d="M381.139 219.199H375.406" stroke="#23241F" stroke-width="3" stroke-miterlimit="10" stroke-linecap="round" stroke-linejoin="round"/>
<path d="M381.139 208.776H375.406" stroke="#23241F" stroke-width="3" stroke-miterlimit="10" stroke-linecap="round" stroke-linejoin="round"/>
<path d="M381.139 198.288H375.406" stroke="#23241F" stroke-width="3" stroke-miterlimit="10" stroke-linecap="round" stroke-linejoin="round"/>
<path d="M381.139 187.8H375.406" stroke="#23241F" stroke-width="3" stroke-miterlimit="10" stroke-linecap="round" stroke-linejoin="round"/>
<path d="M381.139 177.312H375.406" stroke="#23241F" stroke-width="3" stroke-miterlimit="10" stroke-linecap="round" stroke-linejoin="round"/>
<path d="M381.139 166.889H375.406" stroke="#23241F" stroke-width="3" stroke-miterlimit="10" stroke-linecap="round" stroke-linejoin="round"/>
<g class="component--2" style="animation-delay: 1s;">
<path d="M365.374 103.439H343.812V260.826H365.374V103.439Z" fill="#F09F54"/>
<path d="M365.374 103.439H343.812V260.826H365.374V103.439Z" fill="#F09F54"/>
<path opacity="0.29" d="M365.374 103.439H355.993V260.826H365.374V103.439Z" fill="#F09F54"/>
<path d="M365.374 103.439H343.812V260.826H365.374V103.439Z" stroke="#23241F" stroke-width="3" stroke-miterlimit="10" stroke-linecap="round" stroke-linejoin="round"/>
<path d="M351.303 244.931H343.812" stroke="#23241F" stroke-width="3" stroke-miterlimit="10" stroke-linecap="round" stroke-linejoin="round"/>
<path d="M348.437 252.422H343.812" stroke="#23241F" stroke-width="3" stroke-miterlimit="10" stroke-linecap="round" stroke-linejoin="round"/>
<path d="M351.303 229.948H343.812" stroke="#23241F" stroke-width="3" stroke-miterlimit="10" stroke-linecap="round" stroke-linejoin="round"/>
<path d="M348.437 237.439H343.812" stroke="#23241F" stroke-width="3" stroke-miterlimit="10" stroke-linecap="round" stroke-linejoin="round"/>
<path d="M351.303 214.965H343.812" stroke="#23241F" stroke-width="3" stroke-miterlimit="10" stroke-linecap="round" stroke-linejoin="round"/>
<path d="M348.437 222.456H343.812" stroke="#23241F" stroke-width="3" stroke-miterlimit="10" stroke-linecap="round" stroke-linejoin="round"/>
<path d="M351.303 199.917H343.812" stroke="#23241F" stroke-width="3" stroke-miterlimit="10" stroke-linecap="round" stroke-linejoin="round"/>
<path d="M348.437 207.408H343.812" stroke="#23241F" stroke-width="3" stroke-miterlimit="10" stroke-linecap="round" stroke-linejoin="round"/>
<path d="M351.303 184.934H343.812" stroke="#23241F" stroke-width="3" stroke-miterlimit="10" stroke-linecap="round" stroke-linejoin="round"/>
<path d="M348.437 192.425H343.812" stroke="#23241F" stroke-width="3" stroke-miterlimit="10" stroke-linecap="round" stroke-linejoin="round"/>
<path d="M351.303 169.951H343.812" stroke="#23241F" stroke-width="3" stroke-miterlimit="10" stroke-linecap="round" stroke-linejoin="round"/>
<path d="M348.437 177.442H343.812" stroke="#23241F" stroke-width="3" stroke-miterlimit="10" stroke-linecap="round" stroke-linejoin="round"/>
<path d="M351.303 154.968H343.812" stroke="#23241F" stroke-width="3" stroke-miterlimit="10" stroke-linecap="round" stroke-linejoin="round"/>
<path d="M348.437 162.459H343.812" stroke="#23241F" stroke-width="3" stroke-miterlimit="10" stroke-linecap="round" stroke-linejoin="round"/>
<path d="M351.303 139.985H343.812" stroke="#23241F" stroke-width="3" stroke-miterlimit="10" stroke-linecap="round" stroke-linejoin="round"/>
<path d="M348.437 147.476H343.812" stroke="#23241F" stroke-width="3" stroke-miterlimit="10" stroke-linecap="round" stroke-linejoin="round"/>
<path d="M351.303 125.002H343.812" stroke="#23241F" stroke-width="3" stroke-miterlimit="10" stroke-linecap="round" stroke-linejoin="round"/>
<path d="M348.437 132.493H343.812" stroke="#23241F" stroke-width="3" stroke-miterlimit="10" stroke-linecap="round" stroke-linejoin="round"/>
<path d="M351.303 110.019H343.812" stroke="#23241F" stroke-width="3" stroke-miterlimit="10" stroke-linecap="round" stroke-linejoin="round"/>
<path d="M348.437 117.51H343.812" stroke="#23241F" stroke-width="3" stroke-miterlimit="10" stroke-linecap="round" stroke-linejoin="round"/>
</g>
<g class="component--4">
<path d="M312.348 141.483H303.944V163.697H312.348V141.483Z" fill="#848484"/>
<path opacity="0.25" d="M307.071 141.483H303.944V163.697H307.071V141.483Z" fill="#848484"/>
<path d="M312.348 141.483H303.944V163.697H312.348V141.483Z" stroke="#23241F" stroke-width="3" stroke-miterlimit="10" stroke-linecap="round" stroke-linejoin="round"/>
<path d="M310.068 163.762H306.225V174.511H310.068V163.762Z" fill="white"/>
<path d="M310.068 163.762H306.225V174.511H310.068V163.762Z" stroke="#23241F" stroke-width="3" stroke-miterlimit="10" stroke-linecap="round" stroke-linejoin="round"/>
<path d="M301.664 184.087L282.121 260.761L311.827 185.129L301.664 184.087Z" fill="white"/>
<path d="M301.664 184.087L282.121 260.761L311.827 185.129L301.664 184.087Z" stroke="#23241F" stroke-width="3" stroke-miterlimit="10" stroke-linecap="round" stroke-linejoin="round"/>
<path d="M314.693 184.087L334.236 260.761L304.596 185.129L314.693 184.087Z" fill="white"/>
<path d="M314.693 184.087L334.236 260.761L304.596 185.129L314.693 184.087Z" stroke="#23241F" stroke-width="3" stroke-miterlimit="10" stroke-linecap="round" stroke-linejoin="round"/>
<path d="M308.178 199.135C315.374 199.135 321.207 193.302 321.207 186.106C321.207 178.911 315.374 173.078 308.178 173.078C300.983 173.078 295.149 178.911 295.149 186.106C295.149 193.302 300.983 199.135 308.178 199.135Z" fill="#71A850"/>
<path opacity="0.4" d="M298.797 186.106C298.797 179.527 303.683 174.12 310.002 173.208C309.416 173.143 308.83 173.078 308.178 173.078C301.012 173.078 295.149 178.94 295.149 186.106C295.149 193.272 301.012 199.135 308.178 199.135C308.764 199.135 309.416 199.07 310.002 199.005C303.683 198.093 298.797 192.686 298.797 186.106Z" fill="#71A850"/>
<path d="M308.178 199.135C315.374 199.135 321.207 193.302 321.207 186.106C321.207 178.911 315.374 173.078 308.178 173.078C300.983 173.078 295.149 178.911 295.149 186.106C295.149 193.302 300.983 199.135 308.178 199.135Z" stroke="#23241F" stroke-width="3" stroke-miterlimit="10" stroke-linecap="round" stroke-linejoin="round"/>
<path d="M308.179 190.536C310.625 190.536 312.609 188.553 312.609 186.106C312.609 183.66 310.625 181.677 308.179 181.677C305.732 181.677 303.749 183.66 303.749 186.106C303.749 188.553 305.732 190.536 308.179 190.536Z" fill="#444E59"/>
<path d="M308.179 190.536C310.625 190.536 312.609 188.553 312.609 186.106C312.609 183.66 310.625 181.677 308.179 181.677C305.732 181.677 303.749 183.66 303.749 186.106C303.749 188.553 305.732 190.536 308.179 190.536Z" stroke="#444E59" stroke-width="4" stroke-miterlimit="10" stroke-linecap="round" stroke-linejoin="round"/>
</g>
<path d="M261.145 260.63H175.155C170.139 260.63 166.035 256.526 166.035 251.51V74.32C166.035 69.304 170.139 65.2 175.155 65.2H261.145C266.161 65.2 270.265 69.304 270.265 74.32V251.51C270.265 256.526 266.161 260.63 261.145 260.63Z" fill="#848484"/>
<path opacity="0.28" d="M261.144 65.2H255.672C260.688 65.2 264.792 69.304 264.792 74.32V251.51C264.792 256.526 260.688 260.63 255.672 260.63H261.209C266.225 260.63 270.329 256.526 270.329 251.51V74.32C270.264 69.2388 266.16 65.2 261.144 65.2Z" fill="#848484"/>
<path opacity="0.48" d="M171.442 251.51V74.32C171.442 69.304 175.546 65.2 180.562 65.2H175.155C170.139 65.2 166.035 69.304 166.035 74.32V251.51C166.035 256.526 170.139 260.63 175.155 260.63H180.562C175.546 260.63 171.442 256.526 171.442 251.51Z" fill="#848484"/>
<path d="M261.145 260.63H175.155C170.139 260.63 166.035 256.526 166.035 251.51V74.32C166.035 69.304 170.139 65.2 175.155 65.2H261.145C266.161 65.2 270.265 69.304 270.265 74.32V251.51C270.265 256.526 266.161 260.63 261.145 260.63Z" stroke="#23241F" stroke-width="3" stroke-miterlimit="10" stroke-linecap="round" stroke-linejoin="round"/>
<path d="M270.276 235.542V89.6208L166.047 89.6208L166.047 235.542L270.276 235.542Z" fill="#FAEC9C"/>
<path d="M270.276 235.542V89.6208L166.047 89.6208L166.047 235.542L270.276 235.542Z" stroke="#23241F" stroke-width="3" stroke-miterlimit="10" stroke-linecap="round" stroke-linejoin="round"/>
<path d="M232.482 78.2286H237.042" stroke="#444E59" stroke-width="3" stroke-miterlimit="10" stroke-linecap="round" stroke-linejoin="round"/>
<path d="M199.259 78.2286H225.316" stroke="#444E59" stroke-width="3" stroke-miterlimit="10" stroke-linecap="round" stroke-linejoin="round"/>
<path opacity="0.29" d="M218.15 253.725C222.108 253.725 225.316 250.517 225.316 246.559C225.316 242.602 222.108 239.394 218.15 239.394C214.193 239.394 210.984 242.602 210.984 246.559C210.984 250.517 214.193 253.725 218.15 253.725Z" fill="#848484"/>
<path d="M218.15 253.031C221.172 253.031 223.622 250.581 223.622 247.559C223.622 244.537 221.172 242.087 218.15 242.087C215.128 242.087 212.678 244.537 212.678 247.559C212.678 250.581 215.128 253.031 218.15 253.031Z" fill="#444E59"/>
<g opacity="0.3">
<g opacity="0.3">
<g opacity="0.3">
<path opacity="0.3" d="M194.373 218.092H183.95C181.083 218.092 178.738 215.747 178.738 212.88V202.457C178.738 199.591 181.083 197.246 183.95 197.246H194.373C197.239 197.246 199.584 199.591 199.584 202.457V212.88C199.584 215.747 197.239 218.092 194.373 218.092Z" stroke="#444E59" stroke-width="2" stroke-linecap="round" stroke-linejoin="round" stroke-dasharray="4.08 4.08"/>
</g>
<g opacity="0.3">
<path opacity="0.3" d="M252.025 218.092H241.602C238.736 218.092 236.391 215.747 236.391 212.88V202.457C236.391 199.591 238.736 197.246 241.602 197.246H252.025C254.891 197.246 257.237 199.591 257.237 202.457V212.88C257.237 215.747 254.891 218.092 252.025 218.092Z" stroke="#444E59" stroke-width="2" stroke-linecap="round" stroke-linejoin="round" stroke-dasharray="4.08 4.08"/>
</g>
<g opacity="0.3">
<path opacity="0.3" d="M223.362 218.092H212.939C210.073 218.092 207.728 215.747 207.728 212.88V202.457C207.728 199.591 210.073 197.246 212.939 197.246H223.362C226.228 197.246 228.573 199.591 228.573 202.457V212.88C228.573 215.747 226.228 218.092 223.362 218.092Z" stroke="#444E59" stroke-width="2" stroke-linecap="round" stroke-linejoin="round" stroke-dasharray="4.08 4.08"/>
</g>
</g>
<g opacity="0.3">
<g opacity="0.3">
<path opacity="0.3" d="M194.373 186.823H183.95C181.083 186.823 178.738 184.478 178.738 181.612V171.189C178.738 168.322 181.083 165.977 183.95 165.977H194.373C197.239 165.977 199.584 168.322 199.584 171.189V181.612C199.584 184.478 197.239 186.823 194.373 186.823Z" stroke="#444E59" stroke-width="2" stroke-linecap="round" stroke-linejoin="round" stroke-dasharray="4.08 4.08"/>
</g>
<g opacity="0.3">
<path opacity="0.3" d="M252.025 186.823H241.602C238.736 186.823 236.391 184.478 236.391 181.612V171.189C236.391 168.322 238.736 165.977 241.602 165.977H252.025C254.891 165.977 257.237 168.322 257.237 171.189V181.612C257.237 184.478 254.891 186.823 252.025 186.823Z" stroke="#444E59" stroke-width="2" stroke-linecap="round" stroke-linejoin="round" stroke-dasharray="4.08 4.08"/>
</g>
<g opacity="0.3">
<path opacity="0.3" d="M223.362 186.823H212.939C210.073 186.823 207.728 184.478 207.728 181.612V171.189C207.728 168.322 210.073 165.977 212.939 165.977H223.362C226.228 165.977 228.573 168.322 228.573 171.189V181.612C228.573 184.478 226.228 186.823 223.362 186.823Z" stroke="#444E59" stroke-width="2" stroke-linecap="round" stroke-linejoin="round" stroke-dasharray="4.08 4.08"/>
</g>
</g>
<g opacity="0.3">
<g opacity="0.3">
<path opacity="0.3" d="M194.373 155.554H183.95C181.083 155.554 178.738 153.209 178.738 150.343V139.92C178.738 137.053 181.083 134.708 183.95 134.708H194.373C197.239 134.708 199.584 137.053 199.584 139.92V150.343C199.584 153.209 197.239 155.554 194.373 155.554Z" stroke="#444E59" stroke-width="2" stroke-linecap="round" stroke-linejoin="round" stroke-dasharray="4.08 4.08"/>
</g>
<g opacity="0.3">
<path opacity="0.3" d="M252.025 155.554H241.602C238.736 155.554 236.391 153.209 236.391 150.343V139.92C236.391 137.053 238.736 134.708 241.602 134.708H252.025C254.891 134.708 257.237 137.053 257.237 139.92V150.343C257.237 153.209 254.891 155.554 252.025 155.554Z" stroke="#444E59" stroke-width="2" stroke-linecap="round" stroke-linejoin="round" stroke-dasharray="4.08 4.08"/>
</g>
<g opacity="0.3">
<path opacity="0.3" d="M223.362 155.554H212.939C210.073 155.554 207.728 153.209 207.728 150.343V139.92C207.728 137.053 210.073 134.708 212.939 134.708H223.362C226.228 134.708 228.573 137.053 228.573 139.92V150.343C228.573 153.209 226.228 155.554 223.362 155.554Z" stroke="#444E59" stroke-width="2" stroke-linecap="round" stroke-linejoin="round" stroke-dasharray="4.08 4.08"/>
</g>
</g>
<g opacity="0.3">
<g opacity="0.3">
<path opacity="0.3" d="M194.373 124.285H183.95C181.083 124.285 178.738 121.94 178.738 119.074V108.651C178.738 105.784 181.083 103.439 183.95 103.439H194.373C197.239 103.439 199.584 105.784 199.584 108.651V119.074C199.584 121.94 197.239 124.285 194.373 124.285Z" stroke="#444E59" stroke-width="2" stroke-linecap="round" stroke-linejoin="round" stroke-dasharray="4.08 4.08"/>
</g>
<g opacity="0.3">
<path opacity="0.3" d="M252.025 124.285H241.602C238.736 124.285 236.391 121.94 236.391 119.074V108.651C236.391 105.784 238.736 103.439 241.602 103.439H252.025C254.891 103.439 257.237 105.784 257.237 108.651V119.074C257.237 121.94 254.891 124.285 252.025 124.285Z" stroke="#444E59" stroke-width="2" stroke-linecap="round" stroke-linejoin="round" stroke-dasharray="4.08 4.08"/>
</g>
<g opacity="0.3">
<path opacity="0.3" d="M223.362 124.285H212.939C210.073 124.285 207.728 121.94 207.728 119.074V108.651C207.728 105.784 210.073 103.439 212.939 103.439H223.362C226.228 103.439 228.573 105.784 228.573 108.651V119.074C228.573 121.94 226.228 124.285 223.362 124.285Z" stroke="#444E59" stroke-width="2" stroke-linecap="round" stroke-linejoin="round" stroke-dasharray="4.08 4.08"/>
</g>
</g>
</g>
<path d="M194.373 218.092H183.95C181.083 218.092 178.738 215.747 178.738 212.88V202.457C178.738 199.591 181.083 197.246 183.95 197.246H194.373C197.239 197.246 199.584 199.591 199.584 202.457V212.88C199.584 215.747 197.239 218.092 194.373 218.092Z" fill="#71A850"/>
<path opacity="0.52" d="M194.372 197.246H183.949C181.865 197.246 180.041 198.484 179.259 200.242L199.584 203.89V202.457C199.584 199.591 197.238 197.246 194.372 197.246Z" fill="#5F8C42"/>
<path d="M194.373 218.092H183.95C181.083 218.092 178.738 215.747 178.738 212.88V202.457C178.738 199.591 181.083 197.246 183.95 197.246H194.373C197.239 197.246 199.584 199.591 199.584 202.457V212.88C199.584 215.747 197.239 218.092 194.373 218.092Z" stroke="#23241F" stroke-width="3" stroke-miterlimit="10" stroke-linecap="round" stroke-linejoin="round"/>
<path d="M223.361 218.092H212.938C210.072 218.092 207.727 215.747 207.727 212.88V202.457C207.727 199.591 210.072 197.246 212.938 197.246H223.361C226.227 197.246 228.572 199.591 228.572 202.457V212.88C228.572 215.747 226.227 218.092 223.361 218.092Z" fill="#F09F54"/>
<path opacity="0.52" d="M223.361 197.246H212.938C210.854 197.246 209.03 198.484 208.248 200.242L228.573 203.89V202.457C228.573 199.591 226.228 197.246 223.361 197.246Z" fill="#D38444"/>
<path d="M223.361 218.092H212.938C210.072 218.092 207.727 215.747 207.727 212.88V202.457C207.727 199.591 210.072 197.246 212.938 197.246H223.361C226.227 197.246 228.572 199.591 228.572 202.457V212.88C228.572 215.747 226.227 218.092 223.361 218.092Z" stroke="#23241F" stroke-width="3" stroke-miterlimit="10" stroke-linecap="round" stroke-linejoin="round"/>
<path d="M252.024 186.823H241.601C238.735 186.823 236.39 184.478 236.39 181.611V171.188C236.39 168.322 238.735 165.977 241.601 165.977H252.024C254.89 165.977 257.236 168.322 257.236 171.188V181.611C257.236 184.478 254.89 186.823 252.024 186.823Z" fill="#2FA9ED"/>
<path opacity="0.52" d="M252.024 165.977H241.601C239.517 165.977 237.693 167.215 236.911 168.973L257.236 172.621V171.188C257.236 168.322 254.891 165.977 252.024 165.977Z" fill="#288FBC"/>
<path d="M252.024 186.823H241.601C238.735 186.823 236.39 184.478 236.39 181.611V171.188C236.39 168.322 238.735 165.977 241.601 165.977H252.024C254.89 165.977 257.236 168.322 257.236 171.188V181.611C257.236 184.478 254.89 186.823 252.024 186.823Z" stroke="#23241F" stroke-width="3" stroke-miterlimit="10" stroke-linecap="round" stroke-linejoin="round"/>
<path d="M223.361 155.554H212.938C210.072 155.554 207.727 153.209 207.727 150.342V139.919C207.727 137.053 210.072 134.708 212.938 134.708H223.361C226.227 134.708 228.572 137.053 228.572 139.919V150.342C228.572 153.209 226.227 155.554 223.361 155.554Z" fill="#E7534E"/>
<path opacity="0.52" d="M223.361 134.708H212.938C210.854 134.708 209.03 135.946 208.248 137.705L228.573 141.353V139.919C228.573 137.053 226.228 134.708 223.361 134.708Z" fill="#BF4040"/>
<path d="M223.361 155.554H212.938C210.072 155.554 207.727 153.209 207.727 150.342V139.919C207.727 137.053 210.072 134.708 212.938 134.708H223.361C226.227 134.708 228.572 137.053 228.572 139.919V150.342C228.572 153.209 226.227 155.554 223.361 155.554Z" stroke="#23241F" stroke-width="3" stroke-miterlimit="10" stroke-linecap="round" stroke-linejoin="round"/>
<path d="M245.119 171.84L251.113 175.292C251.959 175.814 251.959 177.051 251.113 177.507L245.119 180.96C244.272 181.481 243.165 180.83 243.165 179.853V172.947C243.165 171.97 244.272 171.319 245.119 171.84Z" fill="white"/>
<path d="M220.886 203.63H215.414C214.241 203.63 213.329 204.607 213.329 205.714V209.753C213.329 210.926 214.306 211.838 215.414 211.838H215.609L215.153 213.662C215.088 213.792 215.283 213.923 215.414 213.792L218.215 211.838H221.016C222.189 211.838 223.101 210.861 223.101 209.753V205.714C223.035 204.542 222.058 203.63 220.886 203.63Z" fill="white"/>
<path d="M185.122 207.669L187.532 210.079C187.858 210.405 188.379 210.405 188.705 210.079L194.112 204.672" stroke="white" stroke-width="4" stroke-miterlimit="10" stroke-linecap="round" stroke-linejoin="round"/>
<path d="M218.15 150.017C220.849 150.017 223.036 147.829 223.036 145.131C223.036 142.433 220.849 140.245 218.15 140.245C215.452 140.245 213.265 142.433 213.265 145.131C213.265 147.829 215.452 150.017 218.15 150.017Z" stroke="white" stroke-width="4" stroke-miterlimit="10" stroke-linecap="round" stroke-linejoin="round"/>
<g class="spinwheel">
<path d="M178.803 119.725L178.673 109.954L172.159 110.019C171.768 108.781 171.312 107.673 170.66 106.566L175.22 101.876L168.25 95.0357L163.69 99.726C162.582 99.1397 161.41 98.6837 160.172 98.358L160.107 91.8436L150.335 91.9739L150.401 98.4882C149.163 98.8791 148.055 99.3351 146.948 99.9866L142.258 95.4265L135.418 102.397L140.108 106.957C139.522 108.064 139.066 109.237 138.74 110.475L132.226 110.54L132.356 120.311L138.87 120.246C139.261 121.484 139.717 122.591 140.369 123.699L135.808 128.389L142.779 135.229L147.339 130.539C148.446 131.125 149.619 131.581 150.857 131.907L150.922 138.421L160.693 138.291L160.628 131.777C161.866 131.386 162.973 130.93 164.081 130.278L168.771 134.838L175.611 127.868L170.921 123.308C171.507 122.2 171.963 121.028 172.289 119.79L178.803 119.725ZM155.677 122.722C151.443 122.787 148.055 119.399 147.99 115.165C147.925 110.931 151.313 107.543 155.547 107.478C159.781 107.413 163.169 110.8 163.234 115.035C163.234 119.269 159.846 122.656 155.677 122.722Z" fill="white"/>
<path d="M178.803 119.725L178.673 109.954L172.159 110.019C171.768 108.781 171.312 107.673 170.66 106.566L175.22 101.876L168.25 95.0357L163.69 99.726C162.582 99.1397 161.41 98.6837 160.172 98.358L160.107 91.8436L150.335 91.9739L150.401 98.4882C149.163 98.8791 148.055 99.3351 146.948 99.9866L142.258 95.4265L135.418 102.397L140.108 106.957C139.522 108.064 139.066 109.237 138.74 110.475L132.226 110.54L132.356 120.311L138.87 120.246C139.261 121.484 139.717 122.591 140.369 123.699L135.808 128.389L142.779 135.229L147.339 130.539C148.446 131.125 149.619 131.581 150.857 131.907L150.922 138.421L160.693 138.291L160.628 131.777C161.866 131.386 162.973 130.93 164.081 130.278L168.771 134.838L175.611 127.868L170.921 123.308C171.507 122.2 171.963 121.028 172.289 119.79L178.803 119.725ZM155.677 122.722C151.443 122.787 148.055 119.399 147.99 115.165C147.925 110.931 151.313 107.543 155.547 107.478C159.781 107.413 163.169 110.8 163.234 115.035C163.234 119.269 159.846 122.656 155.677 122.722Z" fill="#F09F54"/>
<path d="M178.803 119.725L178.673 109.954L172.159 110.019C171.768 108.781 171.312 107.673 170.66 106.566L175.22 101.876L168.25 95.0357L163.69 99.726C162.582 99.1397 161.41 98.6837 160.172 98.358L160.107 91.8436L150.335 91.9739L150.401 98.4882C149.163 98.8791 148.055 99.3351 146.948 99.9866L142.258 95.4265L135.418 102.397L140.108 106.957C139.522 108.064 139.066 109.237 138.74 110.475L132.226 110.54L132.356 120.311L138.87 120.246C139.261 121.484 139.717 122.591 140.369 123.699L135.808 128.389L142.779 135.229L147.339 130.539C148.446 131.125 149.619 131.581 150.857 131.907L150.922 138.421L160.693 138.291L160.628 131.777C161.866 131.386 162.973 130.93 164.081 130.278L168.771 134.838L175.611 127.868L170.921 123.308C171.507 122.2 171.963 121.028 172.289 119.79L178.803 119.725ZM155.677 122.722C151.443 122.787 148.055 119.399 147.99 115.165C147.925 110.931 151.313 107.543 155.547 107.478C159.781 107.413 163.169 110.8 163.234 115.035C163.234 119.269 159.846 122.656 155.677 122.722Z" fill="#F09F54"/>
</g>
<g opacity="0.29">
<path opacity="0.29" d="M176.328 110.019C176.328 110.019 176.328 110.084 176.328 110.019H178.738V109.953L176.328 110.019Z" fill="#F09F54"/>
<path opacity="0.29" d="M167.859 99.7911L170.4 97.1854L168.315 95.1008L164.928 98.5534C165.97 98.8791 166.947 99.27 167.859 99.7911Z" fill="#F09F54"/>
<path opacity="0.29" d="M159.586 107.478C158.87 107.478 158.218 107.608 157.632 107.739C160.824 108.651 163.169 111.517 163.169 114.97C163.234 118.487 160.824 121.484 157.632 122.396C158.283 122.591 159.065 122.722 159.782 122.656C164.016 122.591 167.338 119.139 167.338 114.97C167.338 110.8 163.82 107.478 159.586 107.478Z" fill="#F09F54"/>
<path opacity="0.29" d="M149.88 98.6837L151.183 99.9214C152.29 99.3351 153.398 98.8139 154.635 98.4231L154.57 91.9087L160.173 91.8436V91.7784L150.401 91.9087L150.466 98.4231C150.336 98.5534 150.075 98.6185 149.88 98.6837Z" fill="#F09F54"/>
<path opacity="0.29" d="M154.961 131.842C153.723 131.516 152.551 131.06 151.443 130.474L150.271 131.711C150.466 131.776 150.661 131.842 150.857 131.907L150.922 138.421L155.026 138.356L154.961 131.842Z" fill="#F09F54"/>
<path opacity="0.29" d="M136.46 110.475L142.975 110.409C143.301 109.172 143.757 107.999 144.343 106.892L139.653 102.332L144.473 97.4459L142.389 95.3613L135.548 102.332L140.239 106.892C139.652 107.999 139.197 109.172 138.871 110.409L132.356 110.475L132.487 120.246L136.591 120.181L136.46 110.475Z" fill="#F09F54"/>
<path opacity="0.29" d="M168.186 130.278C167.274 130.799 166.362 131.19 165.385 131.516L168.772 134.838L170.792 132.754L168.186 130.278Z" fill="#F09F54"/>
<path opacity="0.29" d="M139.978 128.259L144.538 123.568C143.952 122.461 143.43 121.354 143.04 120.116L138.935 120.181C139.326 121.354 139.782 122.526 140.369 123.568L135.809 128.259L142.779 135.099L144.798 133.014L139.978 128.259Z" fill="#F09F54"/>
</g>
<path d="M178.803 119.725L178.673 109.954L172.159 110.019C171.768 108.781 171.312 107.673 170.66 106.566L175.22 101.876L168.25 95.0357L163.69 99.726C162.582 99.1397 161.41 98.6837 160.172 98.358L160.107 91.8436L150.335 91.9739L150.401 98.4882C149.163 98.8791 148.055 99.3351 146.948 99.9866L142.258 95.4265L135.418 102.397L140.108 106.957C139.522 108.064 139.066 109.237 138.74 110.475L132.226 110.54L132.356 120.311L138.87 120.246C139.261 121.484 139.717 122.591 140.369 123.699L135.808 128.389L142.779 135.229L147.339 130.539C148.446 131.125 149.619 131.581 150.857 131.907L150.922 138.421L160.693 138.291L160.628 131.777C161.866 131.386 162.973 130.93 164.081 130.278L168.771 134.838L175.611 127.868L170.921 123.308C171.507 122.2 171.963 121.028 172.289 119.79L178.803 119.725ZM155.677 122.722C151.443 122.787 148.055 119.399 147.99 115.165C147.925 110.931 151.313 107.543 155.547 107.478C159.781 107.413 163.169 110.8 163.234 115.035C163.234 119.269 159.846 122.656 155.677 122.722Z" stroke="#23241F" stroke-width="3" stroke-miterlimit="10" stroke-linecap="round" stroke-linejoin="round"/>
<g class="component--3" style="animation-delay: 1750ms;">
<path d="M138.089 260.63H57.5062C54.8353 260.63 52.6855 258.481 52.6855 255.81V200.698C52.6855 198.027 54.8353 195.878 57.5062 195.878H138.154C140.825 195.878 142.974 198.027 142.974 200.698V255.81C142.909 258.481 140.76 260.63 138.089 260.63Z" fill="#444E59"/>
<path d="M142.909 206.366H52.6855V200.698C52.6855 198.027 54.8353 195.878 57.5062 195.878H138.154C140.825 195.878 142.974 198.027 142.974 200.698V206.366H142.909Z" fill="#BCBCBC"/>
<path d="M138.089 260.63H57.5062C54.8353 260.63 52.6855 258.481 52.6855 255.81V200.698C52.6855 198.027 54.8353 195.878 57.5062 195.878H138.154C140.825 195.878 142.974 198.027 142.974 200.698V255.81C142.909 258.481 140.76 260.63 138.089 260.63Z" stroke="#444E59" stroke-width="3" stroke-miterlimit="10" stroke-linecap="round" stroke-linejoin="round"/>
<path d="M138.089 260.63H57.5062C54.8353 260.63 52.6855 258.481 52.6855 255.81V200.698C52.6855 198.027 54.8353 195.878 57.5062 195.878H138.154C140.825 195.878 142.974 198.027 142.974 200.698V255.81C142.909 258.481 140.76 260.63 138.089 260.63Z" stroke="#23241F" stroke-width="3" stroke-miterlimit="10" stroke-linecap="round" stroke-linejoin="round"/>
<path d="M142.909 206.366H52.6855V200.698C52.6855 198.027 54.8353 195.878 57.5062 195.878H138.154C140.825 195.878 142.974 198.027 142.974 200.698V206.366H142.909Z" stroke="#23241F" stroke-width="3" stroke-miterlimit="10" stroke-linecap="round" stroke-linejoin="round"/>
<path d="M65.1279 252.357H75.2903" stroke="white" stroke-width="4" stroke-miterlimit="10" stroke-linecap="round" stroke-linejoin="round"/>
<path d="M57.9619 252.357H58.6785" stroke="white" stroke-width="4" stroke-miterlimit="10" stroke-linecap="round" stroke-linejoin="round"/>
<path d="M65.1279 246.755H90.8596" stroke="white" stroke-width="4" stroke-miterlimit="10" stroke-linecap="round" stroke-linejoin="round"/>
<path d="M57.9619 246.755H58.6785" stroke="white" stroke-width="4" stroke-miterlimit="10" stroke-linecap="round" stroke-linejoin="round"/>
<path d="M103.106 241.087H110.142" stroke="#64BDFF" stroke-width="4" stroke-miterlimit="10" stroke-linecap="round" stroke-linejoin="round"/>
<path d="M83.9541 241.087H96.9828" stroke="white" stroke-width="4" stroke-miterlimit="10" stroke-linecap="round" stroke-linejoin="round"/>
<path d="M65.1279 241.087H78.0263" stroke="#FF5F5F" stroke-width="4" stroke-miterlimit="10" stroke-linecap="round" stroke-linejoin="round"/>
<path d="M57.9619 241.087H58.6785" stroke="white" stroke-width="4" stroke-miterlimit="10" stroke-linecap="round" stroke-linejoin="round"/>
<path d="M86.8203 235.485H118.219" stroke="white" stroke-width="4" stroke-miterlimit="10" stroke-linecap="round" stroke-linejoin="round"/>
<path d="M65.1279 235.485H81.5441" stroke="#64BDFF" stroke-width="4" stroke-miterlimit="10" stroke-linecap="round" stroke-linejoin="round"/>
<path d="M57.9619 235.485H58.6785" stroke="white" stroke-width="4" stroke-miterlimit="10" stroke-linecap="round" stroke-linejoin="round"/>
<path d="M86.8203 229.883H98.5461" stroke="#FF5F5F" stroke-width="4" stroke-miterlimit="10" stroke-linecap="round" stroke-linejoin="round"/>
<path d="M65.1279 229.883H81.5441" stroke="#FFBE78" stroke-width="4" stroke-miterlimit="10" stroke-linecap="round" stroke-linejoin="round"/>
<path d="M57.9619 229.883H58.6785" stroke="white" stroke-width="4" stroke-miterlimit="10" stroke-linecap="round" stroke-linejoin="round"/>
<path d="M89.1006 224.28H92.2926" stroke="#64BDFF" stroke-width="4" stroke-miterlimit="10" stroke-linecap="round" stroke-linejoin="round"/>
<path d="M76.7227 224.28H83.9536" stroke="#FF5F5F" stroke-width="4" stroke-miterlimit="10" stroke-linecap="round" stroke-linejoin="round"/>
<path d="M65.1279 224.28H71.1211" stroke="#C383F2" stroke-width="4" stroke-miterlimit="10" stroke-linecap="round" stroke-linejoin="round"/>
<path d="M57.9619 224.28H58.6785" stroke="white" stroke-width="4" stroke-miterlimit="10" stroke-linecap="round" stroke-linejoin="round"/>
<path d="M112.552 218.613H118.219" stroke="#64BDFF" stroke-width="4" stroke-miterlimit="10" stroke-linecap="round" stroke-linejoin="round"/>
<path d="M83.1729 218.613H105.387" stroke="#FF5F5F" stroke-width="4" stroke-miterlimit="10" stroke-linecap="round" stroke-linejoin="round"/>
<path d="M65.1279 218.613H78.352" stroke="#FFBE78" stroke-width="4" stroke-miterlimit="10" stroke-linecap="round" stroke-linejoin="round"/>
<path d="M57.9619 218.613H58.6785" stroke="white" stroke-width="4" stroke-miterlimit="10" stroke-linecap="round" stroke-linejoin="round"/>
<path d="M98.5459 213.01H110.141" stroke="#FFBE78" stroke-width="4" stroke-miterlimit="10" stroke-linecap="round" stroke-linejoin="round"/>
<path d="M83.9541 213.01H92.9439" stroke="#6DBF7B" stroke-width="4" stroke-miterlimit="10" stroke-linecap="round" stroke-linejoin="round"/>
<path d="M74.1826 213.01H79.2638" stroke="#FFBE78" stroke-width="4" stroke-miterlimit="10" stroke-linecap="round" stroke-linejoin="round"/>
<path d="M65.1279 213.01H69.2971" stroke="#6DBF7B" stroke-width="4" stroke-miterlimit="10" stroke-linecap="round" stroke-linejoin="round"/>
<path d="M57.9619 213.01H58.6785" stroke="white" stroke-width="4" stroke-miterlimit="10" stroke-linecap="round" stroke-linejoin="round"/>
<path d="M61.61 202.783C62.5095 202.783 63.2386 202.054 63.2386 201.154C63.2386 200.255 62.5095 199.526 61.61 199.526C60.7106 199.526 59.9814 200.255 59.9814 201.154C59.9814 202.054 60.7106 202.783 61.61 202.783Z" fill="#E7534E"/>
<path d="M67.4733 202.783C68.3728 202.783 69.1019 202.054 69.1019 201.154C69.1019 200.255 68.3728 199.526 67.4733 199.526C66.5739 199.526 65.8447 200.255 65.8447 201.154C65.8447 202.054 66.5739 202.783 67.4733 202.783Z" fill="#444E59"/>
<path d="M73.4011 202.783C74.3005 202.783 75.0296 202.054 75.0296 201.154C75.0296 200.255 74.3005 199.526 73.4011 199.526C72.5016 199.526 71.7725 200.255 71.7725 201.154C71.7725 202.054 72.5016 202.783 73.4011 202.783Z" fill="#444E59"/>
</g>
<g class="component--2">
<path d="M170.204 212.098H111.836C108.969 212.098 106.624 209.753 106.624 206.887V154.186C106.624 151.32 108.969 148.974 111.836 148.974H170.204C173.07 148.974 175.416 151.32 175.416 154.186V206.887C175.416 209.753 173.07 212.098 170.204 212.098Z" fill="white"/>
<path d="M170.204 212.098H111.836C108.969 212.098 106.624 209.753 106.624 206.887V154.186C106.624 151.32 108.969 148.974 111.836 148.974H170.204C173.07 148.974 175.416 151.32 175.416 154.186V206.887C175.416 209.753 173.07 212.098 170.204 212.098Z" fill="white"/>
<path d="M170.204 212.098H111.836C108.969 212.098 106.624 209.753 106.624 206.887V154.186C106.624 151.32 108.969 148.974 111.836 148.974H170.204C173.07 148.974 175.416 151.32 175.416 154.186V206.887C175.416 209.753 173.07 212.098 170.204 212.098Z" stroke="#23241F" stroke-width="3" stroke-miterlimit="10" stroke-linecap="round" stroke-linejoin="round"/>
<path d="M169.097 154.316H112.553V191.904H169.097V154.316Z" fill="#9483C4"/>
<path d="M169.097 154.316H112.553V191.904H169.097V154.316Z" stroke="#23241F" stroke-width="3" stroke-miterlimit="10" stroke-linecap="round" stroke-linejoin="round"/>
<path d="M112.553 197.897H148.251" stroke="#23241F" stroke-width="3" stroke-miterlimit="10" stroke-linecap="round" stroke-linejoin="round"/>
<path d="M112.553 203.89H133.659" stroke="#23241F" stroke-width="3" stroke-miterlimit="10" stroke-linecap="round" stroke-linejoin="round"/>
<path d="M118.22 185.194L130.402 173.143L141.737 184.478" stroke="#23241F" stroke-width="3" stroke-miterlimit="10" stroke-linecap="round" stroke-linejoin="round"/>
<path d="M162.973 185.194L148.251 165.977L136.46 179.136" stroke="#23241F" stroke-width="3" stroke-miterlimit="10" stroke-linecap="round" stroke-linejoin="round"/>
<path d="M162.843 203.825C164.606 203.825 166.035 202.396 166.035 200.633C166.035 198.87 164.606 197.441 162.843 197.441C161.08 197.441 159.651 198.87 159.651 200.633C159.651 202.396 161.08 203.825 162.843 203.825Z" stroke="#23241F" stroke-width="3" stroke-miterlimit="10" stroke-linecap="round" stroke-linejoin="round"/>
<path d="M133.984 170.016C136.215 170.016 138.023 168.207 138.023 165.977C138.023 163.746 136.215 161.938 133.984 161.938C131.754 161.938 129.945 163.746 129.945 165.977C129.945 168.207 131.754 170.016 133.984 170.016Z" fill="#F09F54"/>
<path d="M133.984 170.016C136.215 170.016 138.023 168.207 138.023 165.977C138.023 163.746 136.215 161.938 133.984 161.938C131.754 161.938 129.945 163.746 129.945 165.977C129.945 168.207 131.754 170.016 133.984 170.016Z" stroke="#23241F" stroke-width="3" stroke-miterlimit="10" stroke-linecap="round" stroke-linejoin="round"/>
</g>
<path d="M105.517 130.409H122.975" stroke="#23241F" stroke-width="3" stroke-miterlimit="10" stroke-linecap="round" stroke-linejoin="round"/>
<path d="M96.2012 130.409H100.826" stroke="#23241F" stroke-width="3" stroke-miterlimit="10" stroke-linecap="round" stroke-linejoin="round"/>
<path d="M114.246 122.331H122.975" stroke="#23241F" stroke-width="3" stroke-miterlimit="10" stroke-linecap="round" stroke-linejoin="round"/>
<path d="M107.21 122.331H109.816" stroke="#23241F" stroke-width="3" stroke-miterlimit="10" stroke-linecap="round" stroke-linejoin="round"/>
<path d="M86.626 181.481H100.241" stroke="#23241F" stroke-width="3" stroke-miterlimit="10" stroke-linecap="round" stroke-linejoin="round"/>
<path d="M79.3945 181.481H82.9774" stroke="#23241F" stroke-width="3" stroke-miterlimit="10" stroke-linecap="round" stroke-linejoin="round"/>
<path d="M94.7031 173.403H100.24" stroke="#23241F" stroke-width="3" stroke-miterlimit="10" stroke-linecap="round" stroke-linejoin="round"/>
<path d="M87.9287 173.403H90.0133" stroke="#23241F" stroke-width="3" stroke-miterlimit="10" stroke-linecap="round" stroke-linejoin="round"/>
<path d="M303.748 86.9579H316.646" stroke="#23241F" stroke-width="3" stroke-miterlimit="10" stroke-linecap="round" stroke-linejoin="round"/>
<path d="M295.801 86.9579H299.449" stroke="#23241F" stroke-width="3" stroke-miterlimit="10" stroke-linecap="round" stroke-linejoin="round"/>
<path d="M311.109 78.8801H316.647" stroke="#23241F" stroke-width="3" stroke-miterlimit="10" stroke-linecap="round" stroke-linejoin="round"/>
<path d="M304.399 78.8801H306.419" stroke="#23241F" stroke-width="3" stroke-miterlimit="10" stroke-linecap="round" stroke-linejoin="round"/>
<g class="component--1">
<path d="M313.781 132.493H262.839C259.712 132.493 257.236 129.953 257.236 126.891V102.201C257.236 99.0746 259.777 96.5991 262.839 96.5991H313.781C316.908 96.5991 319.383 99.1397 319.383 102.201V126.826C319.383 129.953 316.908 132.493 313.781 132.493Z" fill="#2FA9ED"/>
<path d="M313.781 132.493H262.839C259.712 132.493 257.236 129.953 257.236 126.891V102.201C257.236 99.0746 259.777 96.5991 262.839 96.5991H313.781C316.908 96.5991 319.383 99.1397 319.383 102.201V126.826C319.383 129.953 316.908 132.493 313.781 132.493Z" stroke="#23241F" stroke-width="3" stroke-miterlimit="10" stroke-linecap="round" stroke-linejoin="round"/>
<path opacity="0.56" d="M288.31 106.24H310.328" stroke="white" stroke-width="3" stroke-miterlimit="10" stroke-linecap="round" stroke-linejoin="round"/>
<path opacity="0.56" d="M288.31 113.341H302.902" stroke="white" stroke-width="3" stroke-miterlimit="10" stroke-linecap="round" stroke-linejoin="round"/>
<g opacity="0.56">
<path opacity="0.56" d="M299.383 123.959H290.524C289.351 123.959 288.374 122.982 288.374 121.81C288.374 120.637 289.351 119.66 290.524 119.66H299.383C300.556 119.66 301.533 120.637 301.533 121.81C301.533 122.982 300.621 123.959 299.383 123.959Z" fill="white"/>
<path opacity="0.56" d="M299.383 123.959H290.524C289.351 123.959 288.374 122.982 288.374 121.81C288.374 120.637 289.351 119.66 290.524 119.66H299.383C300.556 119.66 301.533 120.637 301.533 121.81C301.533 122.982 300.621 123.959 299.383 123.959Z" stroke="white" stroke-width="3" stroke-miterlimit="10" stroke-linecap="round" stroke-linejoin="round"/>
</g>
<path d="M279.124 124.285H267.463C265.77 124.285 264.467 122.917 264.467 121.288V107.673C264.467 105.98 265.835 104.677 267.463 104.677H279.124C280.818 104.677 282.121 106.045 282.121 107.673V121.288C282.121 122.917 280.818 124.285 279.124 124.285Z" stroke="white" stroke-width="3" stroke-miterlimit="10" stroke-linecap="round" stroke-linejoin="round"/>
<path d="M273.327 115.36C275.054 115.36 276.454 113.96 276.454 112.234C276.454 110.507 275.054 109.107 273.327 109.107C271.6 109.107 270.2 110.507 270.2 112.234C270.2 113.96 271.6 115.36 273.327 115.36Z" stroke="white" stroke-width="3" stroke-miterlimit="10" stroke-linecap="round" stroke-linejoin="round"/>
<path d="M267.398 123.959C267.398 120.702 270.069 118.031 273.326 118.031C276.584 118.031 279.255 120.702 279.255 123.959" stroke="white" stroke-width="3" stroke-miterlimit="10" stroke-linecap="round" stroke-linejoin="round"/>
</g>
<circle cx="242.5" cy="14.5" r="14.5" fill="#424242"/>
<circle cx="7.5" cy="114.5" r="7.5" fill="#424242"/>
<circle cx="228.5" cy="337.5" r="7.5" fill="#424242"/>
</svg>
