<svg width="1800" height="1964" viewBox="0 0 1800 1964" fill="none" xmlns="http://www.w3.org/2000/svg">
<mask id="mask99" mask-type="alpha" maskUnits="userSpaceOnUse" x="-500" y="-500" width="3000" height="3000">
<path d="M538.849 486.509C854.517 207.68 1219.96 326.196 1502 639C1722 883 1648.14 1262.93 1446.85 1464.22C1245.56 1665.51 718.513 1721.34 402.844 1442.51C174.844 1241.12 274.849 719.7 538.849 486.509Z" fill="#005289" class="mask-rotate-1"/>
</mask>
<path d="M596 1676C596 1730.12 511.287 1736 466 1736C420.713 1736 384 1692.12 384 1638C384 1583.88 420.713 1540 466 1540C511.287 1540 596 1621.88 596 1676Z" fill="#005289" class="mask-rotate-2"/>
<g mask="url(#mask99)">
<path d="M-256 -44C59.6675 -322.829 1693.96 -376.804 1976 -63.9999C2196 180 2236 2040 2032 2200C1906.55 2298.39 171.669 2414.83 -144.001 2136C-372.001 1934.61 -520 189.191 -256 -44Z" fill="#005289"/>
<path d="M1203.17 427.103C1203.17 456.873 1226.07 477.486 1253.55 477.486C1226.07 477.486 1203.17 500.385 1203.17 527.869C1203.17 500.387 1180.27 477.486 1152.79 477.486C1180.26 477.486 1203.17 459.163 1203.17 427.103Z" fill="#80CFEB"/>
<path d="M1892.91 1413H1416.81C1433.01 1413 1433.01 1377 1416.81 1377H1892.91V1413Z" fill="#B62979"/>
<path d="M1784.41 1344L1308.32 1344C1334.23 1344 1334.23 1308 1308.32 1308L1784.41 1308L1784.41 1344Z" fill="#B62979"/>
<path d="M1867 1275H1390.9C1407.1 1275 1407.1 1239 1390.9 1239H1867V1275Z" fill="#B62979" class="nebula-slide-2-rev"/>
<path d="M1836 1206L1359.91 1206C1385.82 1206 1385.82 1170 1359.91 1170L1836 1170L1836 1206Z" fill="#B62979" class="nebula-slide-3-rev"/>
<path d="M1685 1361C1685 1370.94 1677.02 1379 1667.19 1379H1226.72C1216.88 1379 1208.91 1370.94 1208.91 1361C1208.91 1351.06 1216.88 1343 1226.72 1343H1667.19C1677.02 1343 1685 1351.06 1685 1361Z" fill="#B62979"/>
<rect x="1763" y="1310" width="476.093" height="36" rx="10" transform="rotate(-180 1763 1310)" fill="#B62979"/>
<path d="M1711 1222C1711 1231.94 1703.02 1240 1693.19 1240H1252.72C1242.88 1240 1234.91 1231.94 1234.91 1222C1234.91 1212.06 1242.88 1204 1252.72 1204H1693.19C1703.02 1204 1711 1212.06 1711 1222Z" fill="#B62979"/>
<path d="M1789 1153C1789 1162.94 1781.02 1171 1771.19 1171H1330.72C1320.88 1171 1312.91 1162.94 1312.91 1153C1312.91 1143.06 1320.88 1135 1330.72 1135H1771.19C1781.02 1135 1789 1143.06 1789 1153Z" fill="#B62979"/>
<rect x="1867" y="1093" width="476.093" height="36" rx="10" transform="rotate(-180 1867 1093)" fill="#B62979"/>
<path d="M1815 1499C1815 1508.94 1807.02 1517 1797.19 1517H1356.72C1346.88 1517 1338.91 1508.94 1338.91 1499C1338.91 1489.06 1346.88 1481 1356.72 1481H1797.19C1807.02 1481 1815 1489.06 1815 1499Z" fill="#0071A9"/>
<path d="M1888 1483L1411.91 1483C1437.82 1483 1437.82 1447 1411.91 1447L1888 1447L1888 1483Z" fill="#0071A9"/>
<path d="M1888 1206L1411.91 1206C1437.82 1206 1437.82 1170 1411.91 1170L1888 1170L1888 1206Z" fill="#0071A9"/>
<path d="M1784 1413L1307.91 1413C1333.82 1413 1333.82 1377 1307.91 1377L1784 1377L1784 1413Z" fill="#0071A9"/>
<path d="M1862 1344L1385.91 1344C1411.82 1344 1411.82 1308 1385.91 1308L1862 1308L1862 1344Z" fill="#0071A9"/>
<path d="M1836 1275L1359.91 1275C1385.82 1275 1385.82 1239 1359.91 1239L1836 1239L1836 1275Z" fill="#0071A9" class="nebula-slide-2"/>
<path d="M1685 1430C1685 1439.94 1677.02 1448 1667.19 1448H1226.72C1216.88 1448 1208.91 1439.94 1208.91 1430C1208.91 1420.06 1216.88 1412 1226.72 1412H1667.19C1677.02 1412 1685 1420.06 1685 1430Z" fill="#0071A9" class="nebula-slide-2-rev"/>
<path d="M1763 1361C1763 1370.94 1755.02 1379 1745.19 1379H1304.72C1294.88 1379 1286.91 1370.94 1286.91 1361C1286.91 1351.06 1294.88 1343 1304.72 1343H1745.19C1755.02 1343 1763 1351.06 1763 1361Z" fill="#0071A9"/>
<path d="M1711 1292C1711 1301.94 1703.02 1310 1693.19 1310H1252.72C1242.88 1310 1234.91 1301.94 1234.91 1292C1234.91 1282.06 1242.88 1274 1252.72 1274H1693.19C1703.02 1274 1711 1282.06 1711 1292Z" fill="#0071A9" class="nebula-slide-3"/>
<path d="M1789 1222C1789 1231.94 1781.02 1240 1771.19 1240H1330.72C1320.88 1240 1312.91 1231.94 1312.91 1222C1312.91 1212.06 1320.88 1204 1330.72 1204H1771.19C1781.02 1204 1789 1212.06 1789 1222Z" fill="#0071A9"/>
<path d="M1867 1153C1867 1162.94 1859.02 1171 1849.18 1171H1408.72C1398.88 1171 1390.9 1162.94 1390.9 1153C1390.9 1143.06 1398.88 1135 1408.72 1135H1849.18C1859.02 1135 1867 1143.06 1867 1153Z" fill="#0071A9" class="nebula-slide-3-rev"/>
<path d="M1888 1412L1411.91 1412C1437.82 1412 1437.82 1376 1411.91 1376L1888 1376L1888 1412Z" fill="#00A1DC"/>
<path d="M1737 1429C1737 1438.94 1729.02 1447 1719.19 1447H1278.72C1268.88 1447 1260.91 1438.94 1260.91 1429C1260.91 1419.06 1268.88 1411 1278.72 1411H1719.19C1729.02 1411 1737 1419.06 1737 1429Z" fill="#00A1DC" class="nebula-slide-3-rev"/>
<path d="M1841 1360C1841 1369.94 1833.02 1378 1823.19 1378H1382.72C1372.88 1378 1364.91 1369.94 1364.91 1360C1364.91 1350.06 1372.88 1342 1382.72 1342H1823.19C1833.02 1342 1841 1350.06 1841 1360Z" fill="#00A1DC"/>
<path d="M90 914L523.019 914C497.109 914 497.109 878 523.019 878L90 878C117.075 878 117.074 914 90 914Z" fill="#B62979" class="nebula-slide-2-rev"/>
<path d="M230 705L626.659 705C600.749 705 600.749 669 626.659 669L230 669L230 705Z" fill="#B62979" class="nebula-slide-3-rev"/>
<path d="M214 743H544.071C527.878 743 527.878 779 544.071 779H214V743Z" fill="#B62979"/>
<path d="M196 844L574.839 844C548.929 844 548.929 808 574.839 808L196 808L196 844Z" fill="#B62979"/>
<path d="M249 654C249 644.059 256.975 636 266.813 636H707.28C717.118 636 725.093 644.059 725.093 654C725.093 663.941 717.118 672 707.28 672H266.813C256.975 672 249 663.941 249 654Z" fill="#B62979"/>
<path d="M214 714C214 708.477 218.477 704 224 704H637.71C643.233 704 647.71 708.477 647.71 714V730C647.71 735.523 643.233 740 637.71 740H224C218.477 740 214 735.523 214 730V714Z" fill="#B62979"/>
<path d="M223 792C223 782.059 230.975 774 240.813 774H681.28C691.118 774 699.093 782.059 699.093 792C699.093 801.941 691.118 810 681.28 810H240.813C230.975 810 223 801.941 223 792Z" fill="#B62979"/>
<path d="M145 861C145 851.059 152.975 843 162.813 843H603.28C613.118 843 621.093 851.059 621.093 861C621.093 870.941 613.118 879 603.28 879H162.813C152.975 879 145 870.941 145 861Z" fill="#B62979"/>
<path d="M67 931C67 921.059 74.9752 913 84.813 913H525.28C535.118 913 543.093 921.059 543.093 931C543.093 940.941 535.118 949 525.28 949H84.813C74.9752 949 67 940.941 67 931Z" fill="#B62979" class="nebula-slide-2-rev"/>
<rect x="119.799" y="497" width="476.093" height="36" rx="18" fill="#0071A9" class="nebula-slide-2-rev"/>
<path d="M186 567L523.021 567C497.111 567 497.111 531 523.021 531L186 531C213.073 531 211.072 567 186 567Z" fill="#0071A9" class="nebula-slide-2-rev"/>
<path d="M160 844L523.021 844C497.111 844 497.111 808 523.021 808L160 808C191.072 808 191.073 844 160 844Z" fill="#0071A9" class="nebula-slide-3"/>
<path d="M190 637L626.659 637C600.749 637 600.749 601 626.659 601L190 601L190 637Z" fill="#0071A9"/>
<path d="M104 706L548.931 706C523.021 706 523.021 670 548.931 670L104 670C143.163 670 143.162 706 104 706Z" fill="#0071A9"/>
<path d="M184 775L574.841 775C548.931 775 548.931 739 574.841 739L184 739C219.251 739 217.252 775 184 775Z" fill="#0071A9"/>
<path d="M249 584C249 574.059 256.975 566 266.813 566H707.28C717.118 566 725.093 574.059 725.093 584C725.093 593.941 717.118 602 707.28 602H266.813C256.975 602 249 593.941 249 584Z" fill="#0071A9" class="nebula-slide-3"/>
<path d="M171 654C171 644.059 178.975 636 188.813 636H629.28C639.118 636 647.093 644.059 647.093 654C647.093 663.941 639.118 672 629.28 672H188.813C178.975 672 171 663.941 171 654Z" fill="#0071A9"/>
<path d="M38 722C38 712.059 49.0893 704 62.7687 704H675.231C688.911 704 700 712.059 700 722C700 731.941 688.911 740 675.231 740H62.7687C49.0893 740 38 731.941 38 722Z" fill="#0071A9" class="nebula-slide-3"/>
<path d="M145 792C145 782.059 152.975 774 162.813 774H603.28C613.118 774 621.093 782.059 621.093 792C621.093 801.941 613.118 810 603.28 810H162.813C152.975 810 145 801.941 145 792Z" fill="#0071A9"/>
<path d="M67 861C67 851.059 74.9752 843 84.813 843H525.28C535.118 843 543.093 851.059 543.093 861C543.093 870.941 535.118 879 525.28 879H84.813C74.9752 879 67 870.941 67 861Z" fill="#0071A9" class="nebula-slide-3"/>
<path d="M156 638L523.021 638C497.111 638 497.111 602 523.021 602L156 602C181.072 602 181.072 638 156 638Z" fill="#0094CF"/>
<path d="M130 585C130 575.059 139.113 567 150.354 567H653.646C664.887 567 674 575.059 674 585C674 594.941 664.887 603 653.646 603H150.354C139.113 603 130 594.941 130 585Z" fill="#0094CF" class="nebula-slide-2"/>
<path d="M93 655C93 645.059 100.975 637 110.813 637H551.28C561.118 637 569.093 645.059 569.093 655C569.093 664.941 561.118 673 551.28 673H110.813C100.975 673 93 664.941 93 655Z" fill="#0094CF"/>
<circle cx="968.249" cy="1003.5" r="377.312" transform="rotate(15 968.249 1003.5)" fill="#E8EDFA"/>
<path d="M1332.7 1101.16C1301.36 1218.13 1193.34 1364.62 987.68 1380.81C1344.08 1037.51 911.57 739.543 1065.9 639.045C1267.18 692.978 1386.63 899.872 1332.7 1101.16Z" fill="#C6D1F3"/>
<path d="M1724 1098C1724 1107.94 1716.02 1116 1706.19 1116H1265.72C1255.88 1116 1247.91 1107.94 1247.91 1098C1247.91 1088.06 1255.88 1080 1265.72 1080H1706.19C1716.02 1080 1724 1088.06 1724 1098Z" fill="#005289" class="nebula-slide-2-rev"/>
<path d="M1794 1082L1317.91 1082C1343.82 1082 1343.82 1046 1317.91 1046L1794 1046L1794 1082Z" fill="#005289"/>
<path d="M1693 1013L1216.91 1013C1242.82 1013 1242.82 977 1216.91 977L1693 977L1693 1013Z" fill="#005289"/>
<path d="M1745 943L1268.91 943C1294.82 943 1294.82 907 1268.91 907L1745 907L1745 943Z" fill="#005289"/>
<path d="M1709 874L1232.91 874C1258.82 874 1258.82 838 1232.91 838L1709 838L1709 874Z" fill="#005289" class="nebula-slide-3-rev"/>
<path d="M1672 1029C1672 1038.94 1664.02 1047 1654.19 1047H1213.72C1203.88 1047 1195.91 1038.94 1195.91 1029C1195.91 1019.06 1203.88 1011 1213.72 1011H1654.19C1664.02 1011 1672 1019.06 1672 1029Z" fill="#005289" class="nebula-slide-3-rev"/>
<path d="M1672 965C1672 974.941 1664.02 983 1654.19 983H1213.72C1203.88 983 1195.91 974.941 1195.91 965C1195.91 955.059 1203.88 947 1213.72 947H1654.19C1664.02 947 1672 955.059 1672 965Z" fill="#005289"/>
<path d="M1620 891C1620 900.941 1612.02 909 1602.19 909H1161.72C1151.88 909 1143.91 900.941 1143.91 891C1143.91 881.059 1151.88 873 1161.72 873H1602.19C1612.02 873 1620 881.059 1620 891Z" fill="#005289"/>
<rect x="1670" y="978" width="476.093" height="36" rx="18" transform="rotate(-180 1670 978)" fill="#005289"/>
<path d="M1698 821C1698 830.941 1690.02 839 1680.19 839H1239.72C1229.88 839 1221.91 830.941 1221.91 821C1221.91 811.059 1229.88 803 1239.72 803H1680.19C1690.02 803 1698 811.059 1698 821Z" fill="#005289" class="nebula-slide-3-rev"/>
<path d="M263 1040C263 1030.06 270.975 1022 280.813 1022H721.28C731.118 1022 739.093 1030.06 739.093 1040C739.093 1049.94 731.118 1058 721.28 1058H280.813C270.975 1058 263 1049.94 263 1040Z" fill="#005289" class="nebula-slide-3"/>
<path d="M190 1092L666.093 1092C640.183 1092 640.183 1056 666.093 1056L190 1056L190 1092Z" fill="#005289" class="nebula-slide-3"/>
<path d="M294 1162L770.093 1162C744.183 1162 744.183 1126 770.093 1126L294 1126L294 1162Z" fill="#005289" class="nebula-slide-2"/>
<path d="M216 1231L692.093 1231C666.183 1231 666.183 1195 692.093 1195L216 1195L216 1231Z" fill="#005289"/>
<path d="M246 1300L722.093 1300C696.183 1300 696.183 1264 722.093 1264L246 1264L246 1300Z" fill="#005289"/>
<path d="M393 1109C393 1099.06 400.975 1091 410.813 1091H851.28C861.118 1091 869.093 1099.06 869.093 1109C869.093 1118.94 861.118 1127 851.28 1127H410.813C400.975 1127 393 1118.94 393 1109Z" fill="#005289"/>
<path d="M315 1179C315 1169.06 322.975 1161 332.813 1161H773.28C783.118 1161 791.093 1169.06 791.093 1179C791.093 1188.94 783.118 1197 773.28 1197H332.813C322.975 1197 315 1188.94 315 1179Z" fill="#005289" class="nebula-slide-2"/>
<path d="M341.555 1247.59C341.555 1237.65 349.53 1229.59 359.368 1229.59H799.835C809.672 1229.59 817.648 1237.65 817.648 1247.59C817.648 1257.53 809.672 1265.59 799.835 1265.59H359.368C349.53 1265.59 341.555 1257.53 341.555 1247.59Z" fill="#005289" class="nebula-slide-3-rev"/>
<g class="ufo">
<path d="M1135.02 1106.16C1109.92 1104.05 1038.92 1098.08 999.472 1094.77C999.472 1087.71 1049.21 1082.97 1067.03 1084.47C1084.86 1085.97 1135.02 1099.04 1135.02 1106.16Z" fill="#005289"/>
<path d="M1161.66 1116.41C1162.7 1114.95 1161.6 1113.19 1159.92 1112.59C1117.11 1097.58 1023.68 1089.74 975.33 1097.12C973.531 1097.39 972.111 1098.96 972.861 1100.62C979.347 1114.94 1039.37 1124.12 1062.81 1126.09C1086.29 1128.07 1152.41 1129.47 1161.66 1116.41Z" fill="#005289"/>
</g>
<path d="M480.158 1244.23C480.158 1274 503.057 1294.61 530.541 1294.61C503.057 1294.61 480.158 1317.51 480.158 1345C480.158 1317.51 457.257 1294.61 429.775 1294.61C457.255 1294.61 480.158 1276.29 480.158 1244.23Z" fill="#0082BC" class="star--fast"/>
<path d="M545.65 952.745C545.65 964.125 554.404 972.005 564.91 972.005C554.404 972.005 545.65 980.759 545.65 991.265C545.65 980.76 536.896 972.005 526.39 972.005C536.895 972.005 545.65 965.001 545.65 952.745Z" fill="#0082BC" class="star--fast"/>
<path d="M1349.4 897.687C1349.4 909.067 1358.16 916.947 1368.66 916.947C1358.16 916.947 1349.4 925.701 1349.4 936.207C1349.4 925.701 1340.65 916.947 1330.14 916.947C1340.65 916.947 1349.4 909.943 1349.4 897.687Z" fill="#B2E2F3" class="star--med"/>
<path d="M905.15 398.923C905.15 410.303 913.904 418.183 924.41 418.183C913.904 418.183 905.15 426.937 905.15 437.443C905.15 426.938 896.396 418.183 885.89 418.183C896.395 418.183 905.15 411.179 905.15 398.923Z" fill="#00A1DC" class="star--fast"/>
<path d="M620.686 353.581C620.686 364.961 629.439 372.841 639.945 372.841C629.439 372.841 620.686 381.595 620.686 392.101C620.686 381.595 611.931 372.841 601.426 372.841C611.93 372.841 620.686 365.836 620.686 353.581Z" fill="#0082BC" class="star--med"/>
<circle cx="1351.19" cy="679.073" r="8.09682" fill="white" class="star--slow"/>
<circle cx="463.782" cy="1142.21" r="8.09682" fill="#0071A9" class="star--med"/>
<circle cx="739.073" cy="526.853" r="8.09682" fill="#52BCE3" class="star--slow"/>
<circle cx="580.376" cy="1388.35" r="8.09682" fill="#D9D9D9" class="star--med"/>
<circle cx="1202.21" cy="1466.08" r="8.09682" fill="#52BCE3" class="star--fast"/>
<circle cx="1181.1" cy="616.097" r="8.09682" fill="#0071A9" class="star--slow"/>
<circle cx="834.097" cy="589.097" r="8.09682" fill="#0071A9" class="star--med"/>
<circle cx="1032.1" cy="1592.1" r="8.09682" fill="#0071A9" class="star--fast"/>
</g>
</svg>
