<svg width="475" height="336" viewBox="0 0 475 336" fill="none" xmlns="http://www.w3.org/2000/svg">
<path d="M275.169 91.0966C245.359 90.3281 216.967 83.1867 189.856 75.3734C162.745 67.5602 135.892 58.8865 106.795 54.7452C88.0811 52.0809 66.6768 51.7036 51.6012 59.1534C37.0876 66.3132 32.3986 78.6727 29.8791 90.1763C27.9814 98.8132 26.8668 107.901 32.0624 115.986C35.6735 121.6 42.0759 126.316 46.5069 131.695C61.9233 150.405 51.0255 173.472 34.324 191.739C26.4937 200.307 17.3967 208.479 11.349 217.604C5.30129 226.729 2.50542 237.174 7.79776 246.483C13.0394 255.685 25.5356 262.629 39.0728 267.502C66.5662 277.4 98.9513 280.23 130.553 281.835C200.487 285.388 270.789 283.846 340.907 282.296C366.857 281.725 392.918 281.15 418.445 278.154C432.622 276.502 447.256 273.875 457.55 267.539C470.613 259.495 473.851 245.875 465.095 235.789C450.411 218.869 409.822 214.664 399.546 196.506C393.899 186.512 399.698 175.381 407.911 166.109C425.524 146.226 455.044 128.782 456.597 106.051C457.665 90.4432 443.474 74.8075 421.531 67.4221C398.533 59.6825 366.636 60.6534 349.677 73.4684C332.197 86.6792 301.493 91.7592 275.169 91.0966Z" fill="#E0F4FA"/>
<path d="M232.357 172.373C227.898 172.942 224.341 179.203 223.677 184.373C223.487 185.891 223.393 187.361 223.393 188.879C223.393 193.811 224.436 198.507 226.333 203.297C228.23 207.993 231.076 212.783 234.491 215.534C237.953 212.783 240.752 207.993 242.649 203.297C244.546 198.507 245.59 193.811 245.59 188.879C245.59 187.361 245.495 185.891 245.305 184.373C244.641 179.156 241.084 172.942 236.625 172.373C235.25 172.231 233.78 172.231 232.357 172.373Z" stroke="#601B23" stroke-width="6" stroke-miterlimit="10" stroke-linecap="round" stroke-linejoin="round"/>
<path d="M254.412 202.111C254.412 210.933 252.562 219.376 249.147 227.961C249.052 228.245 248.91 228.53 248.767 228.862C245.352 237.02 240.467 245.177 234.539 249.968C228.42 245.035 223.44 236.545 219.978 228.15C219.93 228.103 219.93 228.055 219.883 227.961C216.468 219.376 214.618 210.933 214.618 202.111C214.618 199.408 214.808 196.752 215.14 194.001C216.278 184.8 222.539 173.701 230.365 172.515C230.46 172.515 230.554 172.468 230.649 172.468C233.116 172.183 235.629 172.183 238.096 172.421C238.191 172.421 238.333 172.421 238.428 172.468C246.396 173.464 252.799 184.705 253.937 194.001C254.222 196.752 254.412 199.408 254.412 202.111Z" fill="#F4A045"/>
<path d="M232.357 172.373C227.898 172.942 224.341 179.203 223.677 184.373C223.487 185.891 223.393 187.361 223.393 188.879C223.393 193.811 224.436 198.507 226.333 203.297C228.23 207.993 231.076 212.783 234.491 215.534C237.953 212.783 240.752 207.993 242.649 203.297C244.546 198.507 245.59 193.811 245.59 188.879C245.59 187.361 245.495 185.891 245.305 184.373C244.641 179.156 241.084 172.942 236.625 172.373C235.25 172.231 233.78 172.231 232.357 172.373Z" fill="#E36535"/>
<path d="M254.412 202.111C254.412 210.933 252.562 219.376 249.147 227.961C249.052 228.245 248.91 228.53 248.767 228.862C245.352 237.02 240.467 245.177 234.539 249.968C228.42 245.035 223.44 236.545 219.978 228.15C219.93 228.103 219.93 228.055 219.883 227.961C216.468 219.376 214.618 210.933 214.618 202.111C214.618 199.408 214.808 196.752 215.14 194.001C216.278 184.8 222.539 173.701 230.365 172.515C230.46 172.515 230.554 172.468 230.649 172.468C233.116 172.183 235.629 172.183 238.096 172.421C238.191 172.421 238.333 172.421 238.428 172.468C246.396 173.464 252.799 184.705 253.937 194.001C254.222 196.752 254.412 199.408 254.412 202.111Z" stroke="#23241F" stroke-width="3" stroke-miterlimit="10" stroke-linecap="round" stroke-linejoin="round"/>
<path d="M474.2 250.964C466.991 253.098 461.11 258.363 458.169 265.193C452.478 263.153 446.312 262.015 439.909 262.015C420.937 262.015 404.242 271.785 394.566 286.536C389.539 284.165 383.942 282.884 378.013 282.884C375.405 282.884 372.891 283.121 370.472 283.643C370.472 283.406 370.472 283.169 370.472 282.884C370.472 270.789 361.935 260.687 350.599 258.268C346.236 243.328 332.481 232.372 316.118 232.372C302.505 232.372 290.648 239.96 284.577 251.106C280.356 247.17 274.712 244.703 268.499 244.703C264.941 244.703 261.574 245.509 258.538 246.885C254.839 241.146 251.566 235.122 248.768 228.767C241.843 213.115 238.001 195.661 238.001 177.353C238.001 175.693 238.049 174.081 238.096 172.421C238.903 151.22 244.831 131.347 254.744 113.987H213.717C223.63 131.347 229.559 151.267 230.365 172.468C230.413 174.081 230.46 175.693 230.46 177.306C230.46 195.329 226.713 212.546 219.978 228.103C215.567 238.253 209.923 247.739 203.141 256.323C197.402 249.209 188.627 244.703 178.809 244.703C168.944 244.703 160.169 249.256 154.431 256.371C149.83 253.667 144.518 252.102 138.779 252.102C129.577 252.102 121.277 256.181 115.633 262.584C107.286 250.205 93.1516 242.047 77.1204 242.047C51.5085 242.047 30.7343 262.821 30.7343 288.433C30.7343 288.575 30.7343 288.718 30.7343 288.86C13.3751 297.682 1.18574 315.231 0 335.768H111.934H341.445H474.2V250.964Z" fill="white"/>
<circle cx="77" cy="288" r="46" fill="white" class="blastoff--slow"/>
<circle cx="137" cy="287" r="34" fill="white" class="blastoff--med"/>
<circle cx="179" cy="277" r="32" fill="white" class="blastoff--fast"/>
<circle cx="270.5" cy="267.5" r="22.5" fill="white" class="blastoff--med"/>
<circle cx="310.5" cy="270.5" r="34.5" fill="white" class="blastoff--slow"/>
<circle cx="415.5" cy="300.5" r="43.5" fill="white" class="blastoff--med"/>
<path d="M177.292 99.9482L161.83 105.972V76.6129L209.307 39.5704V95.1104L197.829 101.134C191.711 97.9087 184.264 97.2447 177.292 99.9482Z" fill="#FAFAFA"/>
<path d="M156.802 113.655C151.964 106.636 149.166 98.3356 149.166 89.4663C149.166 78.2255 153.577 67.9333 160.929 60.0126C168.28 67.9333 172.738 78.2255 172.786 89.4663C172.786 98.3831 169.988 106.636 165.197 113.655H156.802Z" fill="#CF264D"/>
<path opacity="0.72" d="M161.83 105.972L177.197 99.9957C177.387 95.9168 177.102 91.743 176.344 87.5692C175.205 81.3085 173.071 75.4272 170.13 70.1151L161.83 76.613V105.972V105.972Z" fill="#A1A29C"/>
<path opacity="0.23" d="M163.822 84.8182L209.354 49.3409V39.5704L161.83 76.5655V105.972L163.822 105.213V84.8182Z" fill="#FAFAFA"/>
<path opacity="0.72" d="M190.43 98.6202C193.039 99.0471 195.505 99.9008 197.829 101.134L209.307 95.1104V39.5704L189.292 55.1747C188.296 61.1983 187.821 67.5064 187.821 74.0043C187.869 82.589 188.77 90.8892 190.43 98.6202Z" fill="#E6E6E6"/>
<path d="M177.292 99.9482L161.83 105.972V76.6129L209.307 39.5704V95.1104L197.829 101.134C191.711 97.9087 184.264 97.2447 177.292 99.9482Z" stroke="#23241F" stroke-width="3" stroke-miterlimit="10" stroke-linecap="round" stroke-linejoin="round"/>
<path d="M156.802 113.655C151.964 106.636 149.166 98.3356 149.166 89.4663C149.166 78.2255 153.577 67.9333 160.929 60.0126C168.28 67.9333 172.738 78.2255 172.786 89.4663C172.786 98.3831 169.988 106.636 165.197 113.655H156.802Z" fill="#CF264D"/>
<path opacity="0.23" d="M160.217 60.0126C160.786 60.6292 161.355 61.2932 161.877 61.9572C156.944 69.5459 154.098 78.4627 154.051 87.9486C154.051 97.3396 155.474 106.114 160.312 113.703H155.948C151.158 106.683 148.359 98.383 148.359 89.5137C148.407 78.2255 152.865 67.9333 160.217 60.0126Z" fill="#F4A15D"/>
<path opacity="0.32" d="M160.217 60.0126C160.406 60.2023 160.596 60.4394 160.786 60.6766C155.237 68.8819 152.059 78.5101 152.011 88.8497C152.011 97.8139 154.43 106.256 158.652 113.703H155.948C151.158 106.683 148.359 98.383 148.359 89.5137C148.407 78.2255 152.865 67.9333 160.217 60.0126Z" fill="#F4A15D"/>
<path opacity="0.37" d="M172.786 89.4663C172.786 78.2255 168.328 67.9807 160.929 60.0126C160.359 60.6292 159.79 61.2932 159.269 61.9572C164.201 69.5459 167.047 78.4627 167.094 87.9486C167.094 97.3396 164.344 106.114 159.506 113.703H165.197C169.988 106.636 172.786 98.3356 172.786 89.4663Z" fill="#A5143A"/>
<path opacity="0.72" d="M172.786 89.4663C172.786 78.2255 168.328 67.9807 160.929 60.0126C160.739 60.2023 160.549 60.4394 160.359 60.6766C165.909 68.8819 169.086 78.5101 169.134 88.8497C169.134 97.8139 166.715 106.256 162.494 113.703H165.197C169.988 106.636 172.786 98.3356 172.786 89.4663Z" fill="#A5143A"/>
<path opacity="0.37" d="M160.929 60.0126C160.359 60.6292 159.79 61.2932 159.269 61.9572C164.201 69.5459 167.047 78.4627 167.094 87.9486C167.094 97.3396 164.344 106.114 159.506 113.703H165.197C169.988 106.683 172.786 98.383 172.786 89.5137C172.739 78.2255 168.28 67.9333 160.929 60.0126Z" fill="#A5143A"/>
<path opacity="0.72" d="M160.929 60.0126C160.739 60.2023 160.549 60.4394 160.359 60.6766C165.909 68.8819 169.086 78.5101 169.134 88.8497C169.134 97.8139 166.715 106.256 162.494 113.703H165.197C169.988 106.683 172.786 98.383 172.786 89.5137C172.738 78.2255 168.28 67.9333 160.929 60.0126Z" fill="#A5143A"/>
<path d="M166.335 68.5499C164.58 65.467 162.493 62.6212 160.074 59.9651C157.655 62.5738 155.568 65.467 153.813 68.5499H166.335Z" fill="#601B23"/>
<path d="M156.802 113.655C151.964 106.636 149.166 98.3356 149.166 89.4663C149.166 78.2255 153.577 67.9333 160.929 60.0126C168.28 67.9333 172.738 78.2255 172.786 89.4663C172.786 98.3831 169.988 106.636 165.197 113.655H156.802Z" stroke="#23241F" stroke-width="6" stroke-miterlimit="10" stroke-linecap="round" stroke-linejoin="round"/>
<path d="M218.412 150.271C218.412 150.271 212.673 151.504 204.421 159.757C201.433 162.745 196.737 168.816 193.275 173.417C191.852 175.314 188.816 174.365 188.769 171.994L187.631 121.481C187.393 120.058 187.773 118.588 188.674 117.497L201.101 102.035L218.412 150.271Z" fill="#D1231D"/>
<path opacity="0.22" d="M188.674 172.99C191.378 172.61 193.417 170.286 193.464 167.535L193.986 120.58C193.749 119.157 194.128 117.687 195.03 116.596L202.808 106.873L201.053 102.035L188.674 117.45C187.773 118.588 187.393 120.011 187.631 121.434L188.674 172.99Z" fill="#303030"/>
<path opacity="0.3" d="M218.413 150.271L201.101 102.035L194.224 110.62C197.923 124.849 203.757 139.315 211.63 153.733C215.804 150.84 218.413 150.271 218.413 150.271Z" fill="#303030"/>
<path d="M218.412 150.271C218.412 150.271 212.673 151.504 204.421 159.757C201.433 162.745 196.737 168.816 193.275 173.417C191.852 175.314 188.816 174.365 188.769 171.994L187.631 121.481C187.393 120.058 187.773 118.588 188.674 117.497L201.101 102.035L218.412 150.271Z" stroke="#23241F" stroke-width="3" stroke-miterlimit="10" stroke-linecap="round" stroke-linejoin="round"/>
<path d="M152.296 107.395H167.9" stroke="#601B23" stroke-width="4" stroke-miterlimit="10" stroke-linecap="round" stroke-linejoin="round"/>
<path d="M156.802 113.655C151.964 106.636 149.166 98.3356 149.166 89.4663C149.166 78.2255 153.577 67.9333 160.929 60.0126C168.28 67.9333 172.738 78.2255 172.786 89.4663C172.786 98.3831 169.988 106.636 165.197 113.655H156.802Z" fill="#CF264D"/>
<path d="M156.802 113.655C151.964 106.636 149.166 98.3356 149.166 89.4663C149.166 78.2255 153.577 67.9333 160.929 60.0126C168.28 67.9333 172.738 78.2255 172.786 89.4663C172.786 98.3831 169.988 106.636 165.197 113.655H156.802Z" fill="white"/>
<path opacity="0.09" d="M160.217 60.0126C160.786 60.6292 161.355 61.2932 161.877 61.9572C156.944 69.5459 154.098 78.4627 154.051 87.9486C154.051 97.3396 155.474 106.114 160.312 113.703H155.948C151.158 106.683 148.359 98.383 148.359 89.5137C148.407 78.2255 152.865 67.9333 160.217 60.0126Z" fill="#F4A15D"/>
<path opacity="0.12" d="M160.217 60.0126C160.406 60.2023 160.596 60.4394 160.786 60.6766C155.237 68.8819 152.059 78.5101 152.011 88.8497C152.011 97.8139 154.43 106.256 158.652 113.703H155.948C151.158 106.683 148.359 98.383 148.359 89.5137C148.407 78.2255 152.865 67.9333 160.217 60.0126Z" fill="#5DF4AC"/>
<path opacity="0.07" d="M172.786 89.4663C172.786 78.2255 168.328 67.9807 160.929 60.0126C160.359 60.6292 159.79 61.2932 159.269 61.9572C164.201 69.5459 167.047 78.4627 167.094 87.9486C167.094 97.3396 164.344 106.114 159.506 113.703H165.197C169.988 106.636 172.786 98.3356 172.786 89.4663Z" fill="#A5143A"/>
<path opacity="0.04" d="M172.786 89.4663C172.786 78.2255 168.328 67.9807 160.929 60.0126C160.739 60.2023 160.549 60.4394 160.359 60.6766C165.909 68.8819 169.086 78.5101 169.134 88.8497C169.134 97.8139 166.715 106.256 162.494 113.703H165.197C169.988 106.636 172.786 98.3356 172.786 89.4663Z" fill="#A5143A"/>
<path opacity="0.08" d="M160.929 60.0126C160.359 60.6292 159.79 61.2932 159.269 61.9572C164.201 69.5459 167.047 78.4627 167.094 87.9486C167.094 97.3396 164.344 106.114 159.506 113.703H165.197C169.988 106.683 172.786 98.383 172.786 89.5137C172.739 78.2255 168.28 67.9333 160.929 60.0126Z" fill="#14A55F"/>
<path opacity="0.22" d="M160.929 60.0126C160.739 60.2023 160.549 60.4394 160.359 60.6766C165.909 68.8819 169.086 78.5101 169.134 88.8497C169.134 97.8139 166.715 106.256 162.494 113.703H165.197C169.988 106.683 172.786 98.383 172.786 89.5137C172.738 78.2255 168.28 67.9333 160.929 60.0126Z" fill="#424242"/>
<path d="M167.189 68.5499C165.434 65.467 163.348 62.6212 160.929 59.9651C158.51 62.5738 156.423 65.467 154.668 68.5499H167.189Z" fill="#444E59"/>
<path d="M152.296 107.395H167.9" stroke="#23241F" stroke-width="3" stroke-miterlimit="10" stroke-linecap="round" stroke-linejoin="round"/>
<path d="M288.988 99.9482L304.45 105.972V76.6129L256.973 39.5704V95.1104L268.451 101.134C274.569 97.9087 282.015 97.2447 288.988 99.9482Z" fill="#FAFAFA"/>
<path opacity="0.72" d="M304.45 105.972L289.083 99.9957C288.894 95.9168 289.178 91.743 289.937 87.5692C291.075 81.3085 293.21 75.4272 296.15 70.1151L304.45 76.613V105.972Z" fill="#E6E6E6"/>
<path opacity="0.23" d="M302.505 84.8182L256.973 49.3409V39.5704L304.45 76.5655V105.972L302.505 105.213V84.8182Z" fill="#FAFAFA"/>
<path opacity="0.72" d="M275.85 98.6202C273.241 99.0471 270.775 99.9008 268.451 101.134L256.973 95.1104V39.5704L276.988 55.1747C277.984 61.1983 278.458 67.5064 278.458 74.0043C278.458 82.589 277.557 90.8892 275.85 98.6202Z" fill="#C0C1BA"/>
<path d="M288.988 99.9482L304.45 105.972V76.6129L256.973 39.5704V95.1104L268.451 101.134C274.569 97.9087 282.015 97.2447 288.988 99.9482Z" stroke="#23241F" stroke-width="3" stroke-miterlimit="10" stroke-linecap="round" stroke-linejoin="round"/>
<path d="M247.914 150.271C247.914 150.271 253.653 151.504 261.906 159.757C264.894 162.745 269.589 168.816 273.052 173.417C274.475 175.314 277.51 174.365 277.558 171.994L278.696 121.481C278.933 120.058 278.554 118.588 277.652 117.497L265.226 102.035L247.914 150.271Z" fill="#D1231D"/>
<path opacity="0.3" d="M277.605 172.99C274.901 172.61 272.862 170.286 272.814 167.535L272.293 120.58C272.53 119.157 272.15 117.687 271.249 116.596L263.471 106.873L265.226 102.035L277.652 117.497C278.553 118.635 278.933 120.058 278.696 121.481L277.605 172.99Z" fill="#303030"/>
<path opacity="0.3" d="M247.914 150.271L265.226 102.035L272.103 110.62C268.404 124.849 262.57 139.315 254.696 153.733C250.523 150.84 247.914 150.271 247.914 150.271Z" fill="#303030"/>
<path d="M247.914 150.271C247.914 150.271 253.653 151.504 261.906 159.757C264.894 162.745 269.589 168.816 273.052 173.417C274.475 175.314 277.51 174.365 277.558 171.994L278.696 121.481C278.933 120.058 278.554 118.588 277.652 117.497L265.226 102.035L247.914 150.271Z" stroke="#23241F" stroke-width="3" stroke-miterlimit="10" stroke-linecap="round" stroke-linejoin="round"/>
<path d="M247.677 177.401C248.199 171.757 247.44 166.444 237.954 152.453C236.389 150.224 232.642 150.224 231.077 152.453C221.591 166.492 220.832 171.804 221.354 177.401C221.449 178.112 222.729 178.918 223.536 178.634C228.99 175.835 240.041 175.835 245.496 178.634C246.302 178.918 247.582 178.16 247.677 177.401Z" fill="#4E8280"/>
<g opacity="0.32">
<g opacity="0.32">
<g opacity="0.32">
<path opacity="0.32" d="M226.144 177.401C225.623 171.757 226.381 166.444 235.867 152.453C236.152 152.026 236.531 151.694 236.911 151.457C235.109 150.271 232.358 150.603 231.077 152.453C221.591 166.492 220.832 171.804 221.354 177.401C221.449 178.112 222.729 178.918 223.536 178.634C224.342 178.254 225.243 177.875 226.192 177.59C226.192 177.543 226.144 177.496 226.144 177.401Z" fill="#F4A15D"/>
</g>
<g opacity="0.32">
<path opacity="0.32" d="M236.911 176.642C240.184 176.879 243.267 177.543 245.496 178.634C246.207 178.918 247.346 178.254 247.63 177.59C244.5 176.689 240.611 176.357 236.911 176.642Z" fill="#F4A15D"/>
</g>
</g>
</g>
<path d="M232.736 152.453C232.594 152.263 232.452 152.121 232.31 151.978C234.064 150.224 237.337 150.413 238.76 152.453C248.246 166.492 249.005 171.804 248.483 177.401C248.388 178.112 247.108 178.918 246.301 178.634C245.21 178.065 243.882 177.638 242.459 177.306C242.981 171.709 242.175 166.397 232.736 152.453Z" fill="#37605D"/>
<path d="M247.677 177.401C248.199 171.757 247.44 166.444 237.954 152.453C236.389 150.224 232.642 150.224 231.077 152.453C221.591 166.492 220.832 171.804 221.354 177.401C221.449 178.112 222.729 178.918 223.536 178.634C228.99 175.835 240.041 175.835 245.496 178.634C246.302 178.918 247.582 178.16 247.677 177.401Z" stroke="#23241F" stroke-width="3" stroke-miterlimit="10" stroke-linecap="round" stroke-linejoin="round"/>
<path d="M198.843 58.056L198.843 58.0559C203.16 32.3445 216.992 13.787 234.491 2.13195C251.991 13.787 265.823 32.3445 270.14 58.0559C275.131 87.7693 267.114 123.461 244.93 159.873H224.053C201.916 123.46 193.852 87.7689 198.843 58.056Z" fill="white" stroke="#23241F"/>
<path opacity="0.16" d="M215.33 58.4948C218.176 34.9698 225.575 16.2826 235.535 2.29085C235.203 2.0537 234.823 1.81655 234.491 1.57941C216.753 13.2945 202.714 32.0292 198.35 58.0205C193.323 87.9486 201.481 123.853 223.772 160.421H228.278C215.899 123.853 211.725 88.7074 215.33 58.4948Z" fill="#F4A15D"/>
<path opacity="0.08" d="M270.633 57.9731C266.317 32.1715 252.467 13.5317 234.871 1.81659C238.144 7.08127 242.318 14.67 245.827 24.2982C252.23 41.7997 252.942 56.2183 253.321 65.2773C255.029 106.019 239.424 151.077 236.152 160.421H245.211C267.55 123.805 275.66 87.9012 270.633 57.9731Z" fill="#A5143A"/>
<path opacity="0.07" d="M270.633 57.9731C266.269 31.9817 252.23 13.2471 234.492 1.53198C234.017 1.81656 233.591 2.14858 233.116 2.43315C239.851 7.69783 244.974 13.3419 248.863 18.7489C283.771 67.3167 250.286 140.026 245.685 149.654C245.495 143.109 244.642 134.999 242.223 125.94C240.657 120.153 238.76 115.078 236.863 110.762C236.152 126.841 235.44 142.919 234.729 158.998H240.61C240.468 159.472 240.325 159.899 240.136 160.373H245.116C267.55 123.805 275.66 87.9011 270.633 57.9731Z" fill="#00381B"/>
<path opacity="0.11" d="M204.327 66.2259C204.991 58.6371 207.457 33.9738 222.682 13.7214C225.101 10.5436 228.705 6.22751 228.421 5.99036C227.994 5.61092 219.646 13.1522 213.718 21.1678C206.271 31.1754 200.817 43.4597 198.398 57.9731C193.37 87.9011 201.528 123.805 223.82 160.373H225.765C219.646 148.184 215.615 137.18 212.864 128.501C211.062 122.667 207.884 112.327 205.892 98.4779C204.611 89.1817 203.188 79.2215 204.327 66.2259Z" fill="#0046B2"/>
<path opacity="0.07" d="M237.052 75.9964C244.177 75.9964 249.953 70.2205 249.953 63.0955C249.953 55.9706 244.177 50.1947 237.052 50.1947C229.927 50.1947 224.151 55.9706 224.151 63.0955C224.151 70.2205 229.927 75.9964 237.052 75.9964Z" fill="#14A53D" stroke="#14A53D" stroke-width="6" stroke-miterlimit="10" stroke-linecap="round" stroke-linejoin="round"/>
<path d="M245.211 160.373C267.55 123.805 275.66 87.9011 270.633 57.9731C266.269 31.9817 252.23 13.2471 234.491 1.53198C216.753 13.2471 202.714 31.9817 198.35 57.9731C193.323 87.9011 201.481 123.805 223.772 160.373H245.211Z" stroke="#23241F" stroke-width="3" stroke-miterlimit="10" stroke-linecap="round" stroke-linejoin="round"/>
<path d="M234.492 74.0043C241.617 74.0043 247.392 68.2284 247.392 61.1035C247.392 53.9785 241.617 48.2026 234.492 48.2026C227.367 48.2026 221.591 53.9785 221.591 61.1035C221.591 68.2284 227.367 74.0043 234.492 74.0043Z" fill="#ABCFD8"/>
<path opacity="0.93" d="M232.736 68.1705C237.032 68.1705 240.515 64.6879 240.515 60.392C240.515 56.0961 237.032 52.6136 232.736 52.6136C228.441 52.6136 224.958 56.0961 224.958 60.392C224.958 64.6879 228.441 68.1705 232.736 68.1705Z" fill="#E2F0F2"/>
<path d="M234.492 74.0043C241.617 74.0043 247.392 68.2284 247.392 61.1035C247.392 53.9785 241.617 48.2026 234.492 48.2026C227.367 48.2026 221.591 53.9785 221.591 61.1035C221.591 68.2284 227.367 74.0043 234.492 74.0043Z" stroke="#23241F" stroke-width="3" stroke-miterlimit="10" stroke-linecap="round" stroke-linejoin="round"/>
<path d="M216.278 17.8952C228.088 13.8162 241.037 13.8162 252.846 17.9426C247.487 11.4448 241.274 5.99036 234.539 1.53198C227.804 5.99036 221.59 11.4448 216.278 17.8952Z" fill="#444E59"/>
<path d="M216.278 17.8952C228.088 13.8162 241.037 13.8162 252.846 17.9426C247.487 11.4448 241.274 5.99036 234.539 1.53198C227.804 5.99036 221.59 11.4448 216.278 17.8952Z" stroke="#23241F" stroke-width="3" stroke-miterlimit="10" stroke-linecap="round" stroke-linejoin="round"/>
<path d="M234.492 182.57C235.013 182.57 235.44 182.001 235.488 181.242L239.045 123.189C239.424 117.213 237.527 111.663 234.729 110.335C234.539 110.24 234.349 110.24 234.207 110.335C231.409 111.616 229.512 117.165 229.891 123.189L233.448 181.242C233.543 182.001 234.017 182.57 234.492 182.57Z" fill="#303030"/>
<path opacity="0.74" d="M234.492 182.57C235.013 182.57 235.44 182.001 235.488 181.242L239.045 123.189C239.424 117.213 237.527 111.663 234.729 110.335C234.539 110.24 234.349 110.24 234.207 110.335C231.409 111.616 229.512 117.165 229.891 123.189L233.448 181.242C233.543 182.001 234.017 182.57 234.492 182.57Z" fill="#D1231D"/>
<g opacity="0.53">
<g opacity="0.53">
<g opacity="0.53">
<path opacity="0.53" d="M234.254 110.335C231.456 111.616 229.558 117.165 229.938 123.189L233.495 181.242C233.543 181.859 233.827 182.381 234.207 182.523V110.335H234.254Z" fill="#F4A15D"/>
</g>
<g opacity="0.53">
<path opacity="0.53" d="M234.254 110.335H234.776C234.586 110.24 234.396 110.24 234.254 110.335Z" fill="#F4A15D"/>
</g>
</g>
</g>
<path d="M234.492 182.57C235.013 182.57 235.44 182.001 235.488 181.242L239.045 123.189C239.424 117.213 237.527 111.663 234.729 110.335C234.539 110.24 234.349 110.24 234.207 110.335C231.409 111.616 229.512 117.165 229.891 123.189L233.448 181.242C233.543 182.001 234.017 182.57 234.492 182.57Z" stroke="#23241F" stroke-width="3" stroke-miterlimit="10" stroke-linecap="round" stroke-linejoin="round"/>
<path d="M304.118 113.655C299.28 106.636 296.481 98.3356 296.481 89.4663C296.481 78.2255 300.892 67.9333 308.244 60.0126C315.596 67.9333 320.054 78.2255 320.101 89.4663C320.101 98.3831 317.303 106.636 312.513 113.655H304.118Z" fill="#CF264D"/>
<path d="M304.118 113.655C299.28 106.636 296.481 98.3356 296.481 89.4663C296.481 78.2255 300.892 67.9333 308.244 60.0126C315.596 67.9333 320.054 78.2255 320.101 89.4663C320.101 98.3831 317.303 106.636 312.513 113.655H304.118Z" fill="white"/>
<path opacity="0.09" d="M307.58 60.0126C308.149 60.6292 308.718 61.2932 309.24 61.9572C304.307 69.5459 301.462 78.4627 301.414 87.9486C301.414 97.3396 302.837 106.114 307.675 113.703H303.311C298.521 106.683 295.723 98.383 295.723 89.5137C295.723 78.2255 300.181 67.9333 307.58 60.0126Z" fill="#F4A15D"/>
<path opacity="0.32" d="M307.58 60.0126C307.77 60.2023 307.959 60.4394 308.149 60.6766C302.6 68.8819 299.422 78.5101 299.375 88.8497C299.375 97.8139 301.794 106.256 306.015 113.703H303.311C298.521 106.683 295.723 98.383 295.723 89.5137C295.723 78.2255 300.181 67.9333 307.58 60.0126Z" fill="#5DF499"/>
<path opacity="0.12" d="M320.101 89.4663C320.101 78.2255 315.643 67.9807 308.244 60.0126C307.675 60.6292 307.106 61.2932 306.584 61.9572C311.517 69.5459 314.362 78.4627 314.41 87.9486C314.41 97.3396 311.659 106.114 306.821 113.703H312.513C317.303 106.636 320.101 98.3356 320.101 89.4663Z" fill="#A5143A"/>
<path opacity="0.12" d="M320.102 89.4663C320.102 78.2255 315.644 67.9807 308.245 60.0126C308.055 60.2023 307.865 60.4394 307.676 60.6766C313.225 68.8819 316.403 78.5101 316.45 88.8497C316.45 97.8139 314.031 106.256 309.81 113.703H312.514C317.304 106.636 320.102 98.3356 320.102 89.4663Z" fill="#A5143A"/>
<path opacity="0.1" d="M308.244 60.0126C307.675 60.6292 307.106 61.2932 306.584 61.9572C311.517 69.5459 314.362 78.4627 314.41 87.9486C314.41 97.3396 311.659 106.114 306.821 113.703H312.513C317.303 106.683 320.101 98.383 320.101 89.5137C320.101 78.2255 315.643 67.9333 308.244 60.0126Z" fill="#14A55F"/>
<path opacity="0.12" d="M308.245 60.0126C308.055 60.2023 307.865 60.4394 307.676 60.6766C313.225 68.8819 316.403 78.5101 316.45 88.8497C316.45 97.8139 314.031 106.256 309.81 113.703H312.514C317.304 106.683 320.102 98.383 320.102 89.5137C320.102 78.2255 315.644 67.9333 308.245 60.0126Z" fill="#14A54E"/>
<path d="M314.553 68.5499C312.798 65.467 310.711 62.6212 308.292 59.9651C305.873 62.5738 303.786 65.467 302.031 68.5499H314.553Z" fill="#444E59"/>
<path d="M304.118 113.655C299.28 106.636 296.481 98.3356 296.481 89.4663C296.481 78.2255 300.892 67.9333 308.244 60.0126C315.596 67.9333 320.054 78.2255 320.101 89.4663C320.101 98.3831 317.303 106.636 312.513 113.655H304.118Z" stroke="#23241F" stroke-width="3" stroke-miterlimit="10" stroke-linecap="round" stroke-linejoin="round"/>
<path d="M300.514 107.395H316.118" stroke="#23241F" stroke-width="3" stroke-miterlimit="10" stroke-linecap="round" stroke-linejoin="round"/>
<path opacity="0.41" d="M219.883 16.2826C219.883 16.2826 223.108 11.2076 234.064 2.67029C228.989 9.54757 227.993 13.8636 227.661 14.1957C224.436 14.8122 219.883 16.2826 219.883 16.2826Z" fill="white"/>
<circle cx="24.5" cy="38.5" r="14.5" fill="#E0F4FA"/>
<circle cx="455.5" cy="198.5" r="7.5" fill="#E0F4FA"/>
</svg>
