<svg width="1361" height="1305" viewBox="0 0 1361 1305" fill="none" xmlns="http://www.w3.org/2000/svg">
<mask id="mask2" mask-type="alpha" maskUnits="userSpaceOnUse" x="-500" y="-500" width="3000" height="3000">
<path d="M262.849 157.509C578.517 -121.32 943.962 -2.80417 1226 310C1446 554 1372.14 933.928 1170.85 1135.22C969.56 1336.51 442.513 1392.34 126.844 1113.51C-101.156 912.119 -1.1507 390.7 262.849 157.509Z" fill="#005289" class="mask-rotate-1-rev"/>
</mask>
<g mask="url(#mask2)">
<path d="M-355 -289C-39.3321 -567.829 1294.96 -505.804 1577 -193C1797 50.9996 1750.29 1393.71 1549 1595C1347.71 1796.29 -39.3304 1741.83 -355 1463C-583 1261.61 -619 -55.8089 -355 -289Z" fill="#B2E2F3"/>
<path d="M333.371 900H293.244C266.13 900 219.002 906 219.002 890.5C219.001 879.135 230.892 879.135 233.934 879.135H233.928C233.928 859.429 254.282 859.429 254.282 859.429C254.282 838.563 273.473 838.563 273.473 838.563C273.473 813.062 313.019 811.902 313.019 838.563C319.803 839.336 333.371 844.707 333.371 860.008C360.124 860.008 358.961 900 333.371 900Z" fill="#E0F4FA" class="clouds-fast-2"/>
<path d="M209.371 328H169.244C142.13 328 95.002 334 95.002 318.5C95.0007 307.135 106.892 307.135 109.934 307.135H109.928C109.928 287.429 130.282 287.429 130.282 287.429C130.282 266.563 149.473 266.563 149.473 266.563C149.473 241.062 189.019 239.902 189.019 266.563C195.803 267.336 209.371 272.707 209.371 288.008C236.124 288.008 234.961 328 209.371 328Z" fill="#E0F4FA" class="clouds-fast-4"/>
<path d="M834.633 1116H874.76C901.874 1116 949.002 1122 949.002 1106.5C949.003 1095.13 937.112 1095.13 934.07 1095.13H934.076C934.076 1075.43 913.722 1075.43 913.722 1075.43C913.722 1054.56 894.531 1054.56 894.531 1054.56C894.531 1029.06 854.985 1027.9 854.985 1054.56C848.201 1055.34 834.633 1060.71 834.633 1076.01C807.88 1076.01 809.043 1116 834.633 1116Z" fill="#E0F4FA" class="clouds-fast-3"/>
<path d="M976.633 594H1016.76C1043.87 594 1091 600 1091 584.5C1091 573.135 1079.11 573.135 1076.07 573.135H1076.08C1076.08 553.429 1055.72 553.429 1055.72 553.429C1055.72 532.563 1036.53 532.563 1036.53 532.563C1036.53 507.062 996.985 505.902 996.985 532.563C990.201 533.336 976.633 538.707 976.633 554.008C949.88 554.008 951.043 594 976.633 594Z" fill="#E0F4FA" class="clouds-fast-1"/>
<g class="clouds-slow-4">
<path d="M821.886 876.635H909.726C969.082 876.635 1085.38 876.635 1085.38 876.635C1085.39 830.805 1046.22 830.805 1039.56 830.805H1039.57C1039.57 787.521 995.017 787.521 995.017 787.521C995.017 741.692 953.006 741.692 953.006 741.692C953.006 685.678 866.439 683.132 866.439 741.692C851.588 743.389 821.886 755.186 821.886 788.794C763.322 788.794 765.868 876.635 821.886 876.635Z" fill="white"/>
<path d="M900.318 749.755C892.665 742.658 883.051 738.478 873.136 737.105C874.336 727.216 878.569 719.953 884.191 714.937C890.988 708.873 900.236 705.731 909.711 705.73C919.19 705.73 928.468 708.875 935.283 714.822C941.976 720.661 946.629 729.477 946.629 741.692C946.629 745.199 949.466 748.044 952.971 748.057L953.235 748.064C953.46 748.072 953.824 748.09 954.305 748.127C955.269 748.202 956.693 748.356 958.42 748.67C961.901 749.303 966.46 750.558 970.951 753.008C975.408 755.439 979.753 759.017 983.009 764.345C986.256 769.659 988.64 777.07 988.64 787.521C988.64 791.031 991.48 793.877 994.987 793.887L994.997 793.887H994.999L995.033 793.887C995.06 793.888 995.099 793.888 995.149 793.89C995.191 793.891 995.241 793.892 995.299 793.894C995.553 793.902 995.953 793.919 996.479 793.956C997.533 794.029 999.078 794.178 1000.95 794.481C1004.72 795.092 1009.65 796.302 1014.5 798.658C1019.33 801.003 1023.94 804.413 1027.35 809.383C1030.71 814.276 1033.17 821.056 1033.2 830.634C1033.19 830.691 1033.19 830.748 1033.19 830.805C1033.19 834.321 1036.04 837.17 1039.56 837.17H1039.56C1049.9 837.171 1057.24 839.738 1062.52 843.262C1067.85 846.813 1071.48 851.593 1073.97 856.567C1076.47 861.565 1077.75 866.641 1078.39 870.521C1078.71 872.445 1078.87 874.035 1078.95 875.119C1078.99 875.66 1079.01 876.072 1079.02 876.332C1079.02 876.463 1079.02 876.555 1079.02 876.606L1079.02 876.635L1079.02 876.641L1079.02 876.645L1079.02 876.652C1079.03 880.16 1081.88 883 1085.39 883C1088.9 883 1091.75 880.15 1091.75 876.634L1085.39 876.635C1091.75 876.634 1091.75 876.631 1091.75 876.628L1091.75 876.62L1091.75 876.601L1091.75 876.551C1091.75 876.512 1091.75 876.461 1091.75 876.4C1091.75 876.278 1091.75 876.113 1091.74 875.908C1091.73 875.497 1091.7 874.924 1091.65 874.212C1091.55 872.789 1091.35 870.799 1090.95 868.427C1090.17 863.714 1088.58 857.332 1085.35 850.873C1082.11 844.389 1077.15 837.712 1069.58 832.67C1063.25 828.449 1055.36 825.551 1045.64 824.7C1044.77 815.578 1041.95 808.151 1037.85 802.18C1032.9 794.977 1026.37 790.271 1020.06 787.206C1013.78 784.152 1007.57 782.656 1002.98 781.914C1002.34 781.81 1001.73 781.721 1001.15 781.643C1000.39 771.932 997.748 764.049 993.872 757.707C989.251 750.145 983.094 745.13 977.048 741.832C971.037 738.554 965.092 736.944 960.697 736.145C960.13 736.042 959.587 735.952 959.07 735.874C957.747 722.844 951.986 712.5 943.653 705.229C934.237 697.014 921.873 692.999 909.71 693C897.543 693.001 885.15 697.021 875.715 705.438C867.386 712.87 861.68 723.454 860.356 736.876C849.774 737.956 839.412 742.204 831.27 749.755C822.824 757.59 817.069 768.704 815.782 782.728C802.343 784.073 791.805 789.88 784.475 798.356C776.185 807.942 772.363 820.508 772.541 832.807C772.719 845.105 776.9 857.592 785.214 867.1C793.635 876.73 806.05 883 821.874 883H909.714C912.891 883 915.582 880.657 916.019 877.51L909.714 876.635C916.019 877.51 916.019 877.506 916.02 877.502L916.021 877.494L916.024 877.473L916.031 877.419C916.036 877.378 916.043 877.325 916.051 877.262C916.066 877.135 916.085 876.964 916.106 876.753C916.148 876.331 916.198 875.745 916.239 875.018C916.319 873.567 916.363 871.539 916.228 869.12C915.961 864.321 914.981 857.778 912.029 851.135C909.046 844.425 904.05 837.627 895.883 832.558C887.744 827.506 876.89 824.44 862.611 824.44C859.096 824.44 856.246 827.29 856.246 830.805C856.246 834.32 859.096 837.17 862.611 837.17C875.065 837.17 883.465 839.833 889.17 843.374C894.847 846.898 898.285 851.558 900.395 856.305C902.535 861.12 903.306 866.034 903.517 869.827C903.526 869.977 903.533 870.124 903.54 870.27H821.874C809.689 870.27 800.779 865.56 794.797 858.72C788.709 851.757 785.41 842.285 785.27 832.622C785.13 822.961 788.152 813.567 794.104 806.683C799.944 799.931 808.967 795.16 821.874 795.16C825.389 795.16 828.239 792.31 828.239 788.794C828.239 775.153 833.088 765.433 839.928 759.089C846.864 752.655 856.245 749.33 865.794 749.33C875.343 749.33 884.724 752.655 891.66 759.089C898.5 765.433 903.349 775.153 903.349 788.794C903.349 792.31 906.199 795.16 909.714 795.16C913.23 795.16 916.079 792.31 916.079 788.794C916.079 771.883 909.948 758.688 900.318 749.755Z" fill="#80CFEB"/>
</g>
<g class="clouds-slow-3">
<path d="M595.7 1061.08H510.519C452.959 1061.08 340.18 1061.08 340.18 1061.08C340.175 1016.63 378.157 1016.63 384.614 1016.63H384.602C384.602 974.66 427.81 974.66 427.81 974.66C427.81 930.218 468.549 930.218 468.549 930.218C468.549 875.9 552.495 873.431 552.495 930.218C566.897 931.864 595.7 943.303 595.7 975.894C652.491 975.894 650.022 1061.08 595.7 1061.08Z" fill="white"/>
<path d="M519.643 938.037C527.064 931.154 536.387 927.101 546.001 925.77C544.838 916.18 540.733 909.137 535.282 904.273C528.69 898.392 519.722 895.346 510.534 895.345C501.341 895.345 492.345 898.395 485.736 904.161C479.245 909.824 474.734 918.373 474.734 930.218C474.734 933.619 471.982 936.378 468.583 936.39L468.328 936.397C468.109 936.405 467.756 936.422 467.29 936.458C466.355 936.531 464.975 936.681 463.3 936.985C459.924 937.599 455.503 938.816 451.147 941.192C446.826 943.549 442.612 947.019 439.454 952.185C436.306 957.338 433.995 964.525 433.995 974.66C433.995 978.063 431.24 980.823 427.839 980.833L427.83 980.833H427.827L427.795 980.833C427.769 980.833 427.731 980.834 427.683 980.835C427.642 980.836 427.593 980.838 427.537 980.84C427.291 980.848 426.903 980.864 426.393 980.9C425.371 980.971 423.872 981.115 422.057 981.409C418.399 982.001 413.618 983.175 408.915 985.459C404.232 987.734 399.763 991.04 396.455 995.86C393.199 1000.6 390.815 1007.18 390.787 1016.47C390.789 1016.52 390.789 1016.58 390.789 1016.63C390.789 1020.04 388.026 1022.81 384.617 1022.81H384.614C374.586 1022.81 367.474 1025.3 362.349 1028.71C357.184 1032.16 353.663 1036.79 351.252 1041.61C348.828 1046.46 347.585 1051.38 346.958 1055.15C346.647 1057.01 346.493 1058.55 346.418 1059.61C346.381 1060.13 346.363 1060.53 346.354 1060.78C346.35 1060.91 346.348 1061 346.348 1061.05L346.347 1061.08L346.347 1061.08L346.347 1061.09L346.347 1061.09C346.338 1064.49 343.578 1067.25 340.174 1067.25C336.765 1067.25 334.002 1064.48 334.002 1061.08L340.174 1061.08C334.002 1061.08 334.002 1061.07 334.002 1061.07L334.002 1061.06L334.002 1061.04L334.002 1060.99C334.003 1060.96 334.003 1060.91 334.004 1060.85C334.006 1060.73 334.01 1060.57 334.016 1060.37C334.03 1059.97 334.055 1059.42 334.105 1058.73C334.203 1057.35 334.397 1055.42 334.781 1053.12C335.543 1048.55 337.078 1042.36 340.21 1036.09C343.354 1029.81 348.166 1023.33 355.501 1018.44C361.64 1014.35 369.291 1011.54 378.717 1010.71C379.561 1001.87 382.302 994.665 386.276 988.875C391.07 981.89 397.403 977.326 403.521 974.354C409.62 971.392 415.642 969.942 420.084 969.223C420.708 969.122 421.303 969.035 421.866 968.96C422.601 959.542 425.162 951.898 428.921 945.748C433.402 938.415 439.373 933.552 445.236 930.354C451.065 927.175 456.829 925.614 461.091 924.839C461.641 924.739 462.168 924.652 462.669 924.576C463.952 911.941 469.538 901.91 477.62 894.859C486.75 886.892 498.74 882.999 510.535 883C522.333 883.001 534.352 886.899 543.5 895.061C551.578 902.268 557.111 912.532 558.395 925.548C568.657 926.595 578.705 930.714 586.6 938.037C594.791 945.635 600.371 956.412 601.62 970.011C614.652 971.316 624.87 976.947 631.978 985.166C640.018 994.463 643.724 1006.65 643.551 1018.57C643.378 1030.5 639.324 1042.61 631.262 1051.83C623.096 1061.17 611.057 1067.25 595.712 1067.25H510.531C507.45 1067.25 504.84 1064.98 504.417 1061.92L510.531 1061.08C504.417 1061.92 504.416 1061.92 504.416 1061.92L504.415 1061.91L504.412 1061.89L504.405 1061.84C504.4 1061.8 504.393 1061.75 504.386 1061.68C504.371 1061.56 504.353 1061.39 504.332 1061.19C504.291 1060.78 504.243 1060.21 504.204 1059.51C504.126 1058.1 504.083 1056.13 504.214 1053.79C504.473 1049.13 505.423 1042.79 508.286 1036.35C511.179 1029.84 516.023 1023.25 523.943 1018.33C531.836 1013.43 542.361 1010.46 556.208 1010.46C559.617 1010.46 562.38 1013.22 562.38 1016.63C562.38 1020.04 559.617 1022.81 556.208 1022.81C544.131 1022.81 535.985 1025.39 530.453 1028.82C524.948 1032.24 521.614 1036.76 519.567 1041.36C517.492 1046.03 516.745 1050.8 516.54 1054.47C516.532 1054.62 516.525 1054.76 516.518 1054.9H595.712C607.528 1054.9 616.168 1050.34 621.969 1043.7C627.873 1036.95 631.072 1027.77 631.207 1018.4C631.343 1009.03 628.413 999.917 622.641 993.242C616.978 986.694 608.228 982.067 595.712 982.067C592.303 982.067 589.539 979.303 589.539 975.894C589.539 962.666 584.837 953.24 578.205 947.088C571.478 940.85 562.381 937.625 553.121 937.625C543.862 937.625 534.764 940.85 528.038 947.088C521.405 953.24 516.703 962.666 516.703 975.894C516.703 979.303 513.94 982.067 510.531 982.067C507.122 982.067 504.358 979.303 504.358 975.894C504.358 959.495 510.304 946.699 519.643 938.037Z" fill="#80CFEB"/>
</g>
<path d="M741.141 999C749.902 999 757.004 1006.1 757.004 1014.86L757.004 1050.91C757.004 1059.68 749.902 1066.78 741.141 1066.78C732.38 1066.78 725.278 1059.68 725.278 1050.91L725.278 1014.86C725.278 1006.1 732.38 999 741.141 999Z" fill="#D1231D" class="fire-droplet-3"/>
<path d="M585.139 987C593.9 987 601.002 994.102 601.002 1002.86L601.002 1038.91C601.002 1047.68 593.9 1054.78 585.139 1054.78C576.378 1054.78 569.276 1047.68 569.276 1038.91L569.276 1002.86C569.276 994.102 576.378 987 585.139 987Z" fill="#F36800" class="fire-droplet-2"/>
<g class="firebrain">
<path d="M647.504 151C553.892 151 478.004 233.203 478.004 334.604L478.004 500L817.004 500L817.004 334.604C817.004 233.203 741.116 151 647.504 151Z" fill="#F36800"/>
<path d="M787.002 372L787.002 795.972C787.002 772.899 755.276 772.899 755.276 795.972L755.276 372L787.002 372Z" fill="#D1231D"/>
<path d="M801.139 458C809.9 458 817.002 465.102 817.002 473.863L817.002 866.109C817.002 874.87 809.9 881.972 801.139 881.972C792.378 881.972 785.276 874.87 785.276 866.109L785.276 473.863C785.276 465.102 792.378 458 801.139 458Z" fill="#D1231D" class="fire-drip-4"/>
<path d="M541.002 343L541.002 766.972C541.002 743.899 509.276 743.899 509.276 766.972L509.276 343L541.002 343Z" fill="#D1231D" class="fire-drip-3"/>
<path d="M725.002 441L725.002 864.972C725.002 841.899 693.276 841.899 693.276 864.972L693.276 441L725.002 441Z" fill="#D1231D" class="fire-drip-2"/>
<path d="M664.002 372L664.002 795.972C664.002 772.899 632.276 772.899 632.276 795.972L632.276 372L664.002 372Z" fill="#D1231D"/>
<path d="M602.002 395L602.002 818.972C602.002 795.899 570.276 795.899 570.276 818.972L570.276 395L602.002 395Z" fill="#D1231D" class="fire-drip-2"/>
<path d="M740.139 528C748.9 528 756.002 535.102 756.002 543.863L756.002 936.109C756.002 944.87 748.9 951.972 740.139 951.972C731.378 951.972 724.276 944.87 724.276 936.109L724.276 543.863C724.276 535.102 731.378 528 740.139 528Z" fill="#D1231D" class="fire-drip-1"/>
<path d="M679.139 462C687.9 462 695.002 469.102 695.002 477.863L695.002 870.11C695.002 878.87 687.9 885.972 679.139 885.972C670.378 885.972 663.276 878.87 663.276 870.11L663.276 477.863C663.276 469.102 670.378 462 679.139 462Z" fill="#D1231D" class="fire-drip-2"/>
<path d="M617.139 505C625.9 505 633.002 512.102 633.002 520.863L633.002 913.11C633.002 921.87 625.9 928.972 617.139 928.972C608.378 928.972 601.276 921.87 601.276 913.11L601.276 520.863C601.276 512.102 608.378 505 617.139 505Z" fill="#D1231D" class="fire-drip-2"/>
<path d="M556.139 436C564.9 436 572.002 443.102 572.002 451.863L572.002 844.11C572.002 852.87 564.9 859.972 556.139 859.972C547.378 859.972 540.276 852.87 540.276 844.11L540.276 451.863C540.276 443.102 547.378 436 556.139 436Z" fill="#D1231D"/>
<path d="M494.139 380C502.9 380 510.002 387.102 510.002 395.863L510.002 788.11C510.002 796.87 502.9 803.972 494.139 803.972C485.378 803.972 478.276 796.87 478.276 788.11L478.276 395.863C478.276 387.102 485.378 380 494.139 380Z" fill="#D1231D" class="fire-drip-3-rev"/>
<path d="M724.002 303L724.002 726.972C724.002 703.899 692.276 703.899 692.276 726.972L692.276 303L724.002 303Z" fill="#F36800" class="fire-drip-2"/>
<path d="M786.002 234L786.002 657.972C786.002 634.899 754.276 634.899 754.276 657.972L754.276 234L786.002 234Z" fill="#F36800"/>
<path d="M677.865 368C669.104 368 662.002 375.102 662.002 383.863L662.002 797.741C662.002 806.502 669.104 813.604 677.865 813.604C686.626 813.604 693.728 806.502 693.728 797.741L693.728 383.863C693.728 375.102 686.626 368 677.865 368Z" fill="#F36800" class="fire-drip-3"/>
<path d="M738.865 362C730.104 362 723.002 369.102 723.002 377.863L723.002 728.289C723.002 737.05 730.104 744.152 738.865 744.152C747.626 744.152 754.728 737.05 754.728 728.289L754.728 377.863C754.728 369.102 747.626 362 738.865 362Z" fill="#F36800"/>
<path d="M800.865 366C792.104 366 785.002 373.102 785.002 381.863L785.002 774.109C785.002 782.87 792.104 789.972 800.865 789.972C809.626 789.972 816.728 782.87 816.728 774.109L816.728 381.863C816.728 373.102 809.626 366 800.865 366Z" fill="#F36800" class="fire-drip-3"/>
<path d="M493.865 356C485.104 356 478.002 363.102 478.002 371.863L478.002 681.911C478.002 690.672 485.104 697.774 493.865 697.774C502.626 697.774 509.728 690.672 509.728 681.911L509.728 371.863C509.728 363.102 502.626 356 493.865 356Z" fill="#F36800"/>
<path d="M540.002 280L540.002 634.752C540.002 611.679 508.276 611.679 508.276 634.752L508.276 280L540.002 280Z" fill="#F36800"/>
<path d="M601.002 303L601.002 726.972C601.002 703.899 569.276 703.899 569.276 726.972L569.276 303L601.002 303Z" fill="#F36800"/>
<path d="M663.002 234L663.002 657.972C663.002 634.899 631.276 634.899 631.276 657.972L631.276 234L663.002 234Z" fill="#F36800"/>
<path d="M554.865 368C546.104 368 539.002 375.102 539.002 383.863L539.002 797.741C539.002 806.502 546.104 813.604 554.865 813.604C563.626 813.604 570.728 806.502 570.728 797.741L570.728 383.863C570.728 375.102 563.626 368 554.865 368Z" fill="#F36800" class="fire-drip-1"/>
<path d="M615.865 362C607.104 362 600.002 369.102 600.002 377.863L600.002 728.289C600.002 737.05 607.104 744.152 615.865 744.152C624.626 744.152 631.728 737.05 631.728 728.289L631.728 377.863C631.728 369.102 624.626 362 615.865 362Z" fill="#F36800" class="fire-drip-4-rev"/>
<path d="M663.002 319L663.002 588.188C663.002 565.114 631.276 565.114 631.276 588.188L631.276 319L663.002 319Z" fill="#F1C400"/>
<path d="M726.002 441L726.002 611.166C726.002 588.092 694.276 588.092 694.276 611.166L694.276 441L726.002 441Z" fill="#F1C400"/>
<path d="M602.002 205L602.002 628.962C602.002 605.889 567.805 605.889 567.805 628.962L567.805 205L602.002 205Z" fill="#F1C400" class="fire-drip-4-rev"/>
<path d="M615.865 483C607.104 483 600.002 490.102 600.002 498.863L600.002 683.45C600.002 692.21 607.104 699.312 615.865 699.312C624.626 699.312 631.728 692.21 631.728 683.45L631.728 498.863C631.728 490.102 624.626 483 615.865 483Z" fill="#F1C400" class="fire-drip-2-rev"/>
<path d="M552.865 454C544.104 454 537.002 461.102 537.002 469.863L537.002 654.45C537.002 663.21 544.104 670.312 552.865 670.312C561.626 670.312 568.728 663.21 568.728 654.45L568.728 469.863C568.728 461.102 561.626 454 552.865 454Z" fill="#F1C400" class="fire-drip-4-rev"/>
<path d="M678.865 508C670.104 508 663.002 515.102 663.002 523.863L663.002 613.272C663.002 622.033 670.104 629.135 678.865 629.135C687.626 629.135 694.728 622.033 694.728 613.272L694.728 523.863C694.728 515.102 687.626 508 678.865 508Z" fill="#F1C400"/>
<path d="M740.865 531C732.104 531 725.002 538.102 725.002 546.863L725.002 636.272C725.002 645.033 732.104 652.135 740.865 652.135C749.626 652.135 756.728 645.033 756.728 636.272L756.728 546.863C756.728 538.102 749.626 531 740.865 531Z" fill="#F1C400"/>
<path d="M647.002 209C586.251 209 537.002 255.985 537.002 313.945L537.002 547L757.002 547L757.002 313.945C757.002 255.985 707.753 209 647.002 209Z" fill="#F1C400"/>
<g class="brain">
<path d="M565.2 379.796C549.957 387.692 535.147 389.036 522.524 384.061C510.04 379.141 501.628 368.784 497.684 357.123C490.547 336.014 497.39 309.159 521.381 293.756C521.021 278.461 529.492 263.446 539.87 253.669C550.302 243.84 565.854 236.38 582.001 239.563C590.647 226.8 605.072 219.156 619.511 218.122C634.185 217.071 649.065 222.792 658.842 236.104C668.923 231.086 680.818 229.95 691.33 232.194C704.127 234.927 716.318 242.987 722.315 256.531C729.704 255.267 736.787 255.666 743.371 257.595C753.767 260.64 761.902 267.198 767.557 274.97C775.471 285.847 779.536 300.797 776.982 314.333C790.793 322.664 798.318 338.551 799.243 353.113C799.862 362.849 797.736 373.206 791.8 381.976C785.726 390.948 776.193 396.763 763.68 399.263H762.486H671.822C666.685 399.263 662.683 401.574 659.678 406.491C655.53 413.279 654.353 424.459 656.911 432.491C659.232 439.775 663.91 444.022 671.822 444.022C678.62 444.022 684.13 449.533 684.13 456.33C684.13 463.128 678.62 468.639 671.822 468.639C651.063 468.639 638.333 455.271 633.456 439.963C630.807 431.647 630.27 422.371 631.79 413.498H616.632C603.695 413.498 593.585 407.214 587.007 398.509C580.638 390.079 577.51 379.414 577.21 369.229H571.844C571.713 373.547 569.308 377.667 565.2 379.796Z" fill="#FF63A8"/>
<path fill-rule="evenodd" clip-rule="evenodd" d="M621.27 242.675C611.696 243.361 602.763 249.68 599.761 258.679L599.576 259.232C597.234 266.252 589.092 269.42 582.621 265.828L582.112 265.545C574.882 261.532 565.426 263.412 556.75 271.586C547.762 280.054 544.67 290.652 546.561 296.794L546.686 297.198C548.429 302.859 545.716 308.937 540.337 311.417L539.952 311.594C521.107 320.284 517.009 337.423 521.004 349.238C523.008 355.164 526.846 359.305 531.55 361.159C536.115 362.958 543.428 363.351 553.877 357.938C559.913 354.811 567.34 357.169 570.467 363.205C573.594 369.241 571.236 376.669 565.2 379.796C549.957 387.692 535.147 389.036 522.524 384.061C510.04 379.141 501.628 368.784 497.684 357.123C490.547 336.014 497.39 309.159 521.381 293.756C521.021 278.461 529.492 263.446 539.87 253.669C550.302 243.84 565.854 236.38 582.001 239.563C590.647 226.8 605.072 219.156 619.511 218.122C634.185 217.071 649.065 222.792 658.842 236.104C668.923 231.086 680.818 229.95 691.33 232.194C704.127 234.927 716.318 242.987 722.316 256.531C729.704 255.267 736.787 255.666 743.371 257.595C753.767 260.64 761.902 267.198 767.557 274.97C775.471 285.847 779.536 300.797 776.982 314.333C790.793 322.664 798.318 338.551 799.243 353.113C799.862 362.849 797.736 373.206 791.8 381.976C785.726 390.948 776.193 396.763 763.68 399.263H762.486H671.822C666.685 399.263 662.683 401.574 659.678 406.491C655.53 413.279 654.353 424.459 656.911 432.491C659.232 439.775 663.91 444.022 671.822 444.022C678.62 444.022 684.13 449.533 684.13 456.33C684.13 463.128 678.62 468.639 671.822 468.639C651.063 468.639 638.333 455.271 633.456 439.963C630.807 431.647 630.27 422.371 631.79 413.498H616.632C603.695 413.498 593.585 407.214 587.007 398.509C580.638 390.079 577.51 379.414 577.21 369.229C576.91 359.061 579.402 350.341 585.844 341.587C592.594 332.416 603.152 325.414 616.632 325.414H700.369C707.166 325.414 712.677 330.858 712.677 337.655C712.677 344.453 707.166 350.03 700.369 350.03H616.632C611.081 350.03 607.841 353.227 605.67 356.178C603.192 359.545 601.639 362.511 601.815 368.505C601.991 374.481 603.859 379.978 606.648 383.669C609.229 387.086 612.441 388.882 616.632 388.882H642.968C649.721 381.082 659.454 374.647 671.822 374.647H759.943C765.8 373.24 769.291 371.314 771.415 368.176C773.804 364.646 775.009 359.911 774.676 354.674C773.964 343.471 767.058 334.939 759.002 333.43L758.295 333.298C750.042 331.752 745.985 322.338 750.528 315.277L750.917 314.672C754.297 309.42 754.146 298.379 747.652 289.452C744.695 285.389 740.865 282.511 736.452 281.219C732.145 279.957 726.261 279.903 718.535 283.211L717.926 283.472C710.562 286.625 702.261 281.698 701.501 273.724L701.438 273.064C700.512 263.349 694.352 258.011 686.189 256.268C677.213 254.351 668.38 257.384 664.302 262.477L663.746 263.17C657.892 270.482 646.264 268.407 643.3 259.522L643.018 258.679C638.794 246.016 629.876 242.059 621.27 242.675Z" fill="#23241F"/>
</g>
<path d="M700.863 384C692.102 384 685 391.102 685 399.863L685 421.494C685 430.255 692.102 437.357 700.863 437.357C709.624 437.357 716.726 430.255 716.726 421.494L716.726 399.863C716.726 391.102 709.624 384 700.863 384Z" fill="#F1C400" class="fire-droplet-1"/>
<path d="M629.002 179L629.002 241.899C629.002 218.825 597.276 218.825 597.276 241.899L597.276 179L629.002 179Z" fill="#F36800"/>
<path d="M700.865 179C692.104 179 685.002 186.102 685.002 194.863L685.002 223.22C685.002 231.981 692.105 239.083 700.865 239.083C709.626 239.083 716.728 231.981 716.728 223.22L716.728 194.863C716.728 186.102 709.626 179 700.865 179Z" fill="#F36800"/>
<path d="M643.865 166C635.104 166 628.002 173.102 628.002 181.863L628.002 289.868C628.002 298.629 635.104 305.731 643.865 305.731C652.626 305.731 659.728 298.629 659.728 289.868L659.728 181.863C659.728 173.102 652.626 166 643.865 166Z" fill="#F36800" class="fire-drip-5"/>
<path d="M582.865 178C574.104 178 567.002 185.102 567.002 193.863L567.002 243.314C567.002 252.075 574.104 259.177 582.865 259.177C591.626 259.177 598.728 252.075 598.728 243.314L598.728 193.863C598.728 185.102 591.626 178 582.865 178Z" fill="#F36800" class="fire-drip-5"/>
</g>
<g class="clouds-slow-1">
<path d="M697.268 311.997H850.814C954.57 311.997 1157.87 311.997 1157.87 311.997C1157.87 231.886 1089.41 231.886 1077.77 231.886H1077.79C1077.79 156.225 999.904 156.225 999.904 156.225C999.904 76.1142 926.469 76.1142 926.469 76.1142C926.469 -21.7991 775.147 -26.2497 775.147 76.1142C749.187 79.0812 697.268 99.7023 697.268 158.451C594.897 158.451 599.348 311.997 697.268 311.997Z" fill="white"/>
<path d="M834.368 90.2097C820.991 77.8024 804.186 70.4968 786.854 68.0967C788.952 50.8103 796.351 38.1138 806.177 29.3467C818.059 18.746 834.225 13.254 850.787 13.2531C867.358 13.2523 883.575 18.7501 895.488 29.1448C907.188 39.3527 915.321 54.7625 915.321 76.114C915.321 82.2456 920.28 87.2187 926.407 87.2405L926.868 87.2528C927.262 87.2672 927.898 87.2979 928.738 87.3634C930.424 87.4948 932.912 87.7639 935.931 88.3129C942.017 89.4194 949.985 91.6132 957.837 95.8959C965.627 100.145 973.223 106.4 978.914 115.713C984.59 125.001 988.756 137.957 988.756 156.225C988.756 162.36 993.721 167.335 999.852 167.352L999.869 167.352H999.873L999.932 167.353C999.979 167.354 1000.05 167.355 1000.13 167.357C1000.21 167.359 1000.3 167.361 1000.4 167.364C1000.84 167.379 1001.54 167.409 1002.46 167.473C1004.3 167.601 1007 167.861 1010.27 168.391C1016.87 169.459 1025.49 171.573 1033.96 175.691C1042.41 179.792 1050.46 185.752 1056.42 194.44C1062.29 202.993 1066.59 214.844 1066.64 231.587C1066.64 231.687 1066.64 231.786 1066.64 231.886C1066.64 238.031 1071.62 243.012 1077.76 243.012H1077.77C1095.85 243.013 1108.66 247.501 1117.9 253.661C1127.21 259.868 1133.56 268.224 1137.91 276.918C1142.28 285.655 1144.52 294.528 1145.65 301.309C1146.21 304.674 1146.49 307.453 1146.62 309.348C1146.69 310.294 1146.72 311.013 1146.74 311.469C1146.74 311.696 1146.75 311.857 1146.75 311.947L1146.75 311.998L1146.75 312.008L1146.75 312.016L1146.75 312.027C1146.77 318.159 1151.74 323.124 1157.88 323.124C1164.02 323.123 1169 318.141 1169 311.996L1157.88 311.997C1169 311.996 1169 311.991 1169 311.985L1169 311.971L1169 311.938L1169 311.85C1169 311.782 1169 311.694 1169 311.587C1168.99 311.374 1168.99 311.085 1168.98 310.726C1168.95 310.008 1168.91 309.007 1168.82 307.761C1168.64 305.275 1168.29 301.796 1167.6 297.65C1166.22 289.411 1163.46 278.255 1157.81 266.965C1152.14 255.632 1143.47 243.959 1130.25 235.145C1119.18 227.768 1105.39 222.702 1088.4 221.213C1086.88 205.269 1081.94 192.286 1074.77 181.849C1066.13 169.258 1054.72 161.032 1043.69 155.674C1032.69 150.335 1021.84 147.721 1013.83 146.424C1012.71 146.242 1011.63 146.085 1010.62 145.95C1009.29 128.974 1004.68 115.195 997.903 104.109C989.825 90.8909 979.062 82.1247 968.493 76.36C957.986 70.6288 947.595 67.8157 939.912 66.4187C938.922 66.2386 937.972 66.0813 937.068 65.9438C934.756 43.1684 924.685 25.0866 910.118 12.3768C893.659 -1.98344 872.046 -9.00107 850.786 -9C829.518 -8.99892 807.854 -1.97172 791.363 12.7418C776.802 25.7324 766.829 44.2342 764.514 67.6966C746.016 69.5838 727.903 77.0095 713.672 90.2097C698.907 103.904 688.847 123.331 686.597 147.846C663.106 150.198 644.686 160.348 631.873 175.164C617.381 191.921 610.701 213.886 611.012 235.385C611.324 256.882 618.632 278.71 633.165 295.33C647.884 312.163 669.586 323.124 697.246 323.124H850.793C856.347 323.124 861.05 319.028 861.814 313.527L850.793 311.997C861.814 313.527 861.815 313.52 861.816 313.514L861.818 313.498L861.823 313.463L861.835 313.368C861.844 313.296 861.856 313.204 861.869 313.093C861.896 312.871 861.93 312.573 861.967 312.204C862.04 311.466 862.127 310.442 862.198 309.171C862.339 306.635 862.415 303.089 862.18 298.862C861.713 290.472 860 279.034 854.839 267.422C849.625 255.693 840.892 243.81 826.617 234.95C812.389 226.118 793.417 220.759 768.456 220.759C762.311 220.759 757.33 225.741 757.33 231.886C757.33 238.031 762.311 243.012 768.456 243.012C790.225 243.012 804.909 247.667 814.881 253.857C824.805 260.017 830.815 268.162 834.504 276.461C838.244 284.876 839.592 293.466 839.961 300.098C839.975 300.359 839.988 300.617 840 300.87H697.246C675.947 300.87 660.372 292.638 649.916 280.681C639.274 268.51 633.508 251.952 633.263 235.063C633.018 218.175 638.299 201.753 648.705 189.72C658.912 177.917 674.684 169.577 697.246 169.577C703.392 169.577 708.373 164.596 708.373 158.451C708.373 134.605 716.849 117.615 728.805 106.525C740.93 95.2789 757.329 89.4662 774.02 89.4662C790.711 89.4662 807.11 95.2789 819.235 106.525C831.191 117.615 839.666 134.605 839.666 158.451C839.666 164.596 844.648 169.577 850.793 169.577C856.938 169.577 861.92 164.596 861.92 158.451C861.92 128.889 851.202 105.824 834.368 90.2097Z" fill="#80CFEB"/>
</g>
<g class="clouds-slow-2">
<path d="M525.736 694.997H372.19C268.434 694.997 65.1387 694.997 65.1387 694.997C65.1298 614.886 133.597 614.886 145.236 614.886H145.213C145.213 539.225 223.1 539.225 223.1 539.225C223.1 459.114 296.535 459.114 296.535 459.114C296.535 361.201 447.857 356.75 447.857 459.114C473.816 462.081 525.736 482.702 525.736 541.451C628.107 541.451 623.656 694.997 525.736 694.997Z" fill="white"/>
<path d="M388.636 473.21C402.013 460.802 418.818 453.497 436.15 451.097C434.052 433.81 426.653 421.114 416.826 412.347C404.945 401.746 388.779 396.254 372.217 396.253C355.646 396.252 339.429 401.75 327.516 412.145C315.816 422.353 307.683 437.763 307.683 459.114C307.683 465.246 302.723 470.219 296.597 470.241L296.136 470.253C295.741 470.267 295.106 470.298 294.266 470.363C292.58 470.495 290.092 470.764 287.073 471.313C280.987 472.419 273.019 474.613 265.167 478.896C257.377 483.145 249.781 489.4 244.09 498.713C238.413 508.001 234.248 520.957 234.248 539.225C234.248 545.36 229.283 550.335 223.152 550.352L223.135 550.352H223.131L223.072 550.353C223.025 550.354 222.957 550.355 222.87 550.357C222.796 550.359 222.708 550.361 222.607 550.364C222.164 550.379 221.464 550.409 220.545 550.473C218.702 550.601 216 550.861 212.73 551.391C206.135 552.459 197.517 554.573 189.039 558.691C180.598 562.792 172.542 568.752 166.579 577.44C160.71 585.993 156.413 597.844 156.362 614.587C156.365 614.687 156.366 614.786 156.366 614.886C156.366 621.031 151.385 626.012 145.24 626.012H145.235C127.158 626.013 114.339 630.501 105.099 636.661C95.789 642.868 89.4431 651.224 85.0958 659.918C80.7268 668.655 78.4866 677.528 77.356 684.309C76.795 687.674 76.5188 690.453 76.3834 692.348C76.3158 693.294 76.2837 694.013 76.2685 694.469C76.2609 694.696 76.2575 694.857 76.2561 694.947L76.2551 694.998L76.2551 695.008L76.2551 695.016L76.255 695.027C76.2387 701.159 71.263 706.124 65.1279 706.124C58.9829 706.123 54.0016 701.141 54.002 694.996L65.1285 694.997C54.002 694.996 54.002 694.991 54.002 694.985L54.002 694.971L54.0021 694.938L54.0026 694.85C54.0032 694.782 54.0041 694.694 54.0059 694.587C54.0093 694.374 54.0158 694.085 54.0278 693.726C54.0517 693.008 54.0979 692.007 54.1869 690.761C54.3646 688.275 54.7146 684.796 55.4058 680.65C56.7793 672.411 59.5469 661.255 65.1922 649.965C70.8594 638.632 79.5346 626.959 92.7552 618.145C103.822 610.768 117.613 605.702 134.604 604.213C136.126 588.269 141.068 575.286 148.231 564.849C156.872 552.258 168.287 544.032 179.317 538.674C190.311 533.335 201.165 530.721 209.173 529.424C210.297 529.242 211.37 529.085 212.385 528.95C213.71 511.974 218.326 498.195 225.101 487.109C233.179 473.891 243.942 465.125 254.511 459.36C265.018 453.629 275.409 450.816 283.092 449.419C284.082 449.239 285.032 449.081 285.936 448.944C288.248 426.168 298.318 408.087 312.886 395.377C329.344 381.017 350.958 373.999 372.218 374C393.485 374.001 415.15 381.028 431.641 395.742C446.201 408.732 456.175 427.234 458.49 450.697C476.988 452.584 495.101 460.009 509.332 473.21C524.097 486.904 534.157 506.331 536.407 530.846C559.898 533.198 578.318 543.348 591.131 558.164C605.623 574.921 612.303 596.886 611.992 618.385C611.68 639.882 604.372 661.71 589.839 678.33C575.119 695.163 553.418 706.124 525.757 706.124H372.211C366.657 706.124 361.954 702.028 361.19 696.527L372.211 694.997C361.19 696.527 361.189 696.52 361.188 696.514L361.186 696.498L361.181 696.463L361.169 696.368C361.159 696.296 361.148 696.204 361.134 696.093C361.108 695.871 361.074 695.573 361.037 695.204C360.964 694.466 360.877 693.442 360.806 692.171C360.665 689.635 360.589 686.089 360.824 681.862C361.291 673.472 363.004 662.034 368.165 650.422C373.379 638.693 382.112 626.81 396.387 617.95C410.615 609.118 429.587 603.759 454.547 603.759C460.692 603.759 465.674 608.741 465.674 614.886C465.674 621.031 460.692 626.012 454.547 626.012C432.779 626.012 418.095 630.667 408.123 636.857C398.199 643.017 392.189 651.162 388.5 659.461C384.76 667.876 383.412 676.466 383.043 683.098C383.028 683.359 383.015 683.617 383.004 683.87H525.757C547.057 683.87 562.632 675.638 573.087 663.681C583.73 651.51 589.496 634.952 589.741 618.063C589.986 601.175 584.705 584.753 574.299 572.72C564.092 560.917 548.32 552.577 525.757 552.577C519.612 552.577 514.631 547.596 514.631 541.451C514.631 517.605 506.155 500.615 494.199 489.525C482.074 478.279 465.675 472.466 448.984 472.466C432.293 472.466 415.894 478.279 403.769 489.525C391.813 500.615 383.337 517.605 383.337 541.451C383.337 547.596 378.356 552.577 372.211 552.577C366.066 552.577 361.084 547.596 361.084 541.451C361.084 511.889 371.802 488.824 388.636 473.21Z" fill="#80CFEB"/>
</g>
</g>
</svg>
