<svg width="49" height="47" viewBox="0 0 49 47" fill="none" xmlns="http://www.w3.org/2000/svg">
<mask id="mask32" mask-type="alpha" maskUnits="userSpaceOnUse" x="-200" y="-200" width="3000" height="3000">
<path d="M48.6664 25.6476C52.119 42.9971 27.9512 49.8155 14.1409 45.3765C0.330662 40.9375 -1.94745 27.0042 1.31703 14.7967C4.76951 1.88613 13.293 0 27.4578 0C41.6226 0 45.2137 8.29809 48.6664 25.6476Z" fill="#EF736E" class="mask-rotate-1-rev"/>
</mask>
<g mask="url(#mask32)">
<path d="M67.4076 27.5885C73.5379 58.4271 30.6276 70.5469 6.10732 62.6565C-18.4129 54.7662 -22.4577 29.9999 -16.6616 8.30105C-10.5317 -14.6474 4.60187 -18 29.7516 -18C54.9013 -18 61.2774 -3.25018 67.4076 27.5885Z" fill="#EF736E"/>
<path fill-rule="evenodd" clip-rule="evenodd" d="M30.3326 14.73L35.2925 26.7C35.7125 27.71 35.2225 28.88 34.2026 29.3L26.8426 32.35C26.5926 32.45 26.3326 32.5 26.0725 32.5C25.2926 32.49 24.5526 32.03 24.2425 31.27L19.2826 19.3C19.1726 19.04 19.1226 18.77 19.1326 18.5C19.1526 17.73 19.6126 17.01 20.3626 16.7L27.7325 13.65C27.9925 13.54 28.2626 13.5 28.5226 13.5C29.2926 13.52 30.0226 13.98 30.3326 14.73ZM17.1326 30.96L15.7926 30.4C14.7826 29.98 14.2926 28.81 14.7026 27.79L17.1326 21.93V30.96ZM21.1426 19.5C20.5926 19.5 20.1426 19.05 20.1426 18.5C20.1426 17.95 20.5926 17.5 21.1426 17.5C21.6926 17.5 22.1426 17.95 22.1426 18.5C22.1426 19.05 21.6926 19.5 21.1426 19.5ZM21.1426 32.5C20.0426 32.5 19.1426 31.6 19.1426 30.5V24.16L22.5926 32.5H21.1426Z" fill="#23241F"/>
</g>
</svg>
