<svg width="49" height="47" viewBox="0 0 49 47" fill="none" xmlns="http://www.w3.org/2000/svg">
<mask id="mask33" mask-type="alpha" maskUnits="userSpaceOnUse" x="-200" y="-200" width="500" height="500">
<path d="M48.6664 25.6476C52.119 42.9971 27.9512 49.8155 14.1409 45.3765C0.330662 40.9375 -1.94745 27.0042 1.31703 14.7967C4.76951 1.88613 13.293 0 27.4578 0C41.6226 0 45.2137 8.29809 48.6664 25.6476Z" fill="#EF736E" class="mask-rotate-1"/>
</mask>
<g mask="url(#mask33)">
<path d="M75 42.5309C75 91.0228 39.4008 77.1679 9.54287 77.1679C-20.3151 77.1679 -37.162 30.9852 -20.315 5.58469C-3.05203 -20.443 16.5678 -42.1952 40.5486 -29.0524C65.8282 -15.1978 75 -5.96094 75 42.5309Z" fill="#B5DBBE"/>
<path fill-rule="evenodd" clip-rule="evenodd" d="M33 19C33 20.1 32.1 21 31 21C29.9 21 29 20.1 29 19C29 17.9 29.9 17 31 17C32.1 17 33 17.9 33 19ZM17 23C17 21.9 17.9 21 19 21C20.1 21 21 21.9 21 23C21 24.1 20.1 25 19 25C17.9 25 17 24.1 17 23ZM21 27C21 25.9 21.9 25 23 25C24.1 25 25 25.9 25 27C25 28.1 24.1 29 23 29C21.9 29 21 28.1 21 27ZM19 29C17.9 29 17 29.9 17 31C17 32.1 17.9 33 19 33C20.1 33 21 32.1 21 31C21 29.9 20.1 29 19 29ZM27 29C25.9 29 25 29.9 25 31C25 32.1 25.9 33 27 33C28.1 33 29 32.1 29 31C29 29.9 28.1 29 27 29ZM29 27C29 25.9 29.9 25 31 25C32.1 25 33 25.9 33 27C33 28.1 32.1 29 31 29C29.9 29 29 28.1 29 27ZM27 21C25.9 21 25 21.9 25 23C25 24.1 25.9 25 27 25C28.1 25 29 24.1 29 23C29 21.9 28.1 21 27 21ZM21 19C21 17.9 21.9 17 23 17C24.1 17 25 17.9 25 19C25 20.1 24.1 21 23 21C21.9 21 21 20.1 21 19Z" fill="#23241F"/>
</g>
</svg>
