<svg width="47" height="53" viewBox="0 0 47 53" fill="none" xmlns="http://www.w3.org/2000/svg">
<path d="M46.5009 25.9058C49.9883 43.4299 34.5444 56.2953 20.5951 51.8116C6.64583 47.3279 -2.62977 38.2363 0.667577 25.9058C4.15481 12.8653 6.28773 0 20.5951 0C34.9025 0 43.0135 8.38163 46.5009 25.9058Z" fill="#DBBB8A" class="blob-icon"/>
<path fill-rule="evenodd" clip-rule="evenodd" d="M15.17 20.0213L23.07 15.8613C23.65 15.5513 24.35 15.5513 24.93 15.8613L32.83 20.0213C33.24 20.2313 33.5 20.6613 33.5 21.1213C33.5 21.8113 32.94 22.3713 32.26 22.3713H15.75C15.06 22.3713 14.5 21.8113 14.5 21.1213C14.5 20.6613 14.76 20.2313 15.17 20.0213ZM16.5 25.8713V29.8713C16.5 30.7013 17.17 31.3713 18 31.3713C18.83 31.3713 19.5 30.7013 19.5 29.8713V25.8713C19.5 25.0413 18.83 24.3713 18 24.3713C17.17 24.3713 16.5 25.0413 16.5 25.8713ZM22.5 25.8713V29.8713C22.5 30.7013 23.17 31.3713 24 31.3713C24.83 31.3713 25.5 30.7013 25.5 29.8713V25.8713C25.5 25.0413 24.83 24.3713 24 24.3713C23.17 24.3713 22.5 25.0413 22.5 25.8713ZM33.5 34.8713C33.5 35.7013 32.83 36.3713 32 36.3713H16C15.17 36.3713 14.5 35.7013 14.5 34.8713C14.5 34.0413 15.17 33.3713 16 33.3713H32C32.83 33.3713 33.5 34.0413 33.5 34.8713ZM28.5 25.8713V29.8713C28.5 30.7013 29.17 31.3713 30 31.3713C30.83 31.3713 31.5 30.7013 31.5 29.8713V25.8713C31.5 25.0413 30.83 24.3713 30 24.3713C29.17 24.3713 28.5 25.0413 28.5 25.8713Z" fill="#23241F"/>
</svg>
