<svg width="44" height="49" viewBox="0 0 44 49" fill="none" xmlns="http://www.w3.org/2000/svg">
<path d="M44 32.4071C44 53.213 28.6435 47.2684 15.7636 47.2684C2.88368 47.2684 -4.38361 27.4534 2.88372 16.5551C10.3305 5.38767 18.794 -3.94527 29.1386 1.69376C40.0435 7.63819 44 11.6013 44 32.4071Z" fill="#B5DBBE" class="blob-icon"/>
<path fill-rule="evenodd" clip-rule="evenodd" d="M31 20C31 21.1 30.1 22 29 22C27.9 22 27 21.1 27 20C27 18.9 27.9 18 29 18C30.1 18 31 18.9 31 20ZM15 24C15 22.9 15.9 22 17 22C18.1 22 19 22.9 19 24C19 25.1 18.1 26 17 26C15.9 26 15 25.1 15 24ZM19 28C19 26.9 19.9 26 21 26C22.1 26 23 26.9 23 28C23 29.1 22.1 30 21 30C19.9 30 19 29.1 19 28ZM17 30C15.9 30 15 30.9 15 32C15 33.1 15.9 34 17 34C18.1 34 19 33.1 19 32C19 30.9 18.1 30 17 30ZM25 30C23.9 30 23 30.9 23 32C23 33.1 23.9 34 25 34C26.1 34 27 33.1 27 32C27 30.9 26.1 30 25 30ZM27 28C27 26.9 27.9 26 29 26C30.1 26 31 26.9 31 28C31 29.1 30.1 30 29 30C27.9 30 27 29.1 27 28ZM25 22C23.9 22 23 22.9 23 24C23 25.1 23.9 26 25 26C26.1 26 27 25.1 27 24C27 22.9 26.1 22 25 22ZM19 20C19 18.9 19.9 18 21 18C22.1 18 23 18.9 23 20C23 21.1 22.1 22 21 22C19.9 22 19 21.1 19 20Z" fill="#23241F"/>
</svg>
