<svg width="49" height="47" viewBox="0 0 49 47" fill="none" xmlns="http://www.w3.org/2000/svg">
<mask id="mask34" mask-type="alpha" maskUnits="userSpaceOnUse" x="-200" y="-200" width="500" height="500">
<path d="M48.6664 25.6476C52.119 42.9971 27.9512 49.8155 14.1409 45.3765C0.330662 40.9375 -1.94745 27.0042 1.31703 14.7967C4.76951 1.88613 13.293 0 27.4578 0C41.6226 0 45.2137 8.29809 48.6664 25.6476Z" fill="#EF736E" class="mask-rotate-1-rev"/>
</mask>
<g mask="url(#mask34)">
<path d="M79.2364 29.3653C74.1885 68.3875 32.7579 68.3875 3.57431 72.7233C-25.6093 77.0591 -40.386 29.3653 -24.529 5.51845C-8.28047 -18.9173 1.71616 -27 32.7581 -27C63.8 -27 84.2843 -9.65682 79.2364 29.3653Z" fill="#F1C400"/>
<path fill-rule="evenodd" clip-rule="evenodd" d="M34 12H20C18.9 12 18 12.9 18 14V28C18 29.1 18.9 30 20 30H34C35.1 30 36 29.1 36 28V14C36 12.9 35.1 12 34 12ZM16 16H14V32C14 33.1 14.9 34 16 34H32V32H16V16ZM20 28H34V14H20V28Z" fill="#23241F"/>
</g>
</svg>
