<svg width="49" height="47" viewBox="0 0 49 47" fill="none" xmlns="http://www.w3.org/2000/svg">
<mask id="mask31" mask-type="alpha" maskUnits="userSpaceOnUse" x="-500" y="-500" width="3000" height="3000">
<path d="M48.6664 25.6476C52.119 42.9971 27.9512 49.8155 14.1409 45.3765C0.330662 40.9375 -1.94745 27.0042 1.31703 14.7967C4.76951 1.88613 13.293 0 27.4578 0C41.6226 0 45.2137 8.29809 48.6664 25.6476Z" fill="#EF736E" class="mask-rotate-1"/>
</mask>
<g mask="url(#mask31)">
<path d="M69.0336 22.1306C75.7859 56.0417 45.8838 80.9375 18.8756 72.2611C-8.13254 63.5847 -26.0917 45.9914 -19.7075 22.1307C-12.9556 -3.10419 -8.82588 -28 18.8756 -28C46.5771 -28 62.2814 -11.7806 69.0336 22.1306Z" fill="#DBBB8A"/>
<path fill-rule="evenodd" clip-rule="evenodd" d="M16.17 17.0213L24.07 12.8613C24.65 12.5513 25.35 12.5513 25.93 12.8613L33.83 17.0213C34.24 17.2313 34.5 17.6613 34.5 18.1213C34.5 18.8113 33.94 19.3713 33.26 19.3713H16.75C16.06 19.3713 15.5 18.8113 15.5 18.1213C15.5 17.6613 15.76 17.2313 16.17 17.0213ZM17.5 22.8713V26.8713C17.5 27.7013 18.17 28.3713 19 28.3713C19.83 28.3713 20.5 27.7013 20.5 26.8713V22.8713C20.5 22.0413 19.83 21.3713 19 21.3713C18.17 21.3713 17.5 22.0413 17.5 22.8713ZM23.5 22.8713V26.8713C23.5 27.7013 24.17 28.3713 25 28.3713C25.83 28.3713 26.5 27.7013 26.5 26.8713V22.8713C26.5 22.0413 25.83 21.3713 25 21.3713C24.17 21.3713 23.5 22.0413 23.5 22.8713ZM34.5 31.8713C34.5 32.7013 33.83 33.3713 33 33.3713H17C16.17 33.3713 15.5 32.7013 15.5 31.8713C15.5 31.0413 16.17 30.3713 17 30.3713H33C33.83 30.3713 34.5 31.0413 34.5 31.8713ZM29.5 22.8713V26.8713C29.5 27.7013 30.17 28.3713 31 28.3713C31.83 28.3713 32.5 27.7013 32.5 26.8713V22.8713C32.5 22.0413 31.83 21.3713 31 21.3713C30.17 21.3713 29.5 22.0413 29.5 22.8713Z" fill="#23241F"/>
</g>
</svg>
