<svg width="51" height="46" viewBox="0 0 51 46" fill="none" xmlns="http://www.w3.org/2000/svg">
<path d="M50.6491 25.8245C48.3298 43.703 29.2942 43.703 15.8855 45.6895C2.4768 47.676 -4.31249 25.8245 2.97315 14.8988C10.4387 3.70322 15.0317 0 29.2942 0C43.5567 0 52.9685 7.94601 50.6491 25.8245Z" fill="#F1C400" class="blob-icon"/>
<path fill-rule="evenodd" clip-rule="evenodd" d="M35 12H21C19.9 12 19 12.9 19 14V28C19 29.1 19.9 30 21 30H35C36.1 30 37 29.1 37 28V14C37 12.9 36.1 12 35 12ZM17 16H15V32C15 33.1 15.9 34 17 34H33V32H17V16ZM21 28H35V14H21V28Z" fill="#23241F"/>
</svg>
