<svg viewBox="0 0 405 131" fill="none" xmlns="http://www.w3.org/2000/svg">
<path d="M98.22 0.294H85.245V25.472H98.22V0.294Z" fill="#003087"/>
<path d="M212.435 35.348L145.719 2.502C145.719 2.502 142.168 0.316999 137.047 0.316999C137.035 0.316999 137.025 0.318999 137.013 0.318999C137.001 0.318999 136.991 0.316999 136.979 0.316999C131.858 0.316999 128.307 2.502 128.307 2.502L61.591 35.348C61.591 35.348 56.674 37.533 56.674 42.177C56.674 46.82 63.776 52.829 80.71 47.366L136.978 20.052L137.012 19.984L137.046 20.052L193.314 47.366C210.249 52.829 217.35 46.82 217.35 42.177C217.351 37.533 212.435 35.348 212.435 35.348Z" fill="#F1C400"/>
<path d="M43.962 32.025C38.909 27.353 31.18 24.983 20.988 24.983C13.926 24.983 7.21601 25.52 1.04001 26.579L0.359009 26.696V109.365H12.317V76.666C14.697 77.127 17.406 77.194 19.802 77.194C30.478 77.194 39.37 73.897 44.831 67.92C49.072 63.435 51.223 57.341 51.223 49.81C51.224 42.502 48.641 36.183 43.962 32.025ZM20.04 67.024C16.829 67.024 14.293 66.802 12.318 66.352V35.708C14.301 35.281 17.552 35.031 21.225 35.031C32.859 35.031 39.266 40.452 39.266 50.296C39.266 60.927 32.258 67.024 20.04 67.024Z" fill="#002E86"/>
<path d="M53.188 87.707C53.478 96.48 60.175 100.27 67.743 100.27C73.275 100.27 77.254 99.47 80.844 98.078L82.592 106.551C78.516 108.25 72.887 109.543 66.094 109.543C50.761 109.543 41.735 99.869 41.735 85.015C41.735 71.553 49.693 58.89 64.832 58.89C80.165 58.89 85.211 71.853 85.211 82.522C85.211 84.816 85.017 86.611 84.823 87.708H53.188V87.707ZM73.955 79.13C74.052 74.645 72.111 67.265 64.154 67.265C56.779 67.265 53.675 74.142 53.189 79.13H73.955Z" fill="#002E86"/>
<path d="M87.33 74.443C87.33 68.859 87.234 64.172 86.943 59.985H97.423L98.005 67.265H98.296C100.333 63.475 105.478 58.889 113.338 58.889C121.586 58.889 130.127 64.373 130.127 79.73V108.546H118.19V81.125C118.19 74.144 115.667 68.859 109.166 68.859C104.41 68.859 101.111 72.349 99.85 76.041C99.461 77.138 99.366 78.633 99.366 80.028V108.547H87.33V74.443Z" fill="#002E86"/>
<path d="M132.729 74.443C132.729 68.859 132.632 64.172 132.341 59.985H142.82L143.403 67.265H143.694C145.731 63.475 150.875 58.889 158.736 58.889C166.984 58.889 175.525 64.373 175.525 79.73V108.546H163.587V81.125C163.587 74.144 161.064 68.859 154.562 68.859C149.806 68.859 146.508 72.349 145.247 76.041C144.858 77.138 144.763 78.633 144.763 80.028V108.547H132.729V74.443V74.443Z" fill="#002E86"/>
<path d="M186.331 59.985L194.872 86.011C195.843 89.001 196.812 92.691 197.491 95.484H197.781C198.557 92.691 199.432 89.101 200.305 85.912L207.68 59.985H220.49L208.651 93.091C202.149 111.237 197.781 119.316 192.154 124.3C187.498 128.587 182.643 130.181 179.635 130.581L176.918 120.208C178.955 119.712 181.479 118.616 183.904 116.819C186.136 115.325 188.756 112.431 190.405 109.141C190.889 108.246 191.182 107.543 191.182 106.948C191.182 106.45 191.085 105.753 190.503 104.553L173.23 59.983L186.331 59.985Z" fill="#002E86"/>
<path d="M276.256 81.125C275.869 72.449 275.383 61.979 275.481 52.907H275.191C273.055 61.084 270.338 70.158 267.424 78.633L257.916 107.748H248.694L239.963 79.029C237.44 70.455 235.11 61.281 233.364 52.905H233.168C232.879 61.68 232.489 72.349 232.006 81.521L230.551 108.544H219.393L223.758 41.337H239.477L248.017 68.36C250.347 76.236 252.383 84.214 254.036 91.693H254.327C256.071 84.413 258.306 76.137 260.829 68.26L269.852 41.337H285.377L289.162 108.544H277.517L276.256 81.125Z" fill="#002E86"/>
<path d="M320.961 108.546L320.185 103.161H319.895C316.983 106.95 312.032 109.641 305.92 109.641C296.408 109.641 291.071 102.561 291.071 95.182C291.071 82.92 301.648 76.734 319.117 76.834V76.039C319.117 72.849 317.853 67.564 309.508 67.564C304.853 67.564 300 69.056 296.797 71.151L294.469 63.174C297.961 60.979 304.076 58.886 311.547 58.886C326.688 58.886 331.053 68.755 331.053 79.325V96.874C331.053 101.265 331.246 105.552 331.734 108.542H320.962V108.546H320.961ZM319.409 84.814C310.968 84.617 302.911 86.507 302.911 93.888C302.911 98.673 305.921 100.867 309.704 100.867C314.458 100.867 317.954 97.678 319.019 94.185C319.312 93.289 319.409 92.292 319.409 91.494V84.814Z" fill="#002E86"/>
<path d="M371.586 107.05C369.062 108.249 364.111 109.542 358.192 109.542C343.442 109.542 333.836 99.868 333.836 84.813C333.836 70.254 343.539 58.887 360.133 58.887C364.5 58.887 368.965 59.885 371.684 61.181L369.547 70.356C367.606 69.458 364.793 68.46 360.524 68.46C351.399 68.46 345.965 75.341 346.064 84.214C346.064 94.187 352.374 99.868 360.524 99.868C364.696 99.868 367.606 98.972 369.934 97.975L371.586 107.05Z" fill="#002E86"/>
<path d="M375.704 44.419H379.194C381.337 44.419 382.973 45.429 382.973 47.724C382.973 49.27 382.131 50.266 380.862 50.709L383.311 54.826H381.459L379.207 50.969H377.324V54.826H375.703V44.419H375.704ZM379.133 49.608C380.51 49.608 381.305 49.042 381.305 47.725C381.305 46.379 380.494 45.843 379.133 45.843H377.326V49.608H379.133Z" fill="#353535"/>
<path d="M378.956 58.986C373.901 58.986 369.788 54.872 369.788 49.816C369.788 44.76 373.901 40.646 378.956 40.646C384.013 40.646 388.126 44.76 388.126 49.816C388.125 54.873 384.012 58.986 378.956 58.986ZM378.956 42.284C374.805 42.284 371.427 45.663 371.427 49.816C371.427 53.969 374.805 57.348 378.956 57.348C383.11 57.348 386.487 53.969 386.487 49.816C386.487 45.664 383.11 42.284 378.956 42.284Z" fill="#353535"/>
</svg>
