<?xml version="1.0" encoding="UTF-8"?>
<svg width="123px" height="113px" viewBox="0 0 123 113" version="1.1" xmlns="http://www.w3.org/2000/svg" xmlns:xlink="http://www.w3.org/1999/xlink">
    <!-- Generator: Sketch 52.5 (67469) - http://www.bohemiancoding.com/sketch -->
    <title>Group 3</title>
    <desc>Created with Sketch.</desc>
    <g id="Brand-Exploration" stroke="none" stroke-width="1" fill="none" fill-rule="evenodd">
        <g id="Artboard-Copy-24" transform="translate(-795.000000, -696.000000)">
            <g id="Group-3" transform="translate(795.000000, 696.000000)">
                <path d="M77.7056239,13.939484 L85.263938,17.3180093 C81.2344679,18.5267253 78.3924793,20.6346564 77.8297148,23.0920398 C77.7621797,23.3869409 77.7274686,32.8245197 77.7274686,33.128536 C77.7274686,37.4151074 84.6281794,40.8900601 93.1406375,40.8900601 C101.653096,40.8900601 108.553806,37.4151074 108.553806,33.128536 C108.553806,32.9634839 108.543575,30.273294 108.523416,27.7148692 L122,33.7388292 L61.052605,60.2612561 L2.98427949e-12,33.4771982 L15.5305797,26.6265188 C15.5057736,29.4440832 15.4931641,32.9452988 15.4931641,33.128536 C15.4931641,37.4151074 22.3938748,40.8900601 30.906333,40.8900601 C39.4187911,40.8900601 46.3195018,37.4151074 46.3195018,33.128536 C46.3195018,32.8146355 46.2824971,23.3674421 46.2105644,23.063292 C45.5699141,20.3544538 42.1587376,18.0738023 37.4442767,16.9601884 L46.9296915,12.776086 C46.9107427,15.3312736 46.9011309,18.020435 46.9011309,18.1804153 C46.9011309,22.4669867 53.8018416,25.9419395 62.3142998,25.9419395 C70.8267579,25.9419395 77.7274686,22.4669867 77.7274686,18.1804153 C77.7274686,18.0405876 77.7201259,16.0884617 77.7056239,13.939484 Z M61.7326707,56.4131085 C70.2451289,56.4131085 77.1458396,52.9381558 77.1458396,48.6515843 C77.1458396,48.3376838 77.1088349,38.8904905 77.0369022,38.5863404 C76.1265351,34.7370688 69.6217717,31.752415 61.7326707,31.752415 C53.8239411,31.752415 47.3064464,34.7519393 46.4217481,38.6150881 C46.3542129,38.9099892 46.3195018,48.3475681 46.3195018,48.6515843 C46.3195018,52.9381558 53.2202126,56.4131085 61.7326707,56.4131085 Z" id="Combined-Shape" fill="#BFBFBF"></path>
                <polygon id="Rectangle" fill="#9B9B9B" points="61 60.1855166 122.112 33.7274182 122.112 81.2587891 61 112.313842"></polygon>
                <path d="M31.2375,30.475 C22.8220611,30.475 16,26.9996104 16,22.7125 C16,18.4253896 22.8220611,14.95 31.2375,14.95 C39.6529389,14.95 46.475,18.4253896 46.475,22.7125 C46.475,26.9996104 39.6529389,30.475 31.2375,30.475 Z M62.2875,15.525 C53.8720611,15.525 47.05,12.0496104 47.05,7.7625 C47.05,3.47538963 53.8720611,0 62.2875,0 C70.7029389,0 77.525,3.47538963 77.525,7.7625 C77.525,12.0496104 70.7029389,15.525 62.2875,15.525 Z M61.7125,46 C53.2970611,46 46.475,42.5246104 46.475,38.2375 C46.475,33.9503896 53.2970611,30.475 61.7125,30.475 C70.1279389,30.475 76.95,33.9503896 76.95,38.2375 C76.95,42.5246104 70.1279389,46 61.7125,46 Z M92.7625,30.475 C84.3470611,30.475 77.525,26.9996104 77.525,22.7125 C77.525,18.4253896 84.3470611,14.95 92.7625,14.95 C101.177939,14.95 108,18.4253896 108,22.7125 C108,26.9996104 101.177939,30.475 92.7625,30.475 Z" id="Combined-Shape" fill="#DCDCDC"></path>
            </g>
        </g>
    </g>
</svg>