<?xml version="1.0" encoding="UTF-8"?>
<svg width="102px" height="24px" viewBox="0 0 102 24" version="1.1" xmlns="http://www.w3.org/2000/svg" xmlns:xlink="http://www.w3.org/1999/xlink">
    <!-- Generator: Sketch 52.5 (67469) - http://www.bohemiancoding.com/sketch -->
    <title>logo.kirby</title>
    <desc>Created with Sketch.</desc>
    <defs>
        <ellipse id="path-1" cx="16.1564885" cy="16.3035714" rx="16.1564885" ry="16.3035714"></ellipse>
    </defs>
    <g id="Brand-Exploration" stroke="none" stroke-width="1" fill="none" fill-rule="evenodd">
        <g id="Artboard-Copy-13" transform="translate(-30.000000, -21.000000)">
            <g id="logo.kirby" transform="translate(30.000000, 12.000000)">
                <g id="Group-2-Clipped">
                    <path d="M58.4623511,27.8928571 L54.5007023,27.8928571 L48.2716947,19.646 L48.2716947,27.8928571 L44.8332824,27.8928571 L44.8332824,10.2928571 L48.2716947,10.2928571 L48.2716947,18.062 L54.251542,10.2928571 L58.2131908,10.2928571 L51.7599389,18.8414286 L58.4623511,27.8928571 Z M61.601771,13.8128571 C61.0702263,13.8128571 60.6092844,13.6159067 60.2189313,13.222 C59.8285782,12.8280933 59.6334046,12.3629551 59.6334046,11.8265714 C59.6334046,11.2901878 59.8285782,10.8208592 60.2189313,10.4185714 C60.6092844,10.0162837 61.0702263,9.81514286 61.601771,9.81514286 C62.1499264,9.81514286 62.6191736,10.0162837 63.0095267,10.4185714 C63.3998798,10.8208592 63.5950534,11.2901878 63.5950534,11.8265714 C63.5950534,12.3629551 63.3998798,12.8280933 63.0095267,13.222 C62.6191736,13.6159067 62.1499264,13.8128571 61.601771,13.8128571 Z M60.007145,27.8928571 L60.007145,15.3214286 L63.221313,15.3214286 L63.221313,27.8928571 L60.007145,27.8928571 Z M69.3755725,17.4837143 C69.6745664,16.6791388 70.1687294,16.0757163 70.8580763,15.6734286 C71.5474233,15.2711408 72.3156599,15.07 73.1628092,15.07 L73.1628092,18.6905714 C72.1827737,18.5732375 71.3065687,18.7743784 70.5341679,19.294 C69.7617671,19.8136216 69.3755725,20.6768511 69.3755725,21.8837143 L69.3755725,27.8928571 L66.1614046,27.8928571 L66.1614046,15.3214286 L69.3755725,15.3214286 L69.3755725,17.4837143 Z M82.2820763,14.9694286 C83.9597641,14.9694286 85.3924215,15.610565 86.5800916,16.8928571 C87.7677617,18.1751493 88.3615878,19.7465621 88.3615878,21.6071429 C88.3615878,23.4677236 87.7677617,25.0391364 86.5800916,26.3214286 C85.3924215,27.6037207 83.9597641,28.2448571 82.2820763,28.2448571 C80.5379455,28.2448571 79.1924933,27.6330537 78.2456794,26.4094286 L78.2456794,27.8928571 L75.0315115,27.8928571 L75.0315115,10.2928571 L78.2456794,10.2928571 L78.2456794,16.8048571 C79.1924933,15.581232 80.5379455,14.9694286 82.2820763,14.9694286 Z M79.2174046,24.1717143 C79.8652246,24.8254318 80.6874454,25.1522857 81.6840916,25.1522857 C82.6807378,25.1522857 83.5071112,24.8212414 84.1632366,24.1591429 C84.8193621,23.4970443 85.1474198,22.6463861 85.1474198,21.6071429 C85.1474198,20.5678996 84.8193621,19.7172414 84.1632366,19.0551429 C83.5071112,18.3930443 82.6807378,18.062 81.6840916,18.062 C80.6874454,18.062 79.8652246,18.3930443 79.2174046,19.0551429 C78.5695845,19.7172414 78.2456794,20.5678996 78.2456794,21.6071429 C78.2456794,22.6463861 78.5695845,23.5012347 79.2174046,24.1717143 Z M98.2532519,15.3214286 L101.691664,15.3214286 L97.1569466,27.8928571 C96.5091265,29.7031519 95.6495321,31.0147578 94.5781374,31.8277143 C93.5067427,32.6406707 92.1737484,33.0052385 90.5791145,32.9214286 L90.5791145,29.9042857 C91.4428745,29.9210477 92.1280585,29.7366686 92.634687,29.3511429 C93.1413155,28.9656171 93.5441206,28.3454328 93.8431145,27.4905714 L88.7353282,15.3214286 L92.2484885,15.3214286 L95.4875725,23.7694286 L98.2532519,15.3214286 Z" id="Kirby" fill="#FFFFFF"></path>
                    <g id="Group-6">
                        <mask id="mask-2" fill="white">
                            <use xlink:href="#path-1"></use>
                        </mask>
                        <g id="path-1"></g>
                        <g id="Group-2" stroke-linejoin="round" mask="url(#mask-2)">
                            <g transform="translate(-1.946565, 9.428571)" id="Path-7">
                                <g>
                                    <path d="M0.14355916,9.71592494 C2.20872771,8.66830588 4.05746797,8.14449637 5.68977992,8.14449637 C8.65581617,8.14449637 10.8908319,9.71592494 14.1683464,9.71592494 C17.4808229,9.71592494 19.293118,8.14449637 23.1122234,8.14449637 C26.9313288,8.14449637 28.2933757,9.71592494 31.3778405,9.71592494 C33.4341503,9.71592494 35.1733434,9.19211543 36.5954198,8.14449637 L36.5954198,6.3392334 C34.5608205,7.4404355 32.8216274,7.99103655 31.3778405,7.99103655 C29.2121601,7.99103655 26.587523,6.3392334 23.1122234,6.3392334 C19.6369238,6.3392334 16.7792372,7.99103655 14.1683464,7.99103655 C11.5574556,7.99103655 8.55114784,6.3392334 5.68977992,6.3392334 C3.78220131,6.3392334 1.93346106,6.88983445 0.14355916,7.99103655 L0.14355916,9.71592494 Z" id="Path" fill="#FFFFFF"></path>
                                    <g id="Group-4" transform="translate(0.000000, 9.821429)" fill="#FFFFFF">
                                        <path d="M0.14355916,3.43021066 C2.20872771,2.3825916 4.05746797,1.85878209 5.68977992,1.85878209 C8.65581617,1.85878209 10.8908319,3.43021066 14.1683464,3.43021066 C17.4808229,3.43021066 19.293118,1.85878209 23.1122234,1.85878209 C26.9313288,1.85878209 28.2933757,3.43021066 31.3778405,3.43021066 C33.4341503,3.43021066 35.1733434,2.90640115 36.5954198,1.85878209 L36.5954198,0.0535191127 C34.5608205,1.15472121 32.8216274,1.70532227 31.3778405,1.70532227 C29.2121601,1.70532227 26.587523,0.0535191127 23.1122234,0.0535191127 C19.6369238,0.0535191127 16.7792372,1.70532227 14.1683464,1.70532227 C11.5574556,1.70532227 8.55114784,0.0535191127 5.68977992,0.0535191127 C3.78220131,0.0535191127 1.93346106,0.604120164 0.14355916,1.70532227 L0.14355916,3.43021066 Z" id="Path"></path>
                                        <path d="M0.14355916,4.21592494 C2.20872771,3.16830588 4.05746797,2.64449637 5.68977992,2.64449637 C8.65581617,2.64449637 10.8908319,4.21592494 14.1683464,4.21592494 C17.4808229,4.21592494 19.293118,2.64449637 23.1122234,2.64449637 C26.9313288,2.64449637 28.2933757,4.21592494 31.3778405,4.21592494 C33.4341503,4.21592494 35.1733434,3.69211543 36.5954198,2.64449637 L36.5954198,0.839233398 C34.5608205,1.9404355 32.8216274,2.49103655 31.3778405,2.49103655 C29.2121601,2.49103655 26.587523,0.839233398 23.1122234,0.839233398 C19.6369238,0.839233398 16.7792372,2.49103655 14.1683464,2.49103655 C11.5574556,2.49103655 8.55114784,0.839233398 5.68977992,0.839233398 C3.78220131,0.839233398 1.93346106,1.38983445 0.14355916,2.49103655 L0.14355916,4.21592494 Z" id="Path"></path>
                                    </g>
                                    <g id="Group-4" transform="translate(0.000000, 13.357143)" fill="#FFFFFF">
                                        <path d="M0.14355916,3.43021066 C2.20872771,2.3825916 4.05746797,1.85878209 5.68977992,1.85878209 C8.65581617,1.85878209 10.8908319,3.43021066 14.1683464,3.43021066 C17.4808229,3.43021066 19.293118,1.85878209 23.1122234,1.85878209 C26.9313288,1.85878209 28.2933757,3.43021066 31.3778405,3.43021066 C33.4341503,3.43021066 35.1733434,2.90640115 36.5954198,1.85878209 L36.5954198,0.0535191127 C34.5608205,1.15472121 32.8216274,1.70532227 31.3778405,1.70532227 C29.2121601,1.70532227 26.587523,0.0535191127 23.1122234,0.0535191127 C19.6369238,0.0535191127 16.7792372,1.70532227 14.1683464,1.70532227 C11.5574556,1.70532227 8.55114784,0.0535191127 5.68977992,0.0535191127 C3.78220131,0.0535191127 1.93346106,0.604120164 0.14355916,1.70532227 L0.14355916,3.43021066 Z" id="Path"></path>
                                        <path d="M0.14355916,5.00163923 C2.20872771,3.95402017 4.05746797,3.43021066 5.68977992,3.43021066 C8.65581617,3.43021066 10.8908319,5.00163923 14.1683464,5.00163923 C17.4808229,5.00163923 19.293118,3.43021066 23.1122234,3.43021066 C26.9313288,3.43021066 28.2933757,5.00163923 31.3778405,5.00163923 C33.4341503,5.00163923 35.1733434,4.47782972 36.5954198,3.43021066 L36.5954198,1.62494768 C34.5608205,2.72614979 32.8216274,3.27675084 31.3778405,3.27675084 C29.2121601,3.27675084 26.587523,1.62494768 23.1122234,1.62494768 C19.6369238,1.62494768 16.7792372,3.27675084 14.1683464,3.27675084 C11.5574556,3.27675084 8.55114784,1.62494768 5.68977992,1.62494768 C3.78220131,1.62494768 1.93346106,2.17554874 0.14355916,3.27675084 L0.14355916,5.00163923 Z" id="Path"></path>
                                    </g>
                                    <g id="Group-4" transform="translate(0.000000, 17.678571)" fill="#FFFFFF">
                                        <path d="M0.14355916,3.43021066 C2.20872771,2.3825916 4.05746797,1.85878209 5.68977992,1.85878209 C8.65581617,1.85878209 10.8908319,3.43021066 14.1683464,3.43021066 C17.4808229,3.43021066 19.293118,1.85878209 23.1122234,1.85878209 C26.9313288,1.85878209 28.2933757,3.43021066 31.3778405,3.43021066 C33.4341503,3.43021066 35.1733434,2.90640115 36.5954198,1.85878209 L36.5954198,0.0535191127 C34.5608205,1.15472121 32.8216274,1.70532227 31.3778405,1.70532227 C29.2121601,1.70532227 26.587523,0.0535191127 23.1122234,0.0535191127 C19.6369238,0.0535191127 16.7792372,1.70532227 14.1683464,1.70532227 C11.5574556,1.70532227 8.55114784,0.0535191127 5.68977992,0.0535191127 C3.78220131,0.0535191127 1.93346106,0.604120164 0.14355916,1.70532227 L0.14355916,3.43021066 Z" id="Path"></path>
                                        <path d="M0.14355916,5.00163923 C2.20872771,3.95402017 4.05746797,3.43021066 5.68977992,3.43021066 C8.65581617,3.43021066 10.8908319,5.00163923 14.1683464,5.00163923 C17.4808229,5.00163923 19.293118,3.43021066 23.1122234,3.43021066 C26.9313288,3.43021066 28.2933757,5.00163923 31.3778405,5.00163923 C33.4341503,5.00163923 35.1733434,4.47782972 36.5954198,3.43021066 L36.5954198,1.62494768 C34.5608205,2.72614979 32.8216274,3.27675084 31.3778405,3.27675084 C29.2121601,3.27675084 26.587523,1.62494768 23.1122234,1.62494768 C19.6369238,1.62494768 16.7792372,3.27675084 14.1683464,3.27675084 C11.5574556,3.27675084 8.55114784,1.62494768 5.68977992,1.62494768 C3.78220131,1.62494768 1.93346106,2.17554874 0.14355916,3.27675084 L0.14355916,5.00163923 Z" id="Path"></path>
                                        <path d="M0.14355916,6.5730678 C2.20872771,5.52544874 4.05746797,5.00163923 5.68977992,5.00163923 C8.65581617,5.00163923 10.8908319,6.5730678 14.1683464,6.5730678 C17.4808229,6.5730678 19.293118,5.00163923 23.1122234,5.00163923 C26.9313288,5.00163923 28.2933757,6.5730678 31.3778405,6.5730678 C33.4341503,6.5730678 35.1733434,6.04925829 36.5954198,5.00163923 L36.5954198,3.19637626 C34.5608205,4.29757836 32.8216274,4.84817941 31.3778405,4.84817941 C29.2121601,4.84817941 26.587523,3.19637626 23.1122234,3.19637626 C19.6369238,3.19637626 16.7792372,4.84817941 14.1683464,4.84817941 C11.5574556,4.84817941 8.55114784,3.19637626 5.68977992,3.19637626 C3.78220131,3.19637626 1.93346106,3.74697731 0.14355916,4.84817941 L0.14355916,6.5730678 Z" id="Path"></path>
                                        <path d="M0.14355916,7.35878209 C2.20872771,6.31116303 4.05746797,5.78735352 5.68977992,5.78735352 C8.65581617,5.78735352 10.8908319,7.35878209 14.1683464,7.35878209 C17.4808229,7.35878209 19.293118,5.78735352 23.1122234,5.78735352 C26.9313288,5.78735352 28.2933757,7.35878209 31.3778405,7.35878209 C33.4341503,7.35878209 35.1733434,6.83497258 36.5954198,5.78735352 L36.5954198,3.98209054 C34.5608205,5.08329264 32.8216274,5.63389369 31.3778405,5.63389369 C29.2121601,5.63389369 26.587523,3.98209054 23.1122234,3.98209054 C19.6369238,3.98209054 16.7792372,5.63389369 14.1683464,5.63389369 C11.5574556,5.63389369 8.55114784,3.98209054 5.68977992,3.98209054 C3.78220131,3.98209054 1.93346106,4.53269159 0.14355916,5.63389369 L0.14355916,7.35878209 Z" id="Path"></path>
                                    </g>
                                    <g id="Group-3" fill="#FFFFFF">
                                        <path d="M0.14355916,5.78735352 C2.20872771,4.73973445 4.05746797,4.21592494 5.68977992,4.21592494 C8.65581617,4.21592494 10.8908319,5.78735352 14.1683464,5.78735352 C17.4808229,5.78735352 19.293118,4.21592494 23.1122234,4.21592494 C26.9313288,4.21592494 28.2933757,5.78735352 31.3778405,5.78735352 C33.4341503,5.78735352 35.1733434,5.263544 36.5954198,4.21592494 L36.5954198,3.4553397 C34.5608205,4.55654181 32.8216274,5.10714286 31.3778405,5.10714286 C29.2121601,5.10714286 26.587523,3.4553397 23.1122234,3.4553397 C19.6369238,3.4553397 16.7792372,5.10714286 14.1683464,5.10714286 C11.5574556,5.10714286 8.55114784,3.4553397 5.68977992,3.4553397 C3.78220131,3.4553397 1.93346106,4.00594076 0.14355916,5.10714286 L0.14355916,5.78735352 Z" id="Path"></path>
                                        <path d="M0.14355916,5.39449637 C2.20872771,4.34687731 4.05746797,3.8230678 5.68977992,3.8230678 C8.65581617,3.8230678 10.8908319,5.39449637 14.1683464,5.39449637 C17.4808229,5.39449637 19.293118,3.8230678 23.1122234,3.8230678 C26.9313288,3.8230678 28.2933757,5.39449637 31.3778405,5.39449637 C33.4341503,5.39449637 35.1733434,4.87068686 36.5954198,3.8230678 L36.5954198,3.06248256 C34.5608205,4.16368466 32.8216274,4.71428571 31.3778405,4.71428571 C29.2121601,4.71428571 26.587523,3.06248256 23.1122234,3.06248256 C19.6369238,3.06248256 16.7792372,4.71428571 14.1683464,4.71428571 C11.5574556,4.71428571 8.55114784,3.06248256 5.68977992,3.06248256 C3.78220131,3.06248256 1.93346106,3.61308361 0.14355916,4.71428571 L0.14355916,5.39449637 Z" id="Path"></path>
                                        <path d="M0.14355916,2.64449637 C2.20872771,1.59687731 4.05746797,1.0730678 5.68977992,1.0730678 C8.65581617,1.0730678 10.8908319,2.64449637 14.1683464,2.64449637 C17.4808229,2.64449637 19.293118,1.0730678 23.1122234,1.0730678 C26.9313288,1.0730678 28.2933757,2.64449637 31.3778405,2.64449637 C33.4341503,2.64449637 35.1733434,2.12068686 36.5954198,1.0730678 L36.5954198,0.312482561 C34.5608205,1.41368466 32.8216274,1.96428571 31.3778405,1.96428571 C29.2121601,1.96428571 26.587523,0.312482561 23.1122234,0.312482561 C19.6369238,0.312482561 16.7792372,1.96428571 14.1683464,1.96428571 C11.5574556,1.96428571 8.55114784,0.312482561 5.68977992,0.312482561 C3.78220131,0.312482561 1.93346106,0.863083612 0.14355916,1.96428571 L0.14355916,2.64449637 Z" id="Path"></path>
                                    </g>
                                    <path d="M0.14355916,26.6087821 C2.20872771,25.561163 4.05746797,25.0373535 5.68977992,25.0373535 C8.65581617,25.0373535 10.8908319,26.6087821 14.1683464,26.6087821 C17.4808229,26.6087821 19.293118,25.0373535 23.1122234,25.0373535 C26.9313288,25.0373535 28.2933757,26.6087821 31.3778405,26.6087821 C33.4341503,26.6087821 35.1733434,26.0849726 36.5954198,25.0373535 L36.5954198,23.2320905 C34.5608205,24.3332926 32.8216274,24.8838937 31.3778405,24.8838937 C29.2121601,24.8838937 26.587523,23.2320905 23.1122234,23.2320905 C19.6369238,23.2320905 16.7792372,24.8838937 14.1683464,24.8838937 C11.5574556,24.8838937 8.55114784,23.2320905 5.68977992,23.2320905 C3.78220131,23.2320905 1.93346106,23.7826916 0.14355916,24.8838937 L0.14355916,26.6087821 Z" id="Path" fill="#CEDDF5"></path>
                                </g>
                            </g>
                        </g>
                    </g>
                </g>
            </g>
        </g>
    </g>
</svg>