<svg width="171" height="79" viewBox="0 0 171 79" fill="none" xmlns="http://www.w3.org/2000/svg">
<path fill-rule="evenodd" clip-rule="evenodd" d="M13.7236 26.9637C12.5196 26.9637 11.5506 26.8917 10.7806 26.7437V14.7157C11.6036 14.5727 12.8386 14.4907 14.2216 14.4907C16.9426 14.4907 21.5066 15.2617 21.5066 20.4277C21.5066 24.6427 18.7426 26.9637 13.7236 26.9637ZM23.9876 12.7097C21.8056 10.7457 18.4856 9.74969 14.1226 9.74969C11.1376 9.74969 8.29862 9.97069 5.68362 10.4077L5.14062 10.4987V44.9257H10.7806V31.5947C11.6946 31.7317 12.6776 31.7547 13.6236 31.7547C18.1986 31.7547 22.0166 30.3707 24.3676 27.8657C26.2116 25.9687 27.1456 23.3987 27.1456 20.2287C27.1456 17.1427 26.0206 14.4687 23.9876 12.7097Z" fill="#253C80"/>
<path fill-rule="evenodd" clip-rule="evenodd" d="M34.3099 27.3162C35.5719 27.3162 36.5869 27.6992 37.3279 28.4532C38.4039 29.5482 38.6579 31.1462 38.7099 32.0512H29.4609C29.8569 30.0652 31.2119 27.3162 34.3099 27.3162ZM34.5929 23.7122C28.8729 23.7122 24.8779 28.2742 24.8779 34.8052C24.8779 41.1502 28.8659 45.2492 35.0389 45.2492C38.2269 45.2492 40.4599 44.5412 41.7729 43.9462L42.1679 43.7682L41.3169 40.1892L40.7429 40.4322C39.5539 40.9372 38.0989 41.4032 35.5229 41.4032C33.7529 41.4032 29.6999 40.8302 29.3529 35.6552H43.0389L43.1099 35.0262C43.1519 34.6692 43.2149 34.1272 43.2149 33.4692C43.2149 26.2682 38.5699 23.7122 34.5929 23.7122Z" fill="#253C80"/>
<path fill-rule="evenodd" clip-rule="evenodd" d="M54.8317 23.7126C52.0047 23.7126 49.9467 24.9816 48.7097 26.4556L48.5667 24.1586H44.3457L44.3877 24.7246C44.5007 26.2236 44.5497 27.7976 44.5497 29.9886V44.8036H49.1647V32.4976C49.1647 31.9256 49.2417 31.3876 49.3857 30.9926C49.8837 29.3646 51.3977 27.7206 53.6577 27.7206C56.9697 27.7206 57.6647 30.5826 57.6647 32.9836V44.8036H62.2807V32.5786C62.2807 28.4886 60.3297 23.7126 54.8317 23.7126Z" fill="#253C80"/>
<path fill-rule="evenodd" clip-rule="evenodd" d="M75.2721 23.7126C72.4431 23.7126 70.3861 24.9816 69.1511 26.4556L69.0081 24.1586H64.7871L64.8291 24.7246C64.9411 26.2256 64.9891 27.7996 64.9891 29.9886V44.8036H69.6061V32.4976C69.6061 31.9246 69.6831 31.3866 69.8271 30.9926C70.3241 29.3636 71.8371 27.7206 74.0981 27.7206C77.4091 27.7206 78.1041 30.5826 78.1041 32.9836V44.8036H82.7211V32.5786C82.7211 28.4886 80.7701 23.7126 75.2721 23.7126Z" fill="#253C80"/>
<path fill-rule="evenodd" clip-rule="evenodd" d="M97.1155 24.1587L93.1096 36.0117C92.8186 36.8597 92.5536 37.7467 92.3156 38.5517C92.0676 37.7477 91.7866 36.8837 91.5106 36.0787L87.0936 24.1587H82.0605L89.5905 42.9157C89.6535 43.0917 89.8006 43.5037 89.8006 43.6707C89.7996 43.7747 89.6456 44.1197 89.5636 44.3057C88.9096 45.7747 87.8475 47.1837 86.7095 48.0857C85.5045 49.1047 84.2536 49.5717 83.7726 49.7257L83.2785 49.8827L84.4526 53.8277L84.9185 53.7417C85.4745 53.6397 87.4506 53.1637 89.5386 51.3147C91.9166 49.2557 93.6495 46.1077 96.4065 38.8387L102.023 24.1587H97.1155Z" fill="#253C80"/>
<path fill-rule="evenodd" clip-rule="evenodd" d="M123.154 16.4687L118.166 30.0157C117.102 33.0317 116.326 35.4257 115.736 37.5247C115.163 35.4007 114.422 33.0087 113.412 30.0157L108.633 16.4687H103.274L101.298 44.8037H105.719L106.479 32.6097C106.651 29.7127 106.799 26.6487 106.901 23.9097C107.498 26.0277 108.25 28.4157 109.218 31.2907L113.751 44.6417H117.171L122.113 31.0607C123.055 28.5117 123.913 26.0077 124.679 23.5827C124.746 26.4337 124.915 29.6187 125.059 32.3257L125.775 44.8037H130.274L128.509 16.4687H123.154Z" fill="#253C80"/>
<path fill-rule="evenodd" clip-rule="evenodd" d="M142.977 34.8003H143.028V37.6803C143.028 37.9613 142.966 38.3043 142.853 38.6423C142.395 39.9913 141.01 41.5653 138.616 41.5653C136.842 41.5653 135.783 40.4903 135.783 38.6913C135.783 36.1093 138.203 34.8003 142.977 34.8003ZM147.522 39.5823V32.2533C147.522 26.6663 144.765 23.7123 139.548 23.7123C137.059 23.7123 134.609 24.3783 132.824 25.5383L132.478 25.7633L133.644 29.1373L134.209 28.7703C135.534 27.9113 137.333 27.3983 139.022 27.3983C141.623 27.3983 142.907 28.6703 142.945 31.2843C132.708 31.3913 131.167 36.2113 131.167 39.0963C131.167 42.1543 133.406 45.2493 137.685 45.2493C139.911 45.2493 141.973 44.4083 143.399 42.9563L143.612 44.8033H147.952L147.838 44.1813C147.626 43.0163 147.522 41.5123 147.522 39.5823Z" fill="#253C80"/>
<path fill-rule="evenodd" clip-rule="evenodd" d="M159.824 27.6405C161.774 27.6405 163.005 28.1095 163.694 28.5025L164.273 28.8335L165.395 25.0185L165 24.8205C164.017 24.3285 162.07 23.7545 159.824 23.7545C153.319 23.7545 148.775 28.2485 148.775 34.6835C148.775 41.0035 152.907 45.2495 159.056 45.2495C161.642 45.2495 163.784 44.6125 164.926 44.0165L165.287 43.8285L164.449 40.1385L163.865 40.3945C162.844 40.8435 161.597 41.3225 159.704 41.3225C155.952 41.3225 153.431 38.5895 153.431 34.5215C153.431 30.3415 155.94 27.6405 159.824 27.6405Z" fill="#253C80"/>
<mask id="mask0" mask-type="alpha" maskUnits="userSpaceOnUse" x="166" y="18" width="5" height="6">
<path d="M166.074 18.9861H170.672V23.8561H166.074V18.9861Z" fill="white"/>
</mask>
<g mask="url(#mask0)">
<path fill-rule="evenodd" clip-rule="evenodd" d="M168.59 23.3521C167.51 23.3521 166.695 22.4941 166.695 21.4141C166.695 20.3481 167.51 19.4741 168.56 19.4741C169.641 19.4741 170.44 20.3481 170.44 21.4281C170.44 22.4941 169.641 23.3681 168.59 23.3521ZM168.59 18.9861C167.184 18.9861 166.074 20.0521 166.074 21.4141C166.074 22.7761 167.184 23.8561 168.574 23.8561C169.966 23.8561 171.061 22.7761 171.061 21.4141C171.061 20.0521 169.966 18.9861 168.59 18.9861Z" fill="#253C80"/>
</g>
<path fill-rule="evenodd" clip-rule="evenodd" d="M168.472 21.3095H168.206V20.6145C168.265 20.5995 168.368 20.5845 168.516 20.5845C168.872 20.5845 169.035 20.7325 169.035 20.9555C169.035 21.2065 168.782 21.3095 168.472 21.3095ZM169.138 21.4875V21.4585C169.419 21.3695 169.642 21.1765 169.642 20.8805C169.642 20.6445 169.538 20.4665 169.39 20.3625C169.228 20.2445 169.021 20.1705 168.56 20.1705C168.161 20.1705 167.85 20.2145 167.628 20.2445V22.6715H168.19V21.7095H168.457C168.768 21.7095 168.916 21.8285 168.96 22.0795C169.035 22.3755 169.079 22.5835 169.152 22.6715H169.745C169.701 22.5835 169.642 22.4495 169.567 22.0795C169.493 21.7535 169.375 21.5615 169.138 21.4875Z" fill="#253C80"/>
<mask id="mask1" mask-type="alpha" maskUnits="userSpaceOnUse" x="0" y="0" width="171" height="78">
<path d="M0 77.476H170.672V0.0849609H0V77.476Z" fill="white"/>
</mask>
<g mask="url(#mask1)">
<path fill-rule="evenodd" clip-rule="evenodd" d="M45.916 10.074H51.063V0.0849609H45.916V10.074Z" fill="#253C80"/>
</g>
<path fill-rule="evenodd" clip-rule="evenodd" d="M96.4552 15.1288L69.0492 1.43078C66.8992 0.516778 63.8262 0.399778 61.7472 1.43078L34.3452 15.1288C29.5722 17.4998 36.9522 21.0058 41.6412 18.6748L65.3162 6.82878L89.1572 18.6748C93.9132 21.0388 101.102 17.4388 96.4552 15.1288Z" fill="#F9C506"/>
<mask id="mask2" mask-type="alpha" maskUnits="userSpaceOnUse" x="0" y="0" width="171" height="79">
<path d="M0 78.962H170.672V0.0839844H0V78.962Z" fill="white"/>
</mask>
<g mask="url(#mask2)">
<path d="M9.65674 77.3007H8.37529V69.0583C8.37529 68.3728 8.39639 67.7242 8.43857 67.1124C8.32783 67.2232 8.20391 67.3392 8.0668 67.4605C7.92969 67.5818 7.30215 68.0959 6.18418 69.003L5.48809 68.1012L8.54932 65.7361H9.65674V77.3007ZM13.9361 73.5592V72.3569H17.82V73.5592H13.9361ZM23.1119 65.57C24.1666 65.57 25.0024 65.8152 25.6194 66.3056C26.2364 66.796 26.5449 67.4737 26.5449 68.3385C26.5449 68.908 26.3683 69.4275 26.0149 69.8968C25.6616 70.3661 25.0974 70.7933 24.3222 71.1783C25.2608 71.6265 25.9279 72.0985 26.3234 72.5942C26.7189 73.0846 26.9167 73.6541 26.9167 74.3028C26.9167 75.2625 26.5818 76.0298 25.9121 76.6046C25.2424 77.1742 24.3248 77.4589 23.1594 77.4589C21.9254 77.4589 20.9762 77.19 20.3117 76.6521C19.6473 76.1089 19.315 75.3416 19.315 74.3502C19.315 73.0266 20.1219 71.9956 21.7355 71.2574C21.0078 70.846 20.4857 70.4031 20.1693 69.9285C19.8529 69.4486 19.6947 68.9133 19.6947 68.3227C19.6947 67.4842 20.0032 66.8171 20.6202 66.3214C21.2425 65.8204 22.073 65.57 23.1119 65.57ZM20.6123 74.3819C20.6123 75.0147 20.8312 75.5078 21.2688 75.8611C21.7118 76.2144 22.3314 76.3911 23.1277 76.3911C23.9135 76.3911 24.5252 76.2065 24.9629 75.8373C25.4006 75.4682 25.6194 74.962 25.6194 74.3186C25.6194 73.8071 25.4138 73.3536 25.0024 72.958C24.5911 72.5573 23.8739 72.1697 22.8509 71.7953C22.0651 72.1328 21.4956 72.5072 21.1423 72.9185C20.789 73.3245 20.6123 73.8123 20.6123 74.3819ZM23.0961 66.6378C22.4369 66.6378 21.9201 66.796 21.5457 67.1124C21.1713 67.4288 20.9841 67.8507 20.9841 68.3781C20.9841 68.8632 21.1396 69.2798 21.4508 69.6279C21.7619 69.9759 22.3367 70.324 23.1752 70.672C23.9293 70.3556 24.4619 70.0155 24.773 69.6516C25.0895 69.2877 25.2477 68.8632 25.2477 68.3781C25.2477 67.8454 25.0552 67.4236 24.6702 67.1124C24.2905 66.796 23.7658 66.6378 23.0961 66.6378ZM36.219 71.5026C36.219 73.5012 35.9026 74.9936 35.2698 75.9797C34.6423 76.9659 33.6799 77.4589 32.3826 77.4589C31.1381 77.4589 30.1915 76.9553 29.5429 75.9481C28.8942 74.9356 28.5699 73.4537 28.5699 71.5026C28.5699 69.4881 28.8837 67.9931 29.5112 67.0175C30.1388 66.0419 31.0959 65.5541 32.3826 65.5541C33.6377 65.5541 34.5896 66.063 35.2382 67.0808C35.8921 68.0986 36.219 69.5725 36.219 71.5026ZM29.8988 71.5026C29.8988 73.1848 30.0966 74.4109 30.4921 75.1808C30.8876 75.9454 31.5178 76.3278 32.3826 76.3278C33.258 76.3278 33.8908 75.9402 34.2811 75.165C34.6766 74.3845 34.8743 73.1637 34.8743 71.5026C34.8743 69.8414 34.6766 68.6259 34.2811 67.856C33.8908 67.0808 33.258 66.6932 32.3826 66.6932C31.5178 66.6932 30.8876 67.0755 30.4921 67.8402C30.0966 68.5995 29.8988 69.8203 29.8988 71.5026ZM45.4897 71.5026C45.4897 73.5012 45.1733 74.9936 44.5405 75.9797C43.913 76.9659 42.9506 77.4589 41.6533 77.4589C40.4088 77.4589 39.4622 76.9553 38.8136 75.9481C38.1649 74.9356 37.8406 73.4537 37.8406 71.5026C37.8406 69.4881 38.1544 67.9931 38.7819 67.0175C39.4095 66.0419 40.3666 65.5541 41.6533 65.5541C42.9084 65.5541 43.8603 66.063 44.5089 67.0808C45.1628 68.0986 45.4897 69.5725 45.4897 71.5026ZM39.1695 71.5026C39.1695 73.1848 39.3673 74.4109 39.7628 75.1808C40.1583 75.9454 40.7885 76.3278 41.6533 76.3278C42.5287 76.3278 43.1615 75.9402 43.5518 75.165C43.9473 74.3845 44.145 73.1637 44.145 71.5026C44.145 69.8414 43.9473 68.6259 43.5518 67.856C43.1615 67.0808 42.5287 66.6932 41.6533 66.6932C40.7885 66.6932 40.1583 67.0755 39.7628 67.8402C39.3673 68.5995 39.1695 69.8203 39.1695 71.5026ZM46.9689 73.5592V72.3569H50.8528V73.5592H46.9689ZM53.7796 77.3007L58.5731 66.9463H52.2688V65.7361H59.9653V66.7881L55.2351 77.3007H53.7796ZM63.0503 77.3007L67.8438 66.9463H61.5395V65.7361H69.236V66.7881L64.5058 77.3007H63.0503ZM72.321 77.3007L77.1146 66.9463H70.8102V65.7361H78.5067V66.7881L73.7765 77.3007H72.321ZM80.0018 73.5592V72.3569H83.8857V73.5592H80.0018ZM93.4965 74.6429H91.78V77.3007H90.5223V74.6429H84.8982V73.4959L90.3878 65.6728H91.78V73.4485H93.4965V74.6429ZM90.5223 73.4485V69.6041C90.5223 68.85 90.5486 67.9984 90.6014 67.0492H90.5381C90.285 67.5554 90.0477 67.9746 89.8262 68.3069L86.2112 73.4485H90.5223ZM102.285 71.5026C102.285 73.5012 101.968 74.9936 101.335 75.9797C100.708 76.9659 99.7455 77.4589 98.4482 77.4589C97.2037 77.4589 96.2571 76.9553 95.6085 75.9481C94.9599 74.9356 94.6355 73.4537 94.6355 71.5026C94.6355 69.4881 94.9493 67.9931 95.5769 67.0175C96.2044 66.0419 97.1615 65.5541 98.4482 65.5541C99.7033 65.5541 100.655 66.063 101.304 67.0808C101.958 68.0986 102.285 69.5725 102.285 71.5026ZM95.9645 71.5026C95.9645 73.1848 96.1622 74.4109 96.5577 75.1808C96.9532 75.9454 97.5834 76.3278 98.4482 76.3278C99.3236 76.3278 99.9564 75.9402 100.347 75.165C100.742 74.3845 100.94 73.1637 100.94 71.5026C100.94 69.8414 100.742 68.6259 100.347 67.856C99.9564 67.0808 99.3236 66.6932 98.4482 66.6932C97.5834 66.6932 96.9532 67.0755 96.5577 67.8402C96.1622 68.5995 95.9645 69.8203 95.9645 71.5026ZM111.555 71.5026C111.555 73.5012 111.239 74.9936 110.606 75.9797C109.979 76.9659 109.016 77.4589 107.719 77.4589C106.474 77.4589 105.528 76.9553 104.879 75.9481C104.231 74.9356 103.906 73.4537 103.906 71.5026C103.906 69.4881 104.22 67.9931 104.848 67.0175C105.475 66.0419 106.432 65.5541 107.719 65.5541C108.974 65.5541 109.926 66.063 110.575 67.0808C111.228 68.0986 111.555 69.5725 111.555 71.5026ZM105.235 71.5026C105.235 73.1848 105.433 74.4109 105.828 75.1808C106.224 75.9454 106.854 76.3278 107.719 76.3278C108.594 76.3278 109.227 75.9402 109.617 75.165C110.013 74.3845 110.211 73.1637 110.211 71.5026C110.211 69.8414 110.013 68.6259 109.617 67.856C109.227 67.0808 108.594 66.6932 107.719 66.6932C106.854 66.6932 106.224 67.0755 105.828 67.8402C105.433 68.5995 105.235 69.8203 105.235 71.5026ZM118.026 77.3007H116.744V69.0583C116.744 68.3728 116.766 67.7242 116.808 67.1124C116.697 67.2232 116.573 67.3392 116.436 67.4605C116.299 67.5818 115.671 68.0959 114.553 69.003L113.857 68.1012L116.918 65.7361H118.026V77.3007Z" fill="#31ADDC"/>
</g>
</svg>
