<?xml version="1.0" encoding="utf-8"?>
<!-- Generator: Adobe Illustrator 19.2.1, SVG Export Plug-In . SVG Version: 6.00 Build 0)  -->
<svg version="1.1" id="Layer_1" xmlns="http://www.w3.org/2000/svg" xmlns:xlink="http://www.w3.org/1999/xlink" x="0px" y="0px"
	 viewBox="0 0 48 48" style="enable-background:new 0 0 48 48;" xml:space="preserve">
<title>01. General</title>
<path d="M44.5,3.5C42.2,1.2,39.2,0,36,0s-6.2,1.2-8.5,3.5l-24,24C1.2,29.8,0,32.8,0,36s1.2,6.2,3.5,8.5C5.8,46.8,8.8,48,12,48
	s6.2-1.2,8.5-3.5l16.2-16.2c2.7-2.7,2.7-7.2,0-9.9c-1.3-1.3-3.1-2-4.9-2c-1.9,0-3.6,0.7-4.9,2l-17,17l1.4,1.4l17-17
	c0.9-0.9,2.2-1.5,3.5-1.5c1.3,0,2.6,0.5,3.5,1.5c1.9,1.9,1.9,5.1,0,7.1L19.1,43.1C17.2,45,14.7,46,12,46c-2.7,0-5.2-1-7.1-2.9
	S2,38.7,2,36s1-5.2,2.9-7.1l24-24C30.8,3,33.3,2,36,2c2.7,0,5.2,1,7.1,2.9S46,9.3,46,12s-1,5.2-2.9,7.1l-0.4,0.4l1.4,1.4l0.4-0.4
	c2.3-2.3,3.5-5.3,3.5-8.5S46.8,5.8,44.5,3.5z"/>
</svg>
