<svg id="Layer_1" data-name="Layer 1" xmlns="http://www.w3.org/2000/svg" viewBox="0 0 48 48"><title>04. Gesture</title><rect x="23" y="8" width="2" height="13"/><rect x="29" y="8" width="2" height="12"/><rect x="35" y="12" width="2" height="11"/><path d="M39.12,8h0A3.93,3.93,0,0,0,37,8.53V8.12A4.09,4.09,0,0,0,33.12,4,4,4,0,0,0,31,4.53V4.12A4.09,4.09,0,0,0,27.12,0a3.94,3.94,0,0,0-2.91,1.13A4,4,0,0,0,23,4V4.53A4,4,0,0,0,20.88,4,4.09,4.09,0,0,0,17,8.12V23.39l-0.26,1.14a1,1,0,0,1-1.77.26l-0.59-1a7.11,7.11,0,0,0-4.33-3.57,7.17,7.17,0,0,0-5.57.94L4,22l8.87,17.15h0C16.21,44.78,21.31,48,27,48A16,16,0,0,0,43,32.08v-20A4.09,4.09,0,0,0,39.12,8ZM41,32.08A14,14,0,0,1,27,46c-5.15,0-9.78-3.09-12.71-8.47L14,37.11,6.35,22.43a4.83,4.83,0,0,1,3.19-.29,5.09,5.09,0,0,1,3.1,2.62l0.6,1A3,3,0,0,0,18.68,25L19,23.73,19,8.12A2.08,2.08,0,0,1,20.94,6a2,2,0,0,1,1.46.57A1.41,1.41,0,0,1,23,8h2V4a2,2,0,0,1,2.06-2A2.08,2.08,0,0,1,29,4.12V8h2a1.41,1.41,0,0,1,.61-1.44A2,2,0,0,1,33.06,6,2.08,2.08,0,0,1,35,8.12V12h2a1.41,1.41,0,0,1,.61-1.44A2,2,0,0,1,39.06,10,2.08,2.08,0,0,1,41,12.12v20Z"/></svg>