<svg id="Layer_1" data-name="Layer 1" xmlns="http://www.w3.org/2000/svg" viewBox="0 0 48 48"><title>14. Home - Object</title><path d="M41.31,28.79L25,25.13V25a2.07,2.07,0,0,1,1.49-2,7.73,7.73,0,0,0,5.38-8.81,7.84,7.84,0,0,0-6.5-6.12,8.51,8.51,0,0,0-6.79,2.06A6.61,6.61,0,0,0,16,16h2a5.17,5.17,0,0,1,1.88-4.3,6.47,6.47,0,0,1,5.17-1.49,5.76,5.76,0,0,1,4.85,4.47,5.63,5.63,0,0,1-4,6.49A4,4,0,0,0,23,25v0.13L6.54,28.82A8,8,0,0,0,0,36.68V40H48V36.88A8.22,8.22,0,0,0,41.31,28.79ZM46,38H2V36.68a6,6,0,0,1,4.94-5.9L24,27l16.91,3.8A6.23,6.23,0,0,1,46,36.88V38Z"/></svg>