<svg id="Layer_1" data-name="Layer 1" xmlns="http://www.w3.org/2000/svg" viewBox="0 0 48 48"><title>05. Shopoing - Financial</title><path d="M24,0A24,24,0,1,0,48,24,24,24,0,0,0,24,0Zm1,2a21.85,21.85,0,0,1,7.52,1.69L25,11.22V2Zm0,12,9.43-9.41a22.11,22.11,0,0,1,4.4,3.13L25,21.58V14ZM40.24,9.18a22.1,22.1,0,0,1,3.25,4.64L34.29,23H26.41Zm4.15,6.57A21.84,21.84,0,0,1,46,23H37.12ZM23,2V23.58L7.75,38.81A22,22,0,0,1,23,2Zm1,44A21.91,21.91,0,0,1,9.17,40.23L24.4,25H46q0,0.5-.07,1A22,22,0,0,1,24,46Z"/></svg>