<svg id="Layer_1" data-name="Layer 1" xmlns="http://www.w3.org/2000/svg" viewBox="0 0 48 48"><title>14. Home - Object</title><path d="M46,43l2-.17L45.94,18.18,45.22,18S44,17.76,42,17.43l-1-11.17-0.62-.21C40.06,6,34,4,24,4S7.94,6,7.68,6.05l-0.62.21L6,17.43C4,17.76,2.82,18,2.78,18l-0.72.16L0,42.83,2,43l0.59-7H45.41ZM8.93,7.77A58.58,58.58,0,0,1,24,6,58.58,58.58,0,0,1,39.07,7.77l0.85,9.36c-2.16-.3-4.87-0.62-8-0.84A5,5,0,0,0,27,12H21a5,5,0,0,0-4.93,4.29c-3.12.22-5.83,0.53-8,.84Zm20.93,8.39C28,16.06,26.05,16,24,16s-4,.06-5.87.16A3,3,0,0,1,21,14h6A3,3,0,0,1,29.87,16.16ZM2.75,34L3.93,19.83a110.92,110.92,0,0,1,40.13,0L45.25,34H2.75Z"/></svg>