<svg id="Layer_1" data-name="Layer 1" xmlns="http://www.w3.org/2000/svg" viewBox="0 0 48 48"><title>01. General</title><path d="M46.67,26h0l-8.42-16a5.87,5.87,0,0,0-11,3l0.06,1.34a6.15,6.15,0,0,0-6.56,0l0.06-1.34a5.86,5.86,0,0,0-11-3L1.32,26h0A10,10,0,1,0,20,31.23,4.16,4.16,0,0,1,24,29a4.16,4.16,0,0,1,4,2.23A10,10,0,1,0,46.67,26ZM30.29,10.19a3.89,3.89,0,0,1,6.21.82l5.78,11a10,10,0,0,0-12.51,3.38L29.22,13A3.82,3.82,0,0,1,30.29,10.19Zm-18.77.87a3.86,3.86,0,0,1,7.26,2L18.24,25.35A10,10,0,0,0,5.73,22ZM10,39a8,8,0,1,1,8-8A8,8,0,0,1,10,39ZM24,27a6.65,6.65,0,0,0-3.87,1.12l0.47-10.76a4.06,4.06,0,0,1,6.81,0l0.47,10.76A6.65,6.65,0,0,0,24,27ZM38,39a8,8,0,1,1,8-8A8,8,0,0,1,38,39Z"/></svg>