<?xml version="1.0" encoding="utf-8"?>
<!-- Generator: Adobe Illustrator 19.2.1, SVG Export Plug-In . SVG Version: 6.00 Build 0)  -->
<svg version="1.1" id="Layer_1" xmlns="http://www.w3.org/2000/svg" xmlns:xlink="http://www.w3.org/1999/xlink" x="0px" y="0px"
	 viewBox="0 0 48 48" style="enable-background:new 0 0 48 48;" xml:space="preserve">
<title>10. File</title>
<path d="M37.9,19C36.9,12.2,31,7,24,7c-7.7,0-14,6.3-14,14v1H9.5c-4.7,0-8.6,3.4-9.4,8H0v11h37c6.1,0,11-4.9,11-11
	C48,24.2,43.5,19.5,37.9,19z M37,39H2v-7.5l0-0.4c0.2-4,3.5-7.1,7.5-7.1H12v-3c0-6.6,5.4-12,12-12c6.2,0,11.5,4.9,12,11.1l0.1,1
	l1-0.1c5,0,9,4,9,9C46,35,42,39,37,39z"/>
</svg>
