<svg width="209" height="483" viewBox="0 0 209 483" fill="none" xmlns="http://www.w3.org/2000/svg">
<path d="M13.1951 225.364C15.2058 224.694 17.3489 224.518 19.4419 224.854C21.535 225.189 23.516 226.025 25.2166 227.29C26.0226 224.605 27.6626 222.246 29.8991 220.555C32.1356 218.864 34.8523 217.929 37.6557 217.886C40.459 217.843 43.2034 218.693 45.491 220.314C47.7786 221.935 49.4907 224.242 50.3792 226.902C52.351 232.832 51.1724 239.842 46.8719 247.732C44.0538 252.613 40.7931 257.225 37.1309 261.509L36.6943 261.812L36.1535 261.834C30.6789 260.53 25.3177 258.788 20.1217 256.626C11.7761 252.951 6.91607 248.318 4.83064 242.045C3.73197 238.724 3.9956 235.103 5.5637 231.975C7.13179 228.848 9.87629 226.471 13.1951 225.364ZM20.9389 254.805C25.8272 256.836 30.8646 258.487 36.0065 259.743C39.4173 255.698 42.464 251.36 45.1113 246.779C49.1362 239.392 50.2702 232.913 48.4813 227.533C47.6935 225.155 46.1306 223.11 44.0428 221.725C41.9549 220.341 39.4629 219.697 36.9658 219.897C34.4687 220.097 32.1108 221.129 30.2699 222.828C28.4289 224.527 27.2113 226.795 26.812 229.268L26.5007 231.152L25.1229 229.829C23.3223 228.088 20.9894 227.001 18.4976 226.742C16.0059 226.484 13.4995 227.069 11.3797 228.404C9.25999 229.739 7.64953 231.747 6.80623 234.106C5.96293 236.464 5.93555 239.038 6.7285 241.414C8.62147 247.108 13.1371 251.371 20.9294 254.808L20.9389 254.805Z" fill="#F1AC00"/>
<path d="M183.611 413.596L151.305 425.971L141.741 454.364C140.725 457.38 140.949 460.676 142.363 463.527C143.778 466.378 146.267 468.551 149.283 469.567L177.082 478.93C180.098 479.946 183.394 479.722 186.245 478.308C189.096 476.893 191.268 474.404 192.284 471.388L201.848 442.996L183.611 413.596ZM169.088 473.424L158.979 470.019L164.086 454.856L174.195 458.261L169.088 473.424ZM189.757 470.537C188.967 472.883 187.277 474.819 185.06 475.919C182.842 477.019 180.279 477.193 177.933 476.403L171.615 474.275L177.573 456.585L162.411 451.477L156.452 469.167L150.134 467.039C147.788 466.249 145.852 464.56 144.752 462.342C143.652 460.125 143.478 457.561 144.268 455.215L153.432 428.01L182.501 416.894L198.921 443.332L189.757 470.537Z" fill="#003087"/>
<g opacity="0.3">
<path opacity="0.3" d="M112.89 274.132L129.101 270.288L150.95 362.426L134.739 366.27L112.89 274.132Z" fill="#2D2D2D" stroke="#2D2D2D" stroke-width="3" stroke-miterlimit="10" stroke-linecap="round" stroke-linejoin="round"/>
<path opacity="0.3" d="M95.8046 212.539L116.666 207.592L131.404 269.742L110.543 274.689L95.8046 212.539Z" fill="#2D2D2D" stroke="#2D2D2D" stroke-width="3" stroke-miterlimit="10" stroke-linecap="round" stroke-linejoin="round"/>
<path opacity="0.3" d="M98.1515 211.982L114.363 208.138L114.126 207.139C113.064 202.662 108.548 199.877 104.071 200.939C99.5945 202 96.8095 206.517 97.871 210.993L98.1081 211.993L98.1515 211.982Z" fill="#2D2D2D" stroke="#2D2D2D" stroke-width="3" stroke-miterlimit="10" stroke-linecap="round" stroke-linejoin="round"/>
<path opacity="0.3" d="M125.016 215.895L134.219 254.706" stroke="#2D2D2D" stroke-width="3" stroke-miterlimit="10" stroke-linecap="round" stroke-linejoin="round"/>
<path opacity="0.3" d="M120.459 223.586L126.5 222.153" stroke="#2D2D2D" stroke-width="3" stroke-miterlimit="10" stroke-linecap="round" stroke-linejoin="round"/>
<path opacity="0.3" d="M136.651 365.816C137.465 369.25 140.906 371.372 144.34 370.557C147.773 369.743 149.895 366.302 149.081 362.869L136.651 365.816Z" fill="#2D2D2D" stroke="#2D2D2D" stroke-width="3" stroke-miterlimit="10" stroke-linecap="round" stroke-linejoin="round"/>
</g>
<path d="M115.77 268.858L131.981 265.014L153.831 357.152L137.62 360.996L115.77 268.858Z" fill="#00B3C6"/>
<path opacity="0.5" d="M115.727 268.868L121.638 267.467L143.487 359.605L137.576 361.006L115.727 268.868Z" fill="#00B3C6"/>
<path opacity="0.35" d="M126.158 266.395L131.981 265.014L153.831 357.152L148.007 358.533L126.158 266.395Z" fill="#00B3C6"/>
<path d="M115.77 268.858L131.981 265.014L153.831 357.152L137.62 360.996L115.77 268.858Z" stroke="#330E00" stroke-width="3" stroke-miterlimit="10" stroke-linecap="round" stroke-linejoin="round"/>
<path d="M98.6855 207.265L119.547 202.318L134.285 264.468L113.423 269.415L98.6855 207.265Z" fill="#565656"/>
<path opacity="0.27" d="M113.332 203.792L119.547 202.318L134.285 264.468L128.07 265.942L113.332 203.792Z" fill="#565656"/>
<path opacity="0.27" d="M98.9901 207.193L105.205 205.719L119.943 267.869L113.728 269.343L98.9901 207.193Z" fill="#565656"/>
<path d="M98.6855 207.265L119.547 202.318L134.285 264.468L113.423 269.415L98.6855 207.265Z" stroke="#330E00" stroke-width="3" stroke-miterlimit="10" stroke-linecap="round" stroke-linejoin="round"/>
<path d="M101.032 206.709L117.243 202.864L117.006 201.865C115.945 197.388 111.428 194.603 106.952 195.665C102.475 196.726 99.6903 201.243 100.752 205.719L100.989 206.719L101.032 206.709Z" fill="#00B3C6"/>
<path d="M101.032 206.709L117.243 202.864L117.006 201.865C115.945 197.388 111.428 194.603 106.952 195.665C102.475 196.726 99.6903 201.243 100.752 205.719L100.989 206.719L101.032 206.709Z" stroke="#330E00" stroke-width="3" stroke-miterlimit="10" stroke-linecap="round" stroke-linejoin="round"/>
<path d="M127.896 210.621L137.1 249.432" stroke="#330E00" stroke-width="3" stroke-miterlimit="10" stroke-linecap="round" stroke-linejoin="round"/>
<path d="M123.34 218.312L129.381 216.879" stroke="#330E00" stroke-width="3" stroke-miterlimit="10" stroke-linecap="round" stroke-linejoin="round"/>
<path d="M139.532 360.543C140.346 363.976 143.787 366.098 147.221 365.284C150.654 364.47 152.776 361.028 151.962 357.595L139.532 360.543Z" fill="#565656"/>
<path d="M139.532 360.543C140.346 363.976 143.787 366.098 147.221 365.284C150.654 364.47 152.776 361.028 151.962 357.595L139.532 360.543Z" stroke="#330E00" stroke-width="3" stroke-miterlimit="10" stroke-linecap="round" stroke-linejoin="round"/>
<path d="M137.63 315.547L145.957 350.664" stroke="#330E00" stroke-width="3" stroke-miterlimit="10" stroke-linecap="round" stroke-linejoin="round"/>
<path d="M115.77 268.858L131.981 265.014L153.831 357.152L137.62 360.996L115.77 268.858Z" stroke="#330E00" stroke-width="3" stroke-miterlimit="10" stroke-linecap="round" stroke-linejoin="round"/>
<path d="M98.6855 207.265L119.547 202.318L134.285 264.468L113.423 269.415L98.6855 207.265Z" stroke="#330E00" stroke-width="3" stroke-miterlimit="10" stroke-linecap="round" stroke-linejoin="round"/>
<path d="M101.032 206.709L117.243 202.864L117.006 201.865C115.945 197.388 111.428 194.603 106.952 195.665C102.475 196.726 99.6903 201.243 100.752 205.719L100.989 206.719L101.032 206.709Z" stroke="#330E00" stroke-width="3" stroke-miterlimit="10" stroke-linecap="round" stroke-linejoin="round"/>
<path d="M127.896 210.621L137.1 249.432" stroke="#330E00" stroke-width="3" stroke-miterlimit="10" stroke-linecap="round" stroke-linejoin="round"/>
<path d="M123.34 218.312L129.381 216.879" stroke="#330E00" stroke-width="3" stroke-miterlimit="10" stroke-linecap="round" stroke-linejoin="round"/>
<path d="M139.532 360.543C140.346 363.976 143.787 366.098 147.221 365.284C150.654 364.47 152.776 361.028 151.962 357.595L139.532 360.543Z" stroke="#330E00" stroke-width="3" stroke-miterlimit="10" stroke-linecap="round" stroke-linejoin="round"/>
<g opacity="0.3">
<path opacity="0.3" d="M74.307 177.301L50.0845 159.671C46.089 156.774 45.19 151.131 48.0867 147.135L127.946 37.2096C130.843 33.2141 136.487 32.3151 140.482 35.2119L164.705 52.8419C168.7 55.7386 169.599 61.3822 166.702 65.3777L86.8428 175.303C83.9461 179.299 78.3025 180.198 74.307 177.301Z" fill="#2D2D2D" stroke="#2D2D2D" stroke-width="3" stroke-miterlimit="10" stroke-linecap="round" stroke-linejoin="round"/>
<path opacity="0.3" d="M85.3445 163.417H55.3785C50.4341 163.417 46.3887 159.371 46.3887 154.427V18.5808C46.3887 13.6364 50.4341 9.59094 55.3785 9.59094H85.3445C90.2889 9.59094 94.3344 13.6364 94.3344 18.5808V154.427C94.3344 159.421 90.3389 163.417 85.3445 163.417Z" fill="#2D2D2D" stroke="#2D2D2D" stroke-width="3" stroke-miterlimit="10" stroke-linecap="round" stroke-linejoin="round"/>
<path opacity="0.3" d="M81.699 171.008L52.8816 162.767C48.0871 161.419 45.3402 156.425 46.7386 151.63L84.1962 21.028C85.5447 16.2334 90.539 13.4866 95.3336 14.885L124.151 23.1256C128.945 24.4741 131.692 29.4684 130.294 34.263L92.8364 164.865C91.438 169.61 86.4936 172.357 81.699 171.008Z" fill="#2D2D2D" stroke="#2D2D2D" stroke-width="3" stroke-miterlimit="10" stroke-linecap="round" stroke-linejoin="round"/>
</g>
<path d="M71.81 169.31L47.5874 151.68C43.5919 148.783 42.6929 143.14 45.5897 139.144L125.449 29.2188C128.346 25.2233 133.99 24.3243 137.985 27.221L162.208 44.8511C166.203 47.7478 167.102 53.3914 164.205 57.3868L84.3458 167.312C81.449 171.308 75.8054 172.207 71.81 169.31Z" fill="white"/>
<path d="M71.81 169.31L47.5874 151.68C43.5919 148.783 42.6929 143.14 45.5897 139.144L125.449 29.2188C128.346 25.2233 133.99 24.3243 137.985 27.221L162.208 44.8511C166.203 47.7478 167.102 53.3914 164.205 57.3868L84.3458 167.312C81.449 171.308 75.8054 172.207 71.81 169.31Z" stroke="#330E00" stroke-width="3" stroke-miterlimit="10" stroke-linecap="round" stroke-linejoin="round"/>
<path d="M111.366 130.104L72.5596 101.936L125.4 29.2188C128.296 25.2233 133.94 24.3243 137.936 27.221L162.158 44.8511C166.154 47.7478 167.053 53.3914 164.156 57.3868L111.366 130.104Z" stroke="#330E00" stroke-width="3" stroke-miterlimit="10" stroke-linecap="round" stroke-linejoin="round"/>
<path d="M150.121 76.8148L111.315 48.6467L125.399 29.2687C128.296 25.2732 133.94 24.3742 137.935 27.2709L162.158 44.901C166.153 47.7977 167.052 53.4413 164.156 57.4368L150.121 76.8148Z" fill="#8C6239"/>
<path d="M150.121 76.8148L111.315 48.6467L125.399 29.2687C128.296 25.2732 133.94 24.3742 137.935 27.2709L162.158 44.901C166.153 47.7977 167.052 53.4413 164.156 57.4368L150.121 76.8148Z" stroke="#330E00" stroke-width="3" stroke-miterlimit="10" stroke-linecap="round" stroke-linejoin="round"/>
<path d="M130.713 103.434L91.9248 75.2518L72.5494 101.919L111.337 130.101L130.713 103.434Z" fill="#42210B"/>
<path d="M150.092 76.7676L111.304 48.5851L91.9283 75.2519L130.716 103.434L150.092 76.7676Z" fill="#603813"/>
<path d="M150.092 76.7676L111.304 48.5851L91.9283 75.2519L130.716 103.434L150.092 76.7676Z" stroke="#330E00" stroke-width="3" stroke-miterlimit="10" stroke-linecap="round" stroke-linejoin="round"/>
<path d="M130.713 103.434L91.9248 75.2518L72.5494 101.919L111.337 130.101L130.713 103.434Z" stroke="#330E00" stroke-width="3" stroke-miterlimit="10" stroke-linecap="round" stroke-linejoin="round"/>
<path d="M56.4769 147.934C58.6836 147.934 60.4724 146.145 60.4724 143.939C60.4724 141.732 58.6836 139.943 56.4769 139.943C54.2703 139.943 52.4814 141.732 52.4814 143.939C52.4814 146.145 54.2703 147.934 56.4769 147.934Z" stroke="#330E00" stroke-width="3" stroke-miterlimit="10" stroke-linecap="round" stroke-linejoin="round"/>
<path opacity="0.3" d="M125.1 17.1324L96.2827 8.89172C91.4881 7.54325 86.5437 10.2901 85.1453 15.0348L47.6877 145.637C46.3393 150.431 49.0862 155.376 53.8308 156.774L80.101 155.276C80.3507 155.326 82.5482 155.426 82.798 155.476H85.1952L89.0409 155.076C93.1363 154.627 96.5324 151.78 97.6312 147.784L131.293 28.2698C132.642 23.4752 129.895 18.5308 125.1 17.1324Z" fill="#2D2D2D" stroke="#2D2D2D" stroke-width="3" stroke-miterlimit="10" stroke-linecap="round" stroke-linejoin="round"/>
<path d="M79.2019 163.017L50.3846 154.776C45.59 153.428 42.8431 148.434 44.2415 143.639L81.6991 13.037C83.0476 8.24247 88.0419 5.49559 92.8365 6.89401L121.654 15.1347C126.448 16.4831 129.195 21.4775 127.797 26.2721L90.3393 156.874C88.9409 161.619 83.9965 164.366 79.2019 163.017Z" fill="white"/>
<path d="M79.2019 163.017L50.3846 154.776C45.59 153.428 42.8431 148.434 44.2415 143.639L81.6991 13.037C83.0476 8.24247 88.0419 5.49559 92.8365 6.89401L121.654 15.1347C126.448 16.4831 129.195 21.4775 127.797 26.2721L90.3393 156.874C88.9409 161.619 83.9965 164.366 79.2019 163.017Z" stroke="#330E00" stroke-width="3" stroke-miterlimit="10" stroke-linecap="round" stroke-linejoin="round"/>
<path d="M121.154 49.296L75.0566 36.061L81.6492 13.037C82.9977 8.24247 87.992 5.49559 92.7866 6.89401L121.604 15.1347C126.398 16.4831 129.145 21.4775 127.747 26.2721L121.154 49.296Z" fill="#7595E4"/>
<path d="M102.976 112.674L56.8779 99.4392L81.6499 13.037C82.9984 8.24247 87.9927 5.49559 92.7873 6.89401L121.605 15.1347C126.399 16.4831 129.146 21.4775 127.748 26.2721L102.976 112.674Z" stroke="#330E00" stroke-width="3" stroke-miterlimit="10" stroke-linecap="round" stroke-linejoin="round"/>
<path d="M121.2 49.2954L75.1094 36.0815L66.0249 67.7686L112.115 80.9824L121.2 49.2954Z" fill="#2763D6"/>
<path d="M121.2 49.2954L75.1094 36.0815L66.0249 67.7686L112.115 80.9824L121.2 49.2954Z" stroke="#330E00" stroke-width="3" stroke-miterlimit="10" stroke-linecap="round" stroke-linejoin="round"/>
<path d="M112.104 81.0088L66.0137 67.7949L56.9292 99.4819L103.019 112.696L112.104 81.0088Z" fill="#0046B2"/>
<path d="M112.104 81.0088L66.0137 67.7949L56.9292 99.4819L103.019 112.696L112.104 81.0088Z" stroke="#330E00" stroke-width="3" stroke-miterlimit="10" stroke-linecap="round" stroke-linejoin="round"/>
<path d="M56.1283 148.434C58.3349 148.434 60.1238 146.645 60.1238 144.438C60.1238 142.232 58.3349 140.443 56.1283 140.443C53.9216 140.443 52.1328 142.232 52.1328 144.438C52.1328 146.645 53.9216 148.434 56.1283 148.434Z" stroke="#330E00" stroke-width="3" stroke-miterlimit="10" stroke-linecap="round" stroke-linejoin="round"/>
<path opacity="0.3" d="M86.8436 157.423H56.8775C51.9331 157.423 47.8877 153.378 47.8877 148.434V12.5875C47.8877 7.64307 51.9331 3.59766 56.8775 3.59766H86.8436C91.788 3.59766 95.8334 7.64307 95.8334 12.5875V148.434C95.8334 153.428 91.8379 157.423 86.8436 157.423Z" fill="#2D2D2D" stroke="#2D2D2D" stroke-width="3" stroke-miterlimit="10" stroke-linecap="round" stroke-linejoin="round"/>
<path d="M82.8475 155.426H52.8814C47.937 155.426 43.8916 151.38 43.8916 146.436V10.5898C43.8916 5.64539 47.937 1.59998 52.8814 1.59998H82.8475C87.7919 1.59998 91.8373 5.64539 91.8373 10.5898V146.436C91.8373 151.43 87.8418 155.426 82.8475 155.426Z" fill="white"/>
<path d="M82.8475 155.426H52.8814C47.937 155.426 43.8916 151.38 43.8916 146.436V10.5898C43.8916 5.64539 47.937 1.59998 52.8814 1.59998H82.8475C87.7919 1.59998 91.8373 5.64539 91.8373 10.5898V146.436C91.8373 151.43 87.8418 155.426 82.8475 155.426Z" stroke="#330E00" stroke-width="3" stroke-miterlimit="10" stroke-linecap="round" stroke-linejoin="round"/>
<path d="M91.8373 100.488H43.8916V10.5898C43.8916 5.64539 47.937 1.59998 52.8814 1.59998H82.8475C87.7919 1.59998 91.8373 5.64539 91.8373 10.5898V100.488Z" stroke="#330E00" stroke-width="3" stroke-miterlimit="10" stroke-linecap="round" stroke-linejoin="round"/>
<path d="M91.8373 34.5626H43.8916V10.5898C43.8916 5.64539 47.937 1.59998 52.8814 1.59998H82.8475C87.7919 1.59998 91.8373 5.64539 91.8373 10.5898V34.5626Z" fill="#F1AC00"/>
<path d="M91.8373 34.5626H43.8916V10.5898C43.8916 5.64539 47.937 1.59998 52.8814 1.59998H82.8475C87.7919 1.59998 91.8373 5.64539 91.8373 10.5898V34.5626Z" stroke="#330E00" stroke-width="3" stroke-miterlimit="10" stroke-linecap="round" stroke-linejoin="round"/>
<path d="M91.8373 34.5626H43.8916V67.5253H91.8373V34.5626Z" fill="#FF0000"/>
<path d="M91.8373 34.5626H43.8916V67.5253H91.8373V34.5626Z" fill="#F28800" stroke="#330E00" stroke-width="3" stroke-miterlimit="10" stroke-linecap="round" stroke-linejoin="round"/>
<path d="M91.8373 67.5253H43.8916V100.488H91.8373V67.5253Z" fill="#F36800"/>
<path d="M91.8373 67.5253H43.8916V100.488H91.8373V67.5253Z" stroke="#330E00" stroke-width="3" stroke-miterlimit="10" stroke-linecap="round" stroke-linejoin="round"/>
<path d="M55.5785 147.934C57.7851 147.934 59.574 146.145 59.574 143.939C59.574 141.732 57.7851 139.943 55.5785 139.943C53.3718 139.943 51.583 141.732 51.583 143.939C51.583 146.145 53.3718 147.934 55.5785 147.934Z" stroke="#330E00" stroke-width="3" stroke-miterlimit="10" stroke-linecap="round" stroke-linejoin="round"/>
<path d="M50.9839 108.779H50.1349V110.227H49.7354V106.831H50.9839C51.9828 106.831 52.3823 107.231 52.3823 107.83C52.3823 108.38 51.9828 108.779 50.9839 108.779ZM50.9839 108.479C51.6831 108.479 51.9828 108.23 51.9828 107.78C51.9828 107.331 51.6831 107.081 50.9839 107.081H50.1349V108.479H50.9839Z" fill="#330E00"/>
<path d="M55.6286 109.428H53.7307L53.3811 110.227H52.9316L54.4799 106.881H54.9793L56.5276 110.227H56.0781L55.6286 109.428ZM54.6797 107.33L53.8306 109.178H55.4787L54.6797 107.33Z" fill="#330E00"/>
<path d="M60.373 106.831V110.227H59.9735L57.6261 107.38V110.227H57.2266V106.831H57.6261L59.9735 109.678V106.831H60.373Z" fill="#330E00"/>
<path d="M61.1221 106.831H63.869V107.13H62.7203V110.227H62.3207V107.13H61.1221V106.831Z" fill="#330E00"/>
<path d="M66.5166 110.277C65.3179 110.277 64.4189 109.578 64.4189 108.529C64.4189 107.53 65.3179 106.781 66.5166 106.781C67.7152 106.781 68.6142 107.48 68.6142 108.529C68.6142 109.578 67.7152 110.277 66.5166 110.277ZM66.5166 109.977C67.4655 109.977 68.1647 109.428 68.1647 108.529C68.1647 107.63 67.4655 107.08 66.5166 107.08C65.5677 107.08 64.8684 107.63 64.8684 108.529C64.8684 109.428 65.6176 109.977 66.5166 109.977Z" fill="#330E00"/>
<path d="M72.6591 106.831V110.227H72.2596L69.9122 107.38V110.227H69.5127V106.831H69.9122L72.2596 109.678V106.831H72.6591Z" fill="#330E00"/>
<path d="M75.9055 107.13H74.1075V108.379H75.7057V108.679H74.1075V109.977H75.9055V110.277H73.708V106.881H75.9055V107.13Z" fill="#330E00"/>
<path d="M77.0039 106.781H77.803V106.881H77.5033V107.88H77.3036V106.881H77.0039V106.781Z" fill="#330E00"/>
<path d="M78.0022 106.781H78.1521L78.5516 107.68L78.9511 106.781H79.101V107.88H78.9511V107.031L78.5516 107.88H78.4517L78.0522 107.031V107.88H77.9023V106.781H78.0022Z" fill="#330E00"/>
<g opacity="0.3">
<path opacity="0.3" d="M58.5713 321.705H77.5137V432.879H58.5713V321.705Z" fill="#2D2D2D" stroke="#2D2D2D" stroke-width="3" stroke-miterlimit="10" stroke-linecap="round" stroke-linejoin="round"/>
<path opacity="0.3" d="M56.0003 432.834H80.0391V446.364H56.0003V432.834Z" fill="#2D2D2D" stroke="#2D2D2D" stroke-width="3" stroke-miterlimit="10" stroke-linecap="round" stroke-linejoin="round"/>
<path opacity="0.3" d="M62.45 458H73.5899C75.7547 458 77.5137 456.241 77.5137 454.076V446.319H58.5713V454.076C58.5713 456.241 60.2852 458 62.45 458Z" fill="#2D2D2D" stroke="#2D2D2D" stroke-width="3" stroke-miterlimit="10" stroke-linecap="round" stroke-linejoin="round"/>
<path opacity="0.3" d="M58.5713 321.705H77.5137L68.0425 291.713L58.5713 321.705Z" fill="#2D2D2D" stroke="#2D2D2D" stroke-width="3" stroke-miterlimit="10" stroke-linecap="round" stroke-linejoin="round"/>
</g>
<path d="M63.5323 316.293H82.4746V427.467H63.5323V316.293Z" fill="#FF1F1F"/>
<path d="M63.5323 316.293H82.4746V427.467H63.5323V316.293Z" stroke="#330E00" stroke-width="3" stroke-miterlimit="10" stroke-linecap="round" stroke-linejoin="round"/>
<path d="M69.7112 316.293H76.2959V427.467H69.7112V316.293Z" stroke="#330E00" stroke-width="3" stroke-miterlimit="10" stroke-linecap="round" stroke-linejoin="round"/>
<path d="M60.9613 427.422H85V440.952H60.9613V427.422Z" fill="#FDD2A7"/>
<path opacity="0.5" d="M60.9612 427.422H68.042V440.952H60.9612V427.422Z" fill="#FDD2A7"/>
<path d="M78.5506 427.422H85V440.952H78.5506V427.422Z" fill="#FDD2A7"/>
<path d="M60.9613 427.422H85V440.952H60.9613V427.422Z" stroke="#330E00" stroke-width="3" stroke-miterlimit="10" stroke-linecap="round" stroke-linejoin="round"/>
<path d="M67.4109 452.588H78.5508C80.7157 452.588 82.4746 450.829 82.4746 448.664V440.907H63.5323V448.664C63.5323 450.829 65.2461 452.588 67.4109 452.588Z" fill="#3BABFF"/>
<path d="M67.4109 452.588H78.5508C80.7157 452.588 82.4746 450.829 82.4746 448.664V440.907H63.5323V448.664C63.5323 450.829 65.2461 452.588 67.4109 452.588Z" stroke="#330E00" stroke-width="3" stroke-miterlimit="10" stroke-linecap="round" stroke-linejoin="round"/>
<path d="M63.5323 316.293H82.4746L73.0034 286.301L63.5323 316.293Z" fill="#FDD2A7"/>
<path d="M63.5323 316.293H82.4746L73.0034 286.301L63.5323 316.293Z" stroke="#330E00" stroke-width="3" stroke-miterlimit="10" stroke-linecap="round" stroke-linejoin="round"/>
<path d="M73.0026 286.301L77.0166 299.02H68.9886L73.0026 286.301Z" fill="#330E00"/>
</svg>
