<svg width="757" height="599" viewBox="0 0 757 599" fill="none" xmlns="http://www.w3.org/2000/svg">
<path d="M360.277 186.918C621.026 32.2155 881.113 -97.1672 690.469 392.75C647.48 503.224 542.637 598.582 360.277 598.582C177.917 598.582 30.0853 506.428 30.0853 392.75C30.0853 279.072 228.182 265.29 360.277 186.918Z" fill="#424242"/>
<path d="M317.384 514.55H618.497V192.502L467.941 63.006L317.384 192.502V514.55Z" fill="#EDD1B8"/>
<path d="M618.497 192.502V212.058L468.317 84.8185L317.384 212.56V192.502L467.941 63.006L618.497 192.502Z" fill="#D19B6A"/>
<path d="M317.384 514.55H618.497V192.502L467.941 63.006L317.384 192.502V514.55Z" stroke="#23241F" stroke-width="5" stroke-miterlimit="10" stroke-linecap="round" stroke-linejoin="round"/>
<path d="M368.03 344.062H458.289V514.55H368.03V344.062Z" fill="#D1231D"/>
<path d="M368.03 344.062H378.31V514.55H368.03V344.062Z" fill="#822E36"/>
<path d="M368.03 344.062H458.289V514.55H368.03V344.062Z" stroke="#23241F" stroke-width="5" stroke-miterlimit="10" stroke-linecap="round" stroke-linejoin="round"/>
<path d="M493.264 344.062H570.987V434.32H493.264V344.062Z" fill="#89C6CC"/>
<path opacity="0.92" d="M570.987 419.152L513.948 344.062H539.145L570.987 386.057V419.152Z" fill="#D0F6FB"/>
<path opacity="0.92" d="M493.264 344.814V344.062H505.298L570.987 430.559V434.32H561.334L493.264 344.814Z" fill="#D0F6FB"/>
<path d="M484.488 439.335H579.761V454.378H484.488V439.335Z" fill="#D19B6A" stroke="#D19B6A" stroke-width="5" stroke-miterlimit="10" stroke-linecap="round" stroke-linejoin="round"/>
<path d="M493.264 344.062H570.987V434.32H493.264V344.062Z" stroke="#23241F" stroke-width="5" stroke-miterlimit="10" stroke-linecap="round" stroke-linejoin="round"/>
<path d="M484.488 434.32H579.761V449.363H484.488V434.32Z" fill="#656B82"/>
<path d="M484.488 434.32H579.761V449.363H484.488V434.32Z" stroke="#23241F" stroke-width="5" stroke-miterlimit="10" stroke-linecap="round" stroke-linejoin="round"/>
<path d="M467.941 241.267C447.863 241.267 431.587 224.99 431.587 204.913C431.587 184.835 447.863 168.558 467.941 168.558C488.019 168.558 504.295 184.835 504.295 204.913C504.295 224.99 488.019 241.267 467.941 241.267Z" fill="#98AAB5"/>
<path d="M467.942 168.558C471.452 168.558 474.837 169.06 477.971 169.937C462.802 174.325 451.645 188.24 451.645 204.913C451.645 221.46 462.802 235.5 477.971 239.888C474.837 240.765 471.452 241.267 467.942 241.267C447.884 241.267 431.588 224.97 431.588 204.913C431.588 184.73 447.884 168.558 467.942 168.558Z" fill="#7B929E"/>
<path d="M467.941 241.267C447.863 241.267 431.587 224.99 431.587 204.913C431.587 184.835 447.863 168.558 467.941 168.558C488.019 168.558 504.295 184.835 504.295 204.913C504.295 224.99 488.019 241.267 467.941 241.267Z" stroke="#23241F" stroke-width="5" stroke-miterlimit="10" stroke-linecap="round" stroke-linejoin="round"/>
<path d="M352.986 514.55H473.331V504.521C473.331 494.869 465.434 486.971 455.781 486.971H370.537C360.884 486.971 352.986 494.869 352.986 504.521V514.55Z" fill="#6E818E"/>
<path d="M352.986 502.767H473.331V514.425H352.986V502.767Z" fill="#5C6F7A"/>
<path d="M352.986 514.55H473.331V504.521C473.331 494.869 465.434 486.971 455.781 486.971H370.537C360.884 486.971 352.986 494.869 352.986 504.521V514.55Z" stroke="#23241F" stroke-width="5" stroke-miterlimit="10" stroke-linecap="round" stroke-linejoin="round"/>
<path d="M670 515H272" stroke="#23241F" stroke-width="5" stroke-miterlimit="10" stroke-linecap="round" stroke-linejoin="round"/>
<path d="M275.139 215.944C279.401 221.084 287.173 221.836 292.313 217.449L468.317 68.3963L644.322 217.449C649.462 221.836 657.108 221.084 661.496 215.944C665.758 210.805 665.131 203.283 659.992 199.021L486.996 52.7264L468.192 36.8058L449.513 52.7264L276.518 199.021C271.503 203.158 270.876 210.805 275.139 215.944Z" fill="#946235"/>
<path d="M594.033 163.293H612.084V173.698H594.033V163.293Z" fill="#66472C"/>
<path d="M453.65 53.3534H470.323V63.7582H453.65V53.3534Z" fill="#66472C"/>
<path d="M275.139 215.944C279.401 221.084 287.173 221.836 292.313 217.449L468.317 68.3963L644.322 217.449C649.462 221.836 657.108 221.084 661.496 215.944C665.758 210.805 665.131 203.283 659.992 199.021L486.996 52.7264L468.192 36.8058L449.513 52.7264L276.518 199.021C271.503 203.158 270.876 210.805 275.139 215.944Z" stroke="#23241F" stroke-width="5" stroke-miterlimit="10" stroke-linecap="round" stroke-linejoin="round"/>
<path d="M467.942 241.267V168.558" stroke="#23241F" stroke-width="5" stroke-miterlimit="10" stroke-linecap="round" stroke-linejoin="round"/>
<path d="M504.295 204.913H431.587" stroke="#23241F" stroke-width="5" stroke-miterlimit="10" stroke-linecap="round" stroke-linejoin="round"/>
<path d="M443.621 430.309V458.515" stroke="#23241F" stroke-width="5" stroke-miterlimit="10" stroke-linecap="round" stroke-linejoin="round"/>
<path d="M389.341 372.644H436.852V418.901H389.341V372.644Z" fill="#89C6CC"/>
<path opacity="0.92" d="M436.852 407.995L410.026 372.644H435.097L436.852 374.9V407.995Z" fill="#D0F6FB"/>
<path opacity="0.92" d="M402.88 372.644L436.852 417.397V418.901H431.713L396.612 372.644H402.88Z" fill="#D0F6FB"/>
<path d="M389.341 372.644H436.852V418.901H389.341V372.644Z" stroke="#23241F" stroke-width="5" stroke-miterlimit="10" stroke-linecap="round" stroke-linejoin="round"/>
<path d="M225.247 453.584H207.57C191.579 453.584 178.642 440.567 178.642 424.576V381.266H254.175V424.576C254.175 440.567 241.238 453.584 225.247 453.584Z" fill="#FDF7DF"/>
<path d="M196.521 425.621V381.266H178.642V424.576C178.642 440.567 191.579 453.584 207.57 453.584H218.096C205.681 450.33 196.521 439.04 196.521 425.621Z" fill="#FAEAAE"/>
<path d="M225.247 453.584H207.57C191.579 453.584 178.642 440.567 178.642 424.576V381.266H254.175V424.576C254.175 440.567 241.238 453.584 225.247 453.584Z" stroke="#23241F" stroke-width="4" stroke-miterlimit="10" stroke-linecap="round" stroke-linejoin="round"/>
<path d="M257.389 420.237H254.175V398.542H257.389C260.041 398.542 262.21 400.832 262.21 403.484V415.537C262.21 418.188 260.041 420.237 257.389 420.237Z" fill="#FAEAAE"/>
<path d="M257.389 420.237H254.175V398.542H257.389C260.041 398.542 262.21 400.832 262.21 403.484V415.537C262.21 418.188 260.041 420.237 257.389 420.237Z" stroke="#23241F" stroke-width="4" stroke-miterlimit="10" stroke-linecap="round" stroke-linejoin="round"/>
<path d="M175.428 420.237H178.642V398.542H175.428C172.777 398.542 170.607 400.832 170.607 403.484V415.537C170.607 418.188 172.777 420.237 175.428 420.237Z" fill="#FAEAAE"/>
<path d="M175.428 420.237H178.642V398.542H175.428C172.777 398.542 170.607 400.832 170.607 403.484V415.537C170.607 418.188 172.777 420.237 175.428 420.237Z" stroke="#23241F" stroke-width="4" stroke-miterlimit="10" stroke-linecap="round" stroke-linejoin="round"/>
<path d="M211.467 432.749C212.029 437.289 216.168 440.544 220.708 439.981C221.832 439.861 222.917 439.459 223.841 438.937" stroke="#23241F" stroke-width="4" stroke-miterlimit="10" stroke-linecap="round" stroke-linejoin="round"/>
<path d="M193.508 502.72V538.879H215.203V519.876C215.203 518.751 216.127 517.867 217.212 517.867C218.337 517.867 219.221 518.751 219.221 519.876V538.879H240.916V502.72H193.508Z" fill="#2B323A"/>
<path opacity="0.8" d="M223.038 538.879H219.221V517.867H219.783C221.591 517.867 223.038 519.313 223.038 521.121V538.879Z" fill="#252C33"/>
<g opacity="0.8">
<path opacity="0.8" d="M198.409 502.72H193.508V538.879H198.409V502.72Z" fill="#252C33"/>
</g>
<path d="M193.508 502.72V538.879H215.203V519.876C215.203 518.751 216.127 517.867 217.212 517.867C218.337 517.867 219.221 518.751 219.221 519.876V538.879H240.916V505.412L193.508 502.72Z" stroke="#23241F" stroke-width="4" stroke-miterlimit="10" stroke-linecap="round" stroke-linejoin="round"/>
<path d="M270.568 460.173C274.673 460.173 278 456.845 278 452.74C278 448.635 274.673 445.308 270.568 445.308C266.463 445.308 263.135 448.635 263.135 452.74C263.135 456.845 266.463 460.173 270.568 460.173Z" fill="#FDF7DF"/>
<path d="M269.964 453.385C269.683 450.291 271.37 447.479 273.942 446.153C272.736 445.51 271.33 445.229 269.884 445.349C265.786 445.711 262.773 449.327 263.134 453.425C263.496 457.523 267.112 460.536 271.21 460.174C272.214 460.094 273.138 459.813 273.982 459.371C271.772 458.206 270.205 456.036 269.964 453.385Z" fill="#FAEAAE"/>
<path d="M270.568 460.173C274.673 460.173 278 456.845 278 452.74C278 448.635 274.673 445.308 270.568 445.308C266.463 445.308 263.135 448.635 263.135 452.74C263.135 456.845 266.463 460.173 270.568 460.173Z" stroke="#23241F" stroke-width="4" stroke-miterlimit="10" stroke-linecap="round" stroke-linejoin="round"/>
<path d="M215.203 538.879H193.508V542.093C193.508 543.419 194.593 544.504 195.918 544.504H212.793C214.119 544.504 215.203 543.419 215.203 542.093V538.879Z" fill="#534741"/>
<path d="M198.409 542.093V538.879H193.508V542.093C193.508 543.419 194.593 544.504 195.918 544.504H200.82C199.494 544.504 198.409 543.419 198.409 542.093Z" fill="#4C3E38"/>
<path d="M221.632 544.504H238.506C239.832 544.504 240.916 543.419 240.916 542.093V538.879H219.221V542.093C219.221 543.419 220.306 544.504 221.632 544.504Z" fill="#534741"/>
<path d="M223.038 542.093V538.879H219.221V542.093C219.221 543.419 220.306 544.504 221.632 544.504H225.448C224.123 544.504 223.038 543.419 223.038 542.093Z" fill="#4C3E38"/>
<path d="M215.203 538.879H193.508V542.093C193.508 543.419 194.593 544.504 195.918 544.504H212.793C214.119 544.504 215.203 543.419 215.203 542.093V538.879Z" stroke="#23241F" stroke-width="4" stroke-miterlimit="10" stroke-linecap="round" stroke-linejoin="round"/>
<path d="M221.632 544.504H238.506C239.832 544.504 240.916 543.419 240.916 542.093V538.879H219.221V542.093C219.221 543.419 220.306 544.504 221.632 544.504Z" stroke="#23241F" stroke-width="4" stroke-miterlimit="10" stroke-linecap="round" stroke-linejoin="round"/>
<path d="M263.014 453.182L273.058 460.414C263.014 487.332 242.925 482.109 238.104 482.109L240.675 507.059C225.087 509.028 209.096 509.028 193.508 507.059C193.508 507.059 187.883 510.434 183.865 505.211C178.09 497.704 181.937 475.601 181.937 475.601C182.499 469.293 187.441 464.391 193.508 463.668V463.628C209.257 461.659 225.167 461.659 240.916 463.628C246.005 466.039 257.55 467.324 263.014 453.182Z" fill="#56B7E1"/>
<path d="M240.916 463.628V463.668C255.38 469.165 261.407 458.164 262.612 451.977L273.058 460.012C262.612 488.538 240.916 482.511 238.104 480.502L240.916 507.059C225.288 509.55 208.253 509.43 193.508 507.059V508.626C191.401 508.341 185.874 509.229 183.062 504.207C179.355 497.588 181.937 475.601 181.937 475.601C182.499 469.293 187.441 464.392 193.508 463.668V463.628C209.257 461.66 225.167 461.66 240.916 463.628Z" stroke="#23241F" stroke-width="4" stroke-miterlimit="10" stroke-linecap="round" stroke-linejoin="round"/>
<rect x="186.566" y="458.62" width="13.4577" height="34.4748" rx="6.72885" transform="rotate(-18.9978 186.566 458.62)" fill="#FAEAAE" stroke="#23241F" stroke-width="4"/>
<path d="M191.34 463.937C190.186 461.973 191.121 459.445 193.274 458.704V458.704C195.614 457.898 198.051 459.637 198.051 462.111L198.051 464.061C198.051 465.256 198.479 466.411 199.259 467.317L200.593 468.868C202.232 470.775 203.134 473.207 203.134 475.722L203.134 478.883C203.134 479.836 203.481 480.757 204.11 481.474L205.263 482.788C206.555 484.26 205.941 486.573 204.089 487.211L203.274 487.491C201.497 488.103 199.771 486.451 200.305 484.648V484.648C200.517 483.936 200.373 483.166 199.919 482.578L196.497 478.147C195.107 476.347 194.353 474.137 194.353 471.862L194.353 470.95C194.353 469.716 194.023 468.504 193.398 467.441L191.34 463.937Z" fill="#EBBF6B"/>
<path d="M213.194 489.332C218.689 489.332 223.23 484.977 223.23 479.498C223.23 474.019 218.689 469.664 213.194 469.664C207.7 469.664 203.159 474.019 203.159 479.498C203.159 484.977 207.7 489.332 213.194 489.332Z" fill="#57AD69" stroke="#23241F" stroke-width="4"/>
<g filter="url(#filter0_d)">
<path d="M195.491 482.493L200.137 483.516L207.168 482.493L212.592 483.516L220.426 483.516L217.212 492.756L213.621 511.055L193.205 509.314L195.491 501.595L195.491 482.493Z" fill="#E0BA8C"/>
<path d="M195.921 480.54L193.491 480.005L193.491 482.493L193.491 501.305L191.288 508.747L190.591 511.099L193.035 511.307L213.452 513.047L215.239 513.2L215.584 511.44L219.148 493.28L222.315 484.173L223.239 481.516L220.426 481.516L212.779 481.516L207.538 480.528L207.21 480.466L206.88 480.514L200.21 481.484L195.921 480.54Z" stroke="#23241F" stroke-width="4"/>
</g>
<path d="M197.098 482.493L201.744 483.516L205.26 483.004C205.072 483.403 204.892 483.618 204.719 483.735L202.949 486.127L202.724 488.38C202.77 488.713 202.856 489.21 202.949 490.346C203.033 491.358 202.527 492.583 202.141 494.209L201.744 498.18C201.919 501.763 204.191 508.676 205.02 510.185L194.812 509.314L197.098 501.595L197.098 482.493Z" fill="#23241F" fill-opacity="0.2"/>
<path d="M222.077 500.48C225.682 498.424 227.574 494.953 225.519 491.348C223.463 487.744 218.875 486.488 215.27 488.544C211.666 490.599 211.387 494.63 213.443 498.235C215.499 501.839 218.473 502.535 222.077 500.48Z" fill="#FDF7DF"/>
<path d="M217.208 495.348C215.984 492.715 216.435 489.776 218.082 487.634C217.349 487.728 216.586 487.932 215.849 488.26C212.075 489.996 211.389 493.902 213.125 497.676C214.861 501.45 216.639 502.703 220.412 500.967C221.554 500.454 223.721 499.704 224.444 498.783C221.279 499.154 218.616 498.384 217.208 495.348Z" fill="#FAEAAE"/>
<path d="M221.489 500.584C225.414 499.236 227.014 496.572 225.667 492.648C224.32 488.723 220.046 486.634 216.121 487.982C214.125 488.667 212.603 490.11 211.767 491.879L215.171 501.792C216.917 502.675 219.492 501.269 221.489 500.584Z" stroke="#23241F" stroke-width="4" stroke-miterlimit="10" stroke-linecap="round" stroke-linejoin="round"/>
<path d="M214 501.771L210.414 492C206.954 493.629 197.393 494.778 191.542 493.214C187.076 496.276 189.853 507.32 189.853 507.32C198.459 509.665 210.414 505.484 214 501.771Z" fill="#56B7E1"/>
<path d="M193.709 484.118V491.752C193.709 491.752 192.503 499.385 211.587 491.752L215.605 501.997C208.172 508.224 198.232 509.271 190.695 508.425" stroke="#23241F" stroke-width="4" stroke-miterlimit="10" stroke-linecap="round" stroke-linejoin="round"/>
<path d="M251.052 406.632C251.009 408.631 251.009 408.631 251.009 408.631L251.01 408.631L251.01 408.631L251.012 408.632L251.018 408.632L251.039 408.632L251.115 408.633C251.154 408.634 251.204 408.635 251.262 408.636C251.299 408.636 251.34 408.637 251.384 408.637C251.606 408.64 251.908 408.642 252.219 408.64C252.525 408.638 252.864 408.632 253.153 408.617C253.294 408.609 253.456 408.597 253.611 408.577C253.686 408.567 253.793 408.551 253.91 408.524L253.914 408.523C253.987 408.506 254.262 408.442 254.553 408.265C255.152 407.902 255.376 407.353 255.43 407.22C255.518 407.005 255.564 406.802 255.591 406.667C255.645 406.388 255.673 406.078 255.69 405.792C255.725 405.204 255.729 404.436 255.716 403.587C255.691 401.876 255.595 399.646 255.5 397.455L255.489 397.214C255.397 395.087 255.306 393.01 255.276 391.417C255.261 390.652 255.261 390.035 255.278 389.593C259.16 386.506 262.045 382.531 263.751 378.458C265.538 374.194 266.101 369.645 264.939 365.817L264.458 364.235L262.814 364.409L233.361 367.538C233.204 366.673 232.973 365.94 232.737 365.351C232.529 364.833 232.317 364.426 232.147 364.136C232.062 363.99 231.988 363.874 231.929 363.786C231.899 363.743 231.874 363.706 231.853 363.677C231.849 363.671 231.845 363.665 231.841 363.66C231.835 363.652 231.83 363.645 231.826 363.639L231.815 363.624L231.81 363.618L231.808 363.615L231.807 363.614C231.806 363.613 231.806 363.612 230.212 364.82L231.806 363.612L231.038 362.599L229.795 362.864L202.686 368.643L183.245 369.251C180.183 369.275 177.363 371.408 177.355 374.706L177.355 374.708L177.288 415.981L177.284 417.98L179.284 417.985L185.613 417.998L187.399 418.001L187.603 416.227L190.95 387.213C191.502 387.299 192.148 387.398 192.869 387.504C195.281 387.859 198.541 388.304 201.914 388.657C205.276 389.009 208.802 389.276 211.73 389.265C213.19 389.259 214.56 389.185 215.714 388.999C216.273 388.909 216.887 388.778 217.47 388.564C229.301 396.234 239.845 396.881 248.09 393.714C248.106 394.097 248.123 394.508 248.141 394.942C248.167 395.584 248.195 396.278 248.227 397.009C248.376 400.386 248.604 404.566 249.09 407.021L249.402 408.597L251.009 408.631L251.052 406.632Z" fill="#C65132" stroke="#23241F" stroke-width="4"/>
<path d="M219.301 468.048H215.083C211.828 468.048 209.137 465.396 209.137 462.101V453.584H225.207V462.101C225.247 465.396 222.596 468.048 219.301 468.048Z" fill="#FDF7DF"/>
<path d="M214.199 462.101V453.584H209.177V462.101C209.177 465.356 211.828 468.048 215.123 468.048H219.341C219.462 468.048 219.623 468.048 219.743 468.007C216.65 467.807 214.199 465.275 214.199 462.101Z" fill="#44934C"/>
<path d="M219.301 468.048H215.083C211.828 468.048 209.137 465.396 209.137 462.101V453.584H225.207V462.101C225.247 465.396 222.596 468.048 219.301 468.048Z" fill="#FAEAAE" stroke="#23241F" stroke-width="4" stroke-miterlimit="10" stroke-linecap="round" stroke-linejoin="round"/>
<path d="M230.229 420.237C236.22 420.237 241.077 415.381 241.077 409.39C241.077 403.399 236.22 398.542 230.229 398.542C224.238 398.542 219.382 403.399 219.382 409.39C219.382 415.381 224.238 420.237 230.229 420.237Z" fill="white"/>
<path d="M230.229 420.237C236.22 420.237 241.077 415.381 241.077 409.39C241.077 403.399 236.22 398.542 230.229 398.542C224.238 398.542 219.382 403.399 219.382 409.39C219.382 415.381 224.238 420.237 230.229 420.237Z" stroke="#23241F" stroke-width="4" stroke-miterlimit="10" stroke-linecap="round" stroke-linejoin="round"/>
<path d="M229.868 414.613C232.309 414.613 234.287 412.634 234.287 410.193C234.287 407.752 232.309 405.774 229.868 405.774C227.427 405.774 225.448 407.752 225.448 410.193C225.448 412.634 227.427 414.613 229.868 414.613Z" fill="#23241F"/>
<path d="M228.462 411.398C229.238 411.398 229.868 410.769 229.868 409.992C229.868 409.216 229.238 408.586 228.462 408.586C227.685 408.586 227.055 409.216 227.055 409.992C227.055 410.769 227.685 411.398 228.462 411.398Z" fill="white"/>
<path d="M204.516 420.237C210.507 420.237 215.364 415.381 215.364 409.39C215.364 403.399 210.507 398.542 204.516 398.542C198.525 398.542 193.669 403.399 193.669 409.39C193.669 415.381 198.525 420.237 204.516 420.237Z" fill="white"/>
<path d="M204.516 420.237C210.507 420.237 215.364 415.381 215.364 409.39C215.364 403.399 210.507 398.542 204.516 398.542C198.525 398.542 193.669 403.399 193.669 409.39C193.669 415.381 198.525 420.237 204.516 420.237Z" stroke="#23241F" stroke-width="4" stroke-miterlimit="10" stroke-linecap="round" stroke-linejoin="round"/>
<path d="M204.155 414.613C206.595 414.613 208.574 412.634 208.574 410.193C208.574 407.752 206.595 405.774 204.155 405.774C201.714 405.774 199.735 407.752 199.735 410.193C199.735 412.634 201.714 414.613 204.155 414.613Z" fill="#23241F"/>
<path d="M202.749 411.398C203.525 411.398 204.155 410.769 204.155 409.992C204.155 409.216 203.525 408.586 202.749 408.586C201.972 408.586 201.342 409.216 201.342 409.992C201.342 410.769 201.972 411.398 202.749 411.398Z" fill="white"/>
<path d="M264 545H168" stroke="#23241F" stroke-width="4" stroke-miterlimit="10" stroke-linecap="round" stroke-linejoin="round"/>
<circle cx="133" cy="49" r="49" fill="#424242"/>
<circle cx="19" cy="253" r="19" fill="#424242"/>
<defs>
<filter id="filter0_d" x="187.977" y="476.534" width="45.076" height="43.3303" filterUnits="userSpaceOnUse" color-interpolation-filters="sRGB">
<feFlood flood-opacity="0" result="BackgroundImageFix"/>
<feColorMatrix in="SourceAlpha" type="matrix" values="0 0 0 0 0 0 0 0 0 0 0 0 0 0 0 0 0 0 127 0"/>
<feOffset dx="7" dy="4"/>
<feColorMatrix type="matrix" values="0 0 0 0 0 0 0 0 0 0 0 0 0 0 0 0 0 0 0.13 0"/>
<feBlend mode="normal" in2="BackgroundImageFix" result="effect1_dropShadow"/>
<feBlend mode="normal" in="SourceGraphic" in2="effect1_dropShadow" result="shape"/>
</filter>
</defs>
</svg>
