<svg width="169" height="81" viewBox="0 0 169 81" fill="none" xmlns="http://www.w3.org/2000/svg">
<path fill-rule="evenodd" clip-rule="evenodd" d="M9.53807 27.7033C8.32307 27.7033 7.34307 27.6303 6.56607 27.4803V15.3363C7.39707 15.1923 8.64407 15.1093 10.0411 15.1093C12.7881 15.1093 17.3971 15.8873 17.3971 21.1033C17.3971 25.3593 14.6061 27.7033 9.53807 27.7033ZM19.9021 13.3103C17.6981 11.3273 14.3471 10.3213 9.94107 10.3213C6.92707 10.3213 4.06007 10.5453 1.42007 10.9863L0.87207 11.0773V45.8403H6.56607V32.3793C7.48907 32.5183 8.48207 32.5413 9.43707 32.5413C14.0561 32.5413 17.9121 31.1433 20.2861 28.6143C22.1471 26.6983 23.0911 24.1043 23.0911 20.9023C23.0911 17.7863 21.9551 15.0873 19.9021 13.3103Z" fill="#243D80"/>
<path fill-rule="evenodd" clip-rule="evenodd" d="M30.3248 28.0591C31.5988 28.0591 32.6248 28.4451 33.3728 29.2071C34.4588 30.3131 34.7148 31.9271 34.7668 32.8401H25.4288C25.8278 30.8341 27.1968 28.0591 30.3248 28.0591ZM30.6108 24.4201C24.8348 24.4201 20.8008 29.0271 20.8008 35.6211C20.8008 42.0281 24.8278 46.1671 31.0608 46.1671C34.2798 46.1671 36.5348 45.4521 37.8598 44.8511L38.2598 44.6711L37.3998 41.0571L36.8208 41.3031C35.6198 41.8121 34.1498 42.2831 31.5498 42.2831C29.7618 42.2831 25.6698 41.7051 25.3198 36.4791H39.1388L39.2098 35.8451C39.2528 35.4831 39.3168 34.9361 39.3168 34.2721C39.3168 27.0011 34.6268 24.4201 30.6108 24.4201Z" fill="#243D80"/>
<path fill-rule="evenodd" clip-rule="evenodd" d="M51.046 24.4205C48.191 24.4205 46.113 25.7015 44.865 27.1905L44.719 24.8705H40.458L40.501 25.4425C40.615 26.9555 40.663 28.5455 40.663 30.7575V45.7165H45.323V33.2905C45.323 32.7135 45.402 32.1695 45.547 31.7715C46.05 30.1275 47.579 28.4675 49.861 28.4675C53.204 28.4675 53.907 31.3575 53.907 33.7815V45.7165H58.567V33.3725C58.567 29.2435 56.598 24.4205 51.046 24.4205Z" fill="#243D80"/>
<path fill-rule="evenodd" clip-rule="evenodd" d="M71.6856 24.4205C68.8296 24.4205 66.7526 25.7015 65.5046 27.1905L65.3606 24.8705H61.0986L61.1416 25.4425C61.2546 26.9575 61.3036 28.5475 61.3036 30.7575V45.7165H65.9646V33.2905C65.9646 32.7135 66.0426 32.1695 66.1876 31.7715C66.6896 30.1265 68.2176 28.4675 70.5006 28.4675C73.8436 28.4675 74.5456 31.3575 74.5456 33.7815V45.7165H79.2066V33.3725C79.2066 29.2435 77.2376 24.4205 71.6856 24.4205Z" fill="#243D80"/>
<path fill-rule="evenodd" clip-rule="evenodd" d="M93.742 24.8709L89.697 36.8389C89.404 37.6959 89.135 38.5909 88.896 39.4039C88.645 38.5929 88.361 37.7199 88.083 36.9069L83.623 24.8709H78.541L86.143 43.8109C86.207 43.9879 86.356 44.4039 86.356 44.5729C86.355 44.6779 86.2 45.0259 86.117 45.2139C85.457 46.6969 84.384 48.1199 83.234 49.0309C82.018 50.0599 80.755 50.5319 80.269 50.6869L79.771 50.8459L80.956 54.8289L81.426 54.7419C81.988 54.6389 83.983 54.1589 86.091 52.2909C88.492 50.2129 90.242 47.0329 93.027 39.6939L98.697 24.8709H93.742Z" fill="#243D80"/>
<path fill-rule="evenodd" clip-rule="evenodd" d="M120.033 17.106L114.996 30.785C113.922 33.83 113.139 36.248 112.543 38.367C111.965 36.222 111.216 33.807 110.197 30.785L105.371 17.106H99.9598L97.9648 45.717H102.428L103.196 33.404C103.369 30.479 103.519 27.385 103.622 24.619C104.225 26.758 104.983 29.17 105.962 32.072L110.539 45.553H113.992L118.982 31.84C119.933 29.267 120.8 26.738 121.572 24.29C121.641 27.169 121.812 30.384 121.957 33.117L122.68 45.717H127.223L125.44 17.106H120.033Z" fill="#243D80"/>
<path fill-rule="evenodd" clip-rule="evenodd" d="M140.05 35.6162H140.102V38.5242C140.102 38.8072 140.039 39.1542 139.925 39.4962C139.462 40.8572 138.063 42.4472 135.647 42.4472C133.855 42.4472 132.786 41.3622 132.786 39.5452C132.786 36.9382 135.23 35.6162 140.05 35.6162ZM144.64 40.4452V33.0442C144.64 27.4022 141.856 24.4202 136.588 24.4202C134.075 24.4202 131.601 25.0922 129.798 26.2642L129.45 26.4912L130.627 29.8982L131.197 29.5282C132.534 28.6602 134.351 28.1422 136.056 28.1422C138.682 28.1422 139.98 29.4262 140.018 32.0662C129.681 32.1742 128.126 37.0402 128.126 39.9542C128.126 43.0422 130.387 46.1672 134.707 46.1672C136.955 46.1672 139.037 45.3172 140.477 43.8512L140.692 45.7172H145.074L144.959 45.0892C144.745 43.9122 144.64 42.3932 144.64 40.4452Z" fill="#243D80"/>
<path fill-rule="evenodd" clip-rule="evenodd" d="M157.062 28.3866C159.031 28.3866 160.274 28.8606 160.969 29.2576L161.554 29.5906L162.687 25.7386L162.289 25.5396C161.295 25.0426 159.33 24.4626 157.062 24.4626C150.493 24.4626 145.905 29.0006 145.905 35.4986C145.905 41.8796 150.077 46.1676 156.287 46.1676C158.897 46.1676 161.06 45.5236 162.214 44.9226L162.577 44.7326L161.732 41.0066L161.141 41.2656C160.112 41.7186 158.852 42.2016 156.941 42.2016C153.152 42.2016 150.607 39.4416 150.607 35.3346C150.607 31.1136 153.141 28.3866 157.062 28.3866Z" fill="#243D80"/>
<path fill-rule="evenodd" clip-rule="evenodd" d="M165.912 24.0565C164.822 24.0565 163.999 23.1905 163.999 22.0995C163.999 21.0225 164.822 20.1415 165.882 20.1415C166.973 20.1415 167.781 21.0225 167.781 22.1145C167.781 23.1905 166.973 24.0725 165.912 24.0565ZM165.912 19.6475C164.492 19.6475 163.371 20.7245 163.371 22.0995C163.371 23.4745 164.492 24.5655 165.897 24.5655C167.302 24.5655 168.407 23.4745 168.407 22.0995C168.407 20.7245 167.302 19.6475 165.912 19.6475Z" fill="#243D80"/>
<path fill-rule="evenodd" clip-rule="evenodd" d="M165.793 21.994H165.524V21.292C165.584 21.277 165.688 21.262 165.837 21.262C166.196 21.262 166.361 21.412 166.361 21.636C166.361 21.89 166.106 21.994 165.793 21.994ZM166.465 22.174V22.144C166.749 22.054 166.973 21.86 166.973 21.561C166.973 21.322 166.869 21.143 166.72 21.038C166.555 20.919 166.346 20.844 165.882 20.844C165.479 20.844 165.165 20.888 164.941 20.919V23.369H165.509V22.398H165.777C166.092 22.398 166.241 22.518 166.286 22.772C166.361 23.071 166.406 23.28 166.48 23.369H167.078C167.033 23.28 166.973 23.145 166.899 22.772C166.824 22.442 166.704 22.249 166.465 22.174Z" fill="#243D80"/>
<mask id="mask0" mask-type="alpha" maskUnits="userSpaceOnUse" x="0" y="0" width="169" height="81">
<path d="M0.871094 80.93H168.408V0.562988H0.871094V80.93Z" fill="white"/>
</mask>
<g mask="url(#mask0)">
<path fill-rule="evenodd" clip-rule="evenodd" d="M42.043 10.649H47.24V0.562988H42.043V10.649Z" fill="#243D80"/>
</g>
<path fill-rule="evenodd" clip-rule="evenodd" d="M93.075 15.7531L65.402 1.92206C63.232 0.999059 60.129 0.880059 58.03 1.92206L30.36 15.7531C25.541 18.1471 32.993 21.6871 37.728 19.3341L61.634 7.37206L85.707 19.3341C90.509 21.7211 97.767 18.0851 93.075 15.7531Z" fill="#F9C506"/>
<path fill-rule="evenodd" clip-rule="evenodd" d="M2.36757 70.7029H3.65757C4.92757 70.7029 5.84657 70.4979 6.41457 70.0879C6.98157 69.6769 7.26557 69.0199 7.26557 68.1149C7.26557 67.2999 6.99857 66.6929 6.46457 66.2939C5.93057 65.8949 5.09957 65.6949 3.96957 65.6949H2.36757V70.7029ZM8.74957 68.0469C8.74957 69.2949 8.32357 70.2549 7.47257 70.9259C6.62057 71.5979 5.40257 71.9339 3.81757 71.9339H2.36757V76.7819H0.93457V64.4559H4.12957C7.20957 64.4559 8.74957 65.6529 8.74957 68.0469Z" fill="#31ACDA"/>
<path fill-rule="evenodd" clip-rule="evenodd" d="M13.0888 68.5447C12.3468 68.5447 11.7548 68.7867 11.3138 69.2697C10.8728 69.7537 10.6128 70.4227 10.5338 71.2767H15.3648C15.3648 70.3937 15.1688 69.7177 14.7748 69.2487C14.3818 68.7797 13.8198 68.5447 13.0888 68.5447ZM13.4678 76.9507C12.1028 76.9507 11.0248 76.5347 10.2348 75.7027C9.44478 74.8707 9.05078 73.7157 9.05078 72.2377C9.05078 70.7487 9.41678 69.5647 10.1508 68.6877C10.8838 67.8117 11.8688 67.3727 13.1058 67.3727C14.2638 67.3727 15.1798 67.7537 15.8538 68.5147C16.5288 69.2767 16.8658 70.2817 16.8658 71.5287V72.4147H10.5008C10.5288 73.4997 10.8028 74.3227 11.3228 74.8847C11.8428 75.4467 12.5748 75.7277 13.5188 75.7277C14.5138 75.7277 15.4968 75.5207 16.4698 75.1037V76.3517C15.9748 76.5657 15.5068 76.7187 15.0658 76.8107C14.6248 76.9047 14.0918 76.9507 13.4678 76.9507Z" fill="#31ACDA"/>
<path fill-rule="evenodd" clip-rule="evenodd" d="M24.7117 76.7817V70.8047C24.7117 70.0507 24.5407 69.4887 24.1977 69.1177C23.8547 68.7467 23.3177 68.5617 22.5867 68.5617C21.6207 68.5617 20.9117 68.8227 20.4627 69.3457C20.0127 69.8687 19.7877 70.7317 19.7877 71.9337V76.7817H18.3887V67.5417H19.5267L19.7547 68.8057H19.8217C20.1087 68.3507 20.5107 67.9977 21.0277 67.7477C21.5447 67.4977 22.1207 67.3727 22.7557 67.3727C23.8687 67.3727 24.7057 67.6417 25.2677 68.1777C25.8297 68.7147 26.1117 69.5737 26.1117 70.7537V76.7817H24.7117Z" fill="#31ACDA"/>
<path fill-rule="evenodd" clip-rule="evenodd" d="M34.1013 76.7817V70.8047C34.1013 70.0507 33.9293 69.4887 33.5873 69.1177C33.2443 68.7467 32.7073 68.5617 31.9763 68.5617C31.0103 68.5617 30.3013 68.8227 29.8523 69.3457C29.4023 69.8687 29.1773 70.7317 29.1773 71.9337V76.7817H27.7783V67.5417H28.9163L29.1443 68.8057H29.2113C29.4983 68.3507 29.9003 67.9977 30.4173 67.7477C30.9343 67.4977 31.5103 67.3727 32.1453 67.3727C33.2583 67.3727 34.0953 67.6417 34.6573 68.1777C35.2193 68.7147 35.5013 69.5737 35.5013 70.7537V76.7817H34.1013Z" fill="#31ACDA"/>
<path fill-rule="evenodd" clip-rule="evenodd" d="M36.3906 67.5414H37.8916L39.9146 72.8104C40.3586 74.0134 40.6336 74.8824 40.7406 75.4154H40.8086C40.8816 75.1294 41.0346 74.6384 41.2676 73.9444C41.5016 73.2504 42.2646 71.1164 43.5566 67.5414H45.0576L41.0866 78.0634C40.6926 79.1024 40.2336 79.8404 39.7086 80.2764C39.1826 80.7114 38.5376 80.9294 37.7736 80.9294C37.3456 80.9294 36.9246 80.8814 36.5086 80.7864V79.6654C36.8176 79.7324 37.1636 79.7664 37.5456 79.7664C38.5066 79.7664 39.1926 79.2264 39.6026 78.1474L40.1176 76.8324L36.3906 67.5414Z" fill="#31ACDA"/>
<path fill-rule="evenodd" clip-rule="evenodd" d="M52.0507 76.7817L47.8687 65.8547H47.8017C47.8807 66.7207 47.9197 67.7498 47.9197 68.9408V76.7817H46.5957V64.4557H48.7537L52.6577 74.6238H52.7257L56.6627 64.4557H58.8037V76.7817H57.3707V68.8397C57.3707 67.9297 57.4097 66.9398 57.4887 65.8718H57.4217L53.2057 76.7817H52.0507Z" fill="#31ACDA"/>
<path fill-rule="evenodd" clip-rule="evenodd" d="M63.6319 75.7953C64.5029 75.7953 65.1869 75.5563 65.6849 75.0783C66.1819 74.6013 66.4309 73.9323 66.4309 73.0723V72.2373L65.0319 72.2963C63.9189 72.3363 63.1159 72.5083 62.6249 72.8153C62.1329 73.1213 61.8869 73.5983 61.8869 74.2443C61.8869 74.7493 62.0399 75.1353 62.3459 75.3993C62.6519 75.6633 63.0809 75.7953 63.6319 75.7953ZM66.7939 76.7813L66.5159 75.4663H66.4479C65.9869 76.0453 65.5269 76.4373 65.0699 76.6423C64.6109 76.8473 64.0399 76.9503 63.3539 76.9503C62.4369 76.9503 61.7199 76.7143 61.1999 76.2423C60.6789 75.7703 60.4199 75.0983 60.4199 74.2273C60.4199 72.3613 61.9119 71.3833 64.8969 71.2933L66.4649 71.2433V70.6693C66.4649 69.9443 66.3089 69.4083 65.9969 69.0633C65.6849 68.7173 65.1859 68.5443 64.4999 68.5443C63.7299 68.5443 62.8589 68.7813 61.8869 69.2533L61.4569 68.1823C61.9119 67.9353 62.4109 67.7413 62.9529 67.6003C63.4959 67.4603 64.0399 67.3893 64.5849 67.3893C65.6859 67.3893 66.5029 67.6343 67.0339 68.1233C67.5649 68.6123 67.8309 69.3963 67.8309 70.4753V76.7813H66.7939Z" fill="#31ACDA"/>
<path fill-rule="evenodd" clip-rule="evenodd" d="M73.5429 76.9503C72.2049 76.9503 71.1699 76.5383 70.4359 75.7153C69.7029 74.8923 69.3359 73.7273 69.3359 72.2203C69.3359 70.6753 69.7079 69.4803 70.4529 68.6373C71.1969 67.7943 72.2579 67.3733 73.6359 67.3733C74.0799 67.3733 74.5239 67.4203 74.9679 67.5163C75.4119 67.6123 75.7599 67.7243 76.0129 67.8533L75.5829 69.0423C75.2739 68.9183 74.9369 68.8163 74.5719 68.7343C74.2059 68.6533 73.8829 68.6123 73.6019 68.6123C71.7249 68.6123 70.7859 69.8093 70.7859 72.2043C70.7859 73.3393 71.0149 74.2103 71.4729 74.8173C71.9309 75.4243 72.6099 75.7283 73.5089 75.7283C74.2789 75.7283 75.0689 75.5623 75.8789 75.2303V76.4693C75.2599 76.7903 74.4809 76.9503 73.5429 76.9503Z" fill="#31ACDA"/>
<path fill-rule="evenodd" clip-rule="evenodd" d="M87.4164 64.4557V72.4317C87.4164 73.8367 86.9924 74.9407 86.1434 75.7447C85.2944 76.5487 84.1284 76.9507 82.6454 76.9507C81.1614 76.9507 80.0124 76.5457 79.2004 75.7367C78.3884 74.9267 77.9824 73.8137 77.9824 72.3977V64.4557H79.4154V72.4987C79.4154 73.5277 79.6974 74.3167 80.2594 74.8677C80.8214 75.4187 81.6474 75.6937 82.7374 75.6937C83.7774 75.6937 84.5784 75.4177 85.1404 74.8637C85.7024 74.3107 85.9834 73.5157 85.9834 72.4817V64.4557H87.4164Z" fill="#31ACDA"/>
<path fill-rule="evenodd" clip-rule="evenodd" d="M96.7716 73.502C96.7716 74.587 96.3786 75.433 95.5916 76.04C94.8046 76.647 93.7366 76.95 92.3876 76.95C90.9256 76.95 89.8016 76.762 89.0156 76.386V75.003C89.5206 75.217 90.0716 75.385 90.6676 75.509C91.2636 75.633 91.8536 75.694 92.4386 75.694C93.3936 75.694 94.1126 75.513 94.5966 75.15C95.0796 74.787 95.3216 74.284 95.3216 73.637C95.3216 73.21 95.2356 72.86 95.0636 72.588C94.8926 72.315 94.6066 72.063 94.2046 71.833C93.8026 71.603 93.1906 71.341 92.3706 71.049C91.2236 70.638 90.4046 70.152 89.9136 69.59C89.4206 69.028 89.1756 68.295 89.1756 67.39C89.1756 66.44 89.5326 65.684 90.2466 65.122C90.9596 64.56 91.9036 64.278 93.0786 64.278C94.3036 64.278 95.4316 64.503 96.4596 64.953L96.0126 66.201C94.9956 65.774 94.0066 65.56 93.0456 65.56C92.2866 65.56 91.6926 65.723 91.2666 66.049C90.8396 66.375 90.6256 66.828 90.6256 67.406C90.6256 67.834 90.7046 68.183 90.8616 68.457C91.0186 68.729 91.2846 68.979 91.6576 69.206C92.0316 69.434 92.6036 69.686 93.3746 69.961C94.6666 70.422 95.5566 70.917 96.0426 71.445C96.5286 71.973 96.7716 72.659 96.7716 73.502Z" fill="#31ACDA"/>
<path fill-rule="evenodd" clip-rule="evenodd" d="M105.232 71.5713L103.799 67.7523C103.613 67.2683 103.422 66.6763 103.225 65.9733C103.102 66.5123 102.925 67.1063 102.694 67.7523L101.244 71.5713H105.232ZM107.214 76.7813L105.679 72.8613H100.739L99.2205 76.7813H97.7705L102.644 64.4053H103.849L108.697 76.7813H107.214Z" fill="#31ACDA"/>
<path fill-rule="evenodd" clip-rule="evenodd" d="M109.806 75.8879C109.806 75.5119 109.891 75.2259 110.063 75.0319C110.235 74.8379 110.48 74.7419 110.801 74.7419C111.126 74.7419 111.381 74.8379 111.564 75.0319C111.746 75.2259 111.838 75.5119 111.838 75.8879C111.838 76.2539 111.745 76.5349 111.559 76.7309C111.374 76.9279 111.121 77.0259 110.801 77.0259C110.514 77.0259 110.277 76.9379 110.088 76.7599C109.9 76.5839 109.806 76.2929 109.806 75.8879Z" fill="#31ACDA"/>
<path fill-rule="evenodd" clip-rule="evenodd" d="M118.122 76.9503C116.784 76.9503 115.749 76.5383 115.015 75.7153C114.282 74.8923 113.915 73.7273 113.915 72.2203C113.915 70.6753 114.287 69.4803 115.032 68.6373C115.777 67.7943 116.837 67.3733 118.215 67.3733C118.659 67.3733 119.103 67.4203 119.547 67.5163C119.991 67.6123 120.339 67.7243 120.593 67.8533L120.163 69.0423C119.853 68.9183 119.516 68.8163 119.151 68.7343C118.785 68.6533 118.462 68.6123 118.181 68.6123C116.304 68.6123 115.365 69.8093 115.365 72.2043C115.365 73.3393 115.594 74.2103 116.053 74.8173C116.511 75.4243 117.189 75.7283 118.088 75.7283C118.859 75.7283 119.648 75.5623 120.458 75.2303V76.4693C119.839 76.7903 119.061 76.9503 118.122 76.9503Z" fill="#31ACDA"/>
<path fill-rule="evenodd" clip-rule="evenodd" d="M123.413 72.153C123.413 73.333 123.649 74.233 124.121 74.851C124.594 75.47 125.287 75.779 126.204 75.779C127.119 75.779 127.815 75.471 128.29 74.855C128.765 74.24 129.003 73.339 129.003 72.153C129.003 70.978 128.765 70.086 128.29 69.476C127.815 68.866 127.114 68.562 126.187 68.562C125.271 68.562 124.579 68.862 124.113 69.464C123.646 70.066 123.413 70.962 123.413 72.153ZM130.453 72.153C130.453 73.66 130.073 74.836 129.315 75.681C128.556 76.527 127.507 76.95 126.17 76.95C125.344 76.95 124.61 76.756 123.97 76.369C123.329 75.981 122.834 75.425 122.486 74.699C122.137 73.974 121.963 73.126 121.963 72.153C121.963 70.647 122.339 69.474 123.093 68.633C123.846 67.793 124.891 67.373 126.229 67.373C127.522 67.373 128.549 67.803 129.31 68.663C130.072 69.523 130.453 70.686 130.453 72.153Z" fill="#31ACDA"/>
<path fill-rule="evenodd" clip-rule="evenodd" d="M143.821 76.7817V70.7697C143.821 70.0337 143.663 69.4817 143.349 69.1137C143.034 68.7457 142.545 68.5617 141.882 68.5617C141.01 68.5617 140.367 68.8117 139.951 69.3117C139.535 69.8127 139.327 70.5817 139.327 71.6217V76.7817H137.928V70.7697C137.928 70.0337 137.77 69.4817 137.456 69.1137C137.141 68.7457 136.649 68.5617 135.98 68.5617C135.103 68.5617 134.461 68.8237 134.054 69.3507C133.646 69.8757 133.442 70.7367 133.442 71.9337V76.7817H132.043V67.5417H133.181L133.409 68.8057H133.476C133.74 68.3567 134.113 68.0057 134.593 67.7517C135.074 67.4987 135.612 67.3727 136.208 67.3727C137.652 67.3727 138.597 67.8957 139.041 68.9407H139.108C139.383 68.4577 139.782 68.0757 140.305 67.7947C140.828 67.5137 141.424 67.3727 142.093 67.3727C143.138 67.3727 143.921 67.6417 144.441 68.1777C144.961 68.7147 145.221 69.5737 145.221 70.7537V76.7817H143.821Z" fill="#31ACDA"/>
</svg>
