<svg viewBox="0 0 405 131" fill="none" xmlns="http://www.w3.org/2000/svg">
<path d="M105.22 0.294006H92.245V25.472H105.22V0.294006Z" fill="#003087"/>
<path d="M219.435 35.348L152.719 2.50202C152.719 2.50202 149.168 0.317017 144.047 0.317017C144.035 0.317017 144.025 0.319017 144.013 0.319017C144.001 0.319017 143.991 0.317017 143.979 0.317017C138.858 0.317017 135.307 2.50202 135.307 2.50202L68.591 35.348C68.591 35.348 63.674 37.533 63.674 42.177C63.674 46.82 70.7759 52.829 87.7099 47.366L143.978 20.052L144.012 19.984L144.046 20.052L200.314 47.366C217.249 52.829 224.35 46.82 224.35 42.177C224.351 37.533 219.435 35.348 219.435 35.348Z" fill="#F1C400"/>
<path d="M43.962 32.025C38.909 27.353 31.18 24.983 20.988 24.983C13.926 24.983 7.21601 25.52 1.04001 26.579L0.359009 26.696V109.365H12.317V76.666C14.697 77.127 17.406 77.194 19.802 77.194C30.478 77.194 39.37 73.897 44.831 67.92C49.072 63.435 51.223 57.341 51.223 49.81C51.224 42.502 48.641 36.183 43.962 32.025ZM20.04 67.024C16.829 67.024 14.293 66.802 12.318 66.352V35.708C14.301 35.281 17.552 35.031 21.225 35.031C32.859 35.031 39.266 40.452 39.266 50.296C39.266 60.927 32.258 67.024 20.04 67.024Z" fill="#002E86"/>
<path d="M56.188 87.707C56.478 96.48 63.175 100.27 70.743 100.27C76.275 100.27 80.254 99.47 83.844 98.078L85.592 106.551C81.516 108.25 75.887 109.543 69.094 109.543C53.761 109.543 44.735 99.869 44.735 85.015C44.735 71.553 52.693 58.89 67.832 58.89C83.165 58.89 88.211 71.853 88.211 82.522C88.211 84.816 88.017 86.611 87.823 87.708H56.188V87.707ZM76.955 79.13C77.052 74.645 75.111 67.265 67.154 67.265C59.779 67.265 56.675 74.142 56.189 79.13H76.955Z" fill="#002E86"/>
<path d="M92.33 74.443C92.33 68.859 92.234 64.172 91.943 59.985H102.423L103.005 67.265H103.296C105.333 63.475 110.478 58.889 118.338 58.889C126.586 58.889 135.127 64.373 135.127 79.73V108.546H123.19V81.125C123.19 74.144 120.667 68.859 114.166 68.859C109.41 68.859 106.111 72.349 104.85 76.041C104.461 77.138 104.366 78.633 104.366 80.028V108.547H92.33V74.443Z" fill="#002E86"/>
<path d="M140.729 74.443C140.729 68.859 140.632 64.172 140.341 59.985H150.82L151.403 67.265H151.694C153.731 63.475 158.875 58.889 166.736 58.889C174.984 58.889 183.525 64.373 183.525 79.73V108.546H171.587V81.125C171.587 74.144 169.064 68.859 162.562 68.859C157.806 68.859 154.508 72.349 153.247 76.041C152.858 77.138 152.763 78.633 152.763 80.028V108.547H140.729V74.443V74.443Z" fill="#002E86"/>
<path d="M196.331 59.985L204.872 86.011C205.843 89.001 206.812 92.691 207.491 95.484H207.781C208.557 92.691 209.432 89.101 210.305 85.912L217.68 59.985H230.49L218.651 93.091C212.149 111.237 207.781 119.316 202.154 124.3C197.498 128.587 192.643 130.181 189.635 130.581L186.918 120.208C188.955 119.712 191.479 118.616 193.904 116.819C196.136 115.325 198.756 112.431 200.405 109.141C200.889 108.246 201.182 107.543 201.182 106.948C201.182 106.45 201.085 105.753 200.503 104.553L183.23 59.983L196.331 59.985Z" fill="#002E86"/>
<path d="M287.256 81.125C286.869 72.449 286.383 61.979 286.481 52.907H286.191C284.055 61.084 281.338 70.158 278.424 78.633L268.916 107.748H259.694L250.963 79.029C248.44 70.455 246.11 61.281 244.364 52.905H244.168C243.879 61.68 243.489 72.349 243.006 81.521L241.551 108.544H230.393L234.758 41.337H250.477L259.017 68.36C261.347 76.236 263.383 84.214 265.036 91.693H265.327C267.071 84.413 269.306 76.137 271.829 68.26L280.852 41.337H296.377L300.162 108.544H288.517L287.256 81.125Z" fill="#002E86"/>
<path d="M332.961 108.546L332.185 103.161H331.895C328.983 106.95 324.032 109.641 317.92 109.641C308.408 109.641 303.071 102.561 303.071 95.182C303.071 82.92 313.648 76.734 331.117 76.834V76.039C331.117 72.849 329.853 67.564 321.508 67.564C316.853 67.564 312 69.056 308.797 71.151L306.469 63.174C309.961 60.979 316.076 58.886 323.547 58.886C338.688 58.886 343.053 68.755 343.053 79.325V96.874C343.053 101.265 343.246 105.552 343.734 108.542H332.962V108.546H332.961ZM331.409 84.814C322.968 84.617 314.911 86.507 314.911 93.888C314.911 98.673 317.921 100.867 321.704 100.867C326.458 100.867 329.954 97.678 331.019 94.185C331.312 93.289 331.409 92.292 331.409 91.494V84.814Z" fill="#002E86"/>
<path d="M384.586 107.05C382.062 108.249 377.111 109.542 371.192 109.542C356.442 109.542 346.836 99.868 346.836 84.813C346.836 70.254 356.539 58.887 373.133 58.887C377.5 58.887 381.965 59.885 384.684 61.181L382.547 70.356C380.606 69.458 377.793 68.46 373.524 68.46C364.399 68.46 358.965 75.341 359.064 84.214C359.064 94.187 365.374 99.868 373.524 99.868C377.696 99.868 380.606 98.972 382.934 97.975L384.586 107.05Z" fill="#002E86"/>
<path d="M391.704 44.419H395.194C397.337 44.419 398.973 45.429 398.973 47.724C398.973 49.27 398.131 50.266 396.862 50.709L399.311 54.826H397.459L395.207 50.969H393.324V54.826H391.703V44.419H391.704ZM395.133 49.608C396.51 49.608 397.305 49.042 397.305 47.725C397.305 46.379 396.494 45.843 395.133 45.843H393.326V49.608H395.133Z" fill="#353535"/>
<path d="M394.956 58.986C389.901 58.986 385.788 54.872 385.788 49.816C385.788 44.76 389.901 40.646 394.956 40.646C400.013 40.646 404.126 44.76 404.126 49.816C404.125 54.873 400.012 58.986 394.956 58.986ZM394.956 42.284C390.805 42.284 387.427 45.663 387.427 49.816C387.427 53.969 390.805 57.348 394.956 57.348C399.11 57.348 402.487 53.969 402.487 49.816C402.487 45.664 399.11 42.284 394.956 42.284Z" fill="#353535"/>
<path d="M245.039 17.9883V24H241.523V6.9375H248.18C249.461 6.9375 250.586 7.17188 251.555 7.64062C252.531 8.10938 253.281 8.77734 253.805 9.64453C254.328 10.5039 254.59 11.4844 254.59 12.5859C254.59 14.2578 254.016 15.5781 252.867 16.5469C251.727 17.5078 250.145 17.9883 248.121 17.9883H245.039ZM245.039 15.1406H248.18C249.109 15.1406 249.816 14.9219 250.301 14.4844C250.793 14.0469 251.039 13.4219 251.039 12.6094C251.039 11.7734 250.793 11.0977 250.301 10.582C249.809 10.0664 249.129 9.80078 248.262 9.78516H245.039V15.1406ZM256.102 17.543C256.102 16.2852 256.344 15.1641 256.828 14.1797C257.312 13.1953 258.008 12.4336 258.914 11.8945C259.828 11.3555 260.887 11.0859 262.09 11.0859C263.801 11.0859 265.195 11.6094 266.273 12.6562C267.359 13.7031 267.965 15.125 268.09 16.9219L268.113 17.7891C268.113 19.7344 267.57 21.2969 266.484 22.4766C265.398 23.6484 263.941 24.2344 262.113 24.2344C260.285 24.2344 258.824 23.6484 257.73 22.4766C256.645 21.3047 256.102 19.7109 256.102 17.6953V17.543ZM259.488 17.7891C259.488 18.9922 259.715 19.9141 260.168 20.5547C260.621 21.1875 261.27 21.5039 262.113 21.5039C262.934 21.5039 263.574 21.1914 264.035 20.5664C264.496 19.9336 264.727 18.9258 264.727 17.543C264.727 16.3633 264.496 15.4492 264.035 14.8008C263.574 14.1523 262.926 13.8281 262.09 13.8281C261.262 13.8281 260.621 14.1523 260.168 14.8008C259.715 15.4414 259.488 16.4375 259.488 17.7891ZM281.227 19.3945L282.891 11.3203H286.16L282.926 24H280.09L277.688 16.0195L275.285 24H272.461L269.227 11.3203H272.496L274.148 19.3828L276.469 11.3203H278.918L281.227 19.3945ZM293.684 24.2344C291.824 24.2344 290.309 23.6641 289.137 22.5234C287.973 21.3828 287.391 19.8633 287.391 17.9648V17.6367C287.391 16.3633 287.637 15.2266 288.129 14.2266C288.621 13.2188 289.316 12.4453 290.215 11.9062C291.121 11.3594 292.152 11.0859 293.309 11.0859C295.043 11.0859 296.406 11.6328 297.398 12.7266C298.398 13.8203 298.898 15.3711 298.898 17.3789V18.7617H290.824C290.934 19.5898 291.262 20.2539 291.809 20.7539C292.363 21.2539 293.062 21.5039 293.906 21.5039C295.211 21.5039 296.23 21.0312 296.965 20.0859L298.629 21.9492C298.121 22.668 297.434 23.2305 296.566 23.6367C295.699 24.0352 294.738 24.2344 293.684 24.2344ZM293.297 13.8281C292.625 13.8281 292.078 14.0547 291.656 14.5078C291.242 14.9609 290.977 15.6094 290.859 16.4531H295.57V16.1836C295.555 15.4336 295.352 14.8555 294.961 14.4492C294.57 14.0352 294.016 13.8281 293.297 13.8281ZM307.957 14.4961C307.496 14.4336 307.09 14.4023 306.738 14.4023C305.457 14.4023 304.617 14.8359 304.219 15.7031V24H300.832V11.3203H304.031L304.125 12.832C304.805 11.668 305.746 11.0859 306.949 11.0859C307.324 11.0859 307.676 11.1367 308.004 11.2383L307.957 14.4961ZM315.199 24.2344C313.34 24.2344 311.824 23.6641 310.652 22.5234C309.488 21.3828 308.906 19.8633 308.906 17.9648V17.6367C308.906 16.3633 309.152 15.2266 309.645 14.2266C310.137 13.2188 310.832 12.4453 311.73 11.9062C312.637 11.3594 313.668 11.0859 314.824 11.0859C316.559 11.0859 317.922 11.6328 318.914 12.7266C319.914 13.8203 320.414 15.3711 320.414 17.3789V18.7617H312.34C312.449 19.5898 312.777 20.2539 313.324 20.7539C313.879 21.2539 314.578 21.5039 315.422 21.5039C316.727 21.5039 317.746 21.0312 318.48 20.0859L320.145 21.9492C319.637 22.668 318.949 23.2305 318.082 23.6367C317.215 24.0352 316.254 24.2344 315.199 24.2344ZM314.812 13.8281C314.141 13.8281 313.594 14.0547 313.172 14.5078C312.758 14.9609 312.492 15.6094 312.375 16.4531H317.086V16.1836C317.07 15.4336 316.867 14.8555 316.477 14.4492C316.086 14.0352 315.531 13.8281 314.812 13.8281ZM321.82 17.5664C321.82 15.5898 322.262 14.0156 323.145 12.8438C324.035 11.6719 325.25 11.0859 326.789 11.0859C328.023 11.0859 329.043 11.5469 329.848 12.4688V6H333.246V24H330.188L330.023 22.6523C329.18 23.707 328.094 24.2344 326.766 24.2344C325.273 24.2344 324.074 23.6484 323.168 22.4766C322.27 21.2969 321.82 19.6602 321.82 17.5664ZM325.207 17.8125C325.207 19 325.414 19.9102 325.828 20.543C326.242 21.1758 326.844 21.4922 327.633 21.4922C328.68 21.4922 329.418 21.0508 329.848 20.168V15.1641C329.426 14.2812 328.695 13.8398 327.656 13.8398C326.023 13.8398 325.207 15.1641 325.207 17.8125ZM342.07 24V6.9375H348.047C350.117 6.9375 351.688 7.33594 352.758 8.13281C353.828 8.92188 354.363 10.082 354.363 11.6133C354.363 12.4492 354.148 13.1875 353.719 13.8281C353.289 14.4609 352.691 14.9258 351.926 15.2227C352.801 15.4414 353.488 15.8828 353.988 16.5469C354.496 17.2109 354.75 18.0234 354.75 18.9844C354.75 20.625 354.227 21.8672 353.18 22.7109C352.133 23.5547 350.641 23.9844 348.703 24H342.07ZM345.586 16.5703V21.1758H348.598C349.426 21.1758 350.07 20.9805 350.531 20.5898C351 20.1914 351.234 19.6445 351.234 18.9492C351.234 17.3867 350.426 16.5938 348.809 16.5703H345.586ZM345.586 14.0859H348.188C349.961 14.0547 350.848 13.3477 350.848 11.9648C350.848 11.1914 350.621 10.6367 350.168 10.3008C349.723 9.95703 349.016 9.78516 348.047 9.78516H345.586V14.0859ZM361.91 19.207L364.254 11.3203H367.887L362.789 25.9688L362.508 26.6367C361.75 28.293 360.5 29.1211 358.758 29.1211C358.266 29.1211 357.766 29.0469 357.258 28.8984V26.332L357.773 26.3438C358.414 26.3438 358.891 26.2461 359.203 26.0508C359.523 25.8555 359.773 25.5312 359.953 25.0781L360.352 24.0352L355.91 11.3203H359.555L361.91 19.207ZM369.387 22.3359C369.387 21.7969 369.566 21.3594 369.926 21.0234C370.293 20.6875 370.75 20.5195 371.297 20.5195C371.852 20.5195 372.309 20.6875 372.668 21.0234C373.035 21.3594 373.219 21.7969 373.219 22.3359C373.219 22.8672 373.039 23.3008 372.68 23.6367C372.32 23.9648 371.859 24.1289 371.297 24.1289C370.742 24.1289 370.285 23.9648 369.926 23.6367C369.566 23.3008 369.387 22.8672 369.387 22.3359ZM369.387 12.7383C369.387 12.1992 369.566 11.7617 369.926 11.4258C370.293 11.0898 370.75 10.9219 371.297 10.9219C371.852 10.9219 372.309 11.0898 372.668 11.4258C373.035 11.7617 373.219 12.1992 373.219 12.7383C373.219 13.2695 373.039 13.7031 372.68 14.0391C372.32 14.3672 371.859 14.5312 371.297 14.5312C370.742 14.5312 370.285 14.3672 369.926 14.0391C369.566 13.7031 369.387 13.2695 369.387 12.7383Z" fill="black"/>
</svg>
