<?xml version="1.0" encoding="utf-8"?>
<!-- Generator: Adobe Illustrator 16.0.4, SVG Export Plug-In . SVG Version: 6.00 Build 0)  -->
<!DOCTYPE svg PUBLIC "-//W3C//DTD SVG 1.1//EN" "http://www.w3.org/Graphics/SVG/1.1/DTD/svg11.dtd">
<svg version="1.1" id="Layer_1" xmlns="http://www.w3.org/2000/svg" xmlns:xlink="http://www.w3.org/1999/xlink" x="0px" y="0px" viewBox="0 0 405.833 131.167" enable-background="new 0 0 405.833 131.167"
	 xml:space="preserve" preserveAspectRatio="none">
<g>
	<rect x="93.245" y="0.294" fill="#003087" width="12.975" height="25.178" class="blue"/>
	<path fill="#F1C400" d="M220.435,35.348L153.719,2.502c0,0-3.551-2.185-8.672-2.185c-0.012,0-0.022,0.002-0.034,0.002
		c-0.012,0-0.022-0.002-0.034-0.002c-5.121,0-8.672,2.185-8.672,2.185L69.591,35.348c0,0-4.917,2.185-4.917,6.829
		c0,4.643,7.102,10.652,24.036,5.189l56.268-27.314l0.034-0.068l0.034,0.068l56.268,27.314c16.935,5.463,24.036-0.546,24.036-5.189
		C225.351,37.533,220.435,35.348,220.435,35.348z" class="yellow"/>
</g>
<g class="blue">
	<path fill="#002E86" d="M44.962,32.025c-5.053-4.672-12.782-7.042-22.974-7.042c-7.062,0-13.772,0.537-19.948,1.596l-0.681,0.117
		v82.669h11.958V76.666c2.38,0.461,5.089,0.528,7.485,0.528c10.676,0,19.568-3.297,25.029-9.274
		c4.241-4.485,6.392-10.579,6.392-18.11C52.224,42.502,49.641,36.183,44.962,32.025z M21.04,67.024
		c-3.211,0-5.747-0.222-7.722-0.672V35.708c1.983-0.427,5.234-0.677,8.907-0.677c11.634,0,18.041,5.421,18.041,15.265
		C40.266,60.927,33.258,67.024,21.04,67.024z"/>
	<path fill="#002E86" d="M57.188,87.707c0.29,8.773,6.987,12.563,14.555,12.563c5.532,0,9.511-0.8,13.101-2.192l1.748,8.473
		c-4.076,1.699-9.705,2.992-16.498,2.992c-15.333,0-24.359-9.674-24.359-24.528c0-13.462,7.958-26.125,23.097-26.125
		c15.333,0,20.379,12.963,20.379,23.632c0,2.294-0.194,4.089-0.388,5.186H57.188L57.188,87.707z M77.955,79.13
		c0.097-4.485-1.844-11.865-9.801-11.865c-7.375,0-10.479,6.877-10.965,11.865H77.955z"/>
	<path fill="#002E86" d="M93.33,74.443c0-5.584-0.096-10.271-0.387-14.458h10.48l0.582,7.28h0.291
		c2.037-3.79,7.182-8.376,15.042-8.376c8.248,0,16.789,5.484,16.789,20.841v28.816H124.19V81.125c0-6.981-2.523-12.266-9.024-12.266
		c-4.756,0-8.055,3.49-9.316,7.182c-0.389,1.097-0.484,2.592-0.484,3.987v28.519H93.33V74.443z"/>
	<path fill="#002E86" d="M141.729,74.443c0-5.584-0.097-10.271-0.388-14.458h10.479l0.583,7.28h0.291
		c2.037-3.79,7.181-8.376,15.042-8.376c8.248,0,16.789,5.484,16.789,20.841v28.816h-11.938V81.125
		c0-6.981-2.523-12.266-9.025-12.266c-4.756,0-8.054,3.49-9.315,7.182c-0.389,1.097-0.484,2.592-0.484,3.987v28.519h-12.034V74.443z
		"/>
	<path fill="#002E86" d="M197.331,59.985l8.541,26.026c0.971,2.99,1.94,6.68,2.619,9.473h0.29c0.776-2.793,1.651-6.383,2.524-9.572
		l7.375-25.927h12.81l-11.839,33.106c-6.502,18.146-10.87,26.225-16.497,31.209c-4.656,4.287-9.511,5.881-12.519,6.281
		l-2.717-10.373c2.037-0.496,4.561-1.592,6.986-3.389c2.232-1.494,4.852-4.388,6.501-7.678c0.484-0.895,0.777-1.598,0.777-2.193
		c0-0.498-0.097-1.195-0.679-2.395l-17.273-44.57L197.331,59.985L197.331,59.985z"/>
	<path fill="#002E86" d="M288.256,81.125c-0.387-8.676-0.873-19.146-0.775-28.218h-0.29c-2.136,8.177-4.853,17.251-7.767,25.726
		l-9.508,29.115h-9.222l-8.731-28.719c-2.523-8.574-4.853-17.748-6.599-26.124h-0.196c-0.289,8.775-0.679,19.444-1.162,28.616
		l-1.455,27.023h-11.158l4.365-67.207h15.719l8.54,27.023c2.33,7.876,4.366,15.854,6.019,23.333h0.291
		c1.744-7.28,3.979-15.556,6.502-23.433l9.023-26.923h15.525l3.785,67.207h-11.645L288.256,81.125z"/>
	<path fill="#002E86" d="M333.961,108.546l-0.776-5.385h-0.29c-2.912,3.789-7.863,6.48-13.975,6.48
		c-9.512,0-14.849-7.08-14.849-14.459c0-12.262,10.577-18.448,28.046-18.348v-0.795c0-3.19-1.264-8.475-9.609-8.475
		c-4.655,0-9.508,1.492-12.711,3.587l-2.328-7.977c3.492-2.195,9.607-4.288,17.078-4.288c15.141,0,19.506,9.869,19.506,20.439
		v17.549c0,4.391,0.193,8.678,0.681,11.668h-10.772V108.546z M332.409,84.814c-8.441-0.197-16.498,1.693-16.498,9.074
		c0,4.785,3.01,6.979,6.793,6.979c4.754,0,8.25-3.189,9.315-6.682c0.293-0.896,0.39-1.893,0.39-2.691V84.814z"/>
	<path fill="#002E86" d="M385.586,107.05c-2.524,1.199-7.475,2.492-13.394,2.492c-14.75,0-24.356-9.674-24.356-24.729
		c0-14.559,9.703-25.926,26.297-25.926c4.367,0,8.832,0.998,11.551,2.294l-2.137,9.175c-1.941-0.898-4.754-1.896-9.023-1.896
		c-9.125,0-14.559,6.881-14.46,15.754c0,9.973,6.31,15.654,14.46,15.654c4.172,0,7.082-0.896,9.41-1.893L385.586,107.05z"/>
</g>
<g class="black">
	<g>
		<g>
			<path fill="#353535" d="M392.704,44.419h3.49c2.143,0,3.779,1.01,3.779,3.305c0,1.546-0.842,2.542-2.111,2.985l2.449,4.117
				h-1.852l-2.252-3.857h-1.883v3.857h-1.621V44.419L392.704,44.419z M396.133,49.608c1.377,0,2.172-0.566,2.172-1.883
				c0-1.346-0.811-1.882-2.172-1.882h-1.807v3.765H396.133z"/>
		</g>
	</g>
	<g>
		<path fill="#353535" d="M395.956,58.986c-5.055,0-9.168-4.114-9.168-9.17s4.113-9.17,9.168-9.17c5.057,0,9.17,4.114,9.17,9.17
			C405.125,54.873,401.012,58.986,395.956,58.986z M395.956,42.284c-4.151,0-7.529,3.379-7.529,7.532s3.378,7.532,7.529,7.532
			c4.154,0,7.531-3.379,7.531-7.532C403.487,45.664,400.11,42.284,395.956,42.284z"/>
	</g>
</g>
</svg>
