<svg width="543" height="247" viewBox="0 0 543 247" fill="none" xmlns="http://www.w3.org/2000/svg">
<rect width="543" height="247" fill="white"/>
<path d="M174.22 69.294H161.245V94.472H174.22V69.294Z" fill="#003087"/>
<path d="M288.435 104.348L221.719 71.502C221.719 71.502 218.168 69.317 213.047 69.317C213.035 69.317 213.025 69.319 213.013 69.319C213.001 69.319 212.991 69.317 212.979 69.317C207.858 69.317 204.307 71.502 204.307 71.502L137.591 104.348C137.591 104.348 132.674 106.533 132.674 111.177C132.674 115.82 139.776 121.829 156.71 116.366L212.978 89.052L213.012 88.984L213.046 89.052L269.314 116.366C286.249 121.829 293.35 115.82 293.35 111.177C293.351 106.533 288.435 104.348 288.435 104.348Z" fill="#F1C400"/>
<path d="M112.962 101.025C107.909 96.353 100.18 93.983 89.9884 93.983C82.9264 93.983 76.2164 94.52 70.0404 95.579L69.3594 95.696V178.365H81.3174V145.666C83.6974 146.127 86.4064 146.194 88.8024 146.194C99.4784 146.194 108.37 142.897 113.831 136.92C118.072 132.435 120.223 126.341 120.223 118.81C120.224 111.502 117.641 105.183 112.962 101.025ZM89.0404 136.024C85.8294 136.024 83.2934 135.802 81.3184 135.352V104.708C83.3014 104.281 86.5524 104.031 90.2254 104.031C101.859 104.031 108.266 109.452 108.266 119.296C108.266 129.927 101.258 136.024 89.0404 136.024Z" fill="#002E86"/>
<path d="M125.188 156.707C125.478 165.48 132.175 169.27 139.743 169.27C145.275 169.27 149.254 168.47 152.844 167.078L154.592 175.551C150.516 177.25 144.887 178.543 138.094 178.543C122.761 178.543 113.735 168.869 113.735 154.015C113.735 140.553 121.693 127.89 136.832 127.89C152.165 127.89 157.211 140.853 157.211 151.522C157.211 153.816 157.017 155.611 156.823 156.708H125.188V156.707ZM145.955 148.13C146.052 143.645 144.111 136.265 136.154 136.265C128.779 136.265 125.675 143.142 125.189 148.13H145.955Z" fill="#002E86"/>
<path d="M161.33 143.443C161.33 137.859 161.234 133.172 160.943 128.985H171.423L172.005 136.265H172.296C174.333 132.475 179.478 127.889 187.338 127.889C195.586 127.889 204.127 133.373 204.127 148.73V177.546H192.19V150.125C192.19 143.144 189.667 137.859 183.166 137.859C178.41 137.859 175.111 141.349 173.85 145.041C173.461 146.138 173.366 147.633 173.366 149.028V177.547H161.33V143.443Z" fill="#002E86"/>
<path d="M209.73 143.443C209.73 137.859 209.633 133.172 209.342 128.985H219.821L220.404 136.265H220.695C222.732 132.475 227.876 127.889 235.737 127.889C243.985 127.889 252.526 133.373 252.526 148.73V177.546H240.588V150.125C240.588 143.144 238.065 137.859 231.563 137.859C226.807 137.859 223.509 141.349 222.248 145.041C221.859 146.138 221.764 147.633 221.764 149.028V177.547H209.73V143.443V143.443Z" fill="#002E86"/>
<path d="M265.331 128.985L273.872 155.011C274.843 158.001 275.812 161.691 276.491 164.484H276.781C277.557 161.691 278.432 158.101 279.305 154.912L286.68 128.985H299.49L287.651 162.091C281.149 180.237 276.781 188.316 271.154 193.3C266.498 197.587 261.643 199.181 258.635 199.581L255.918 189.208C257.955 188.712 260.479 187.616 262.904 185.819C265.136 184.325 267.756 181.431 269.405 178.141C269.889 177.246 270.182 176.543 270.182 175.948C270.182 175.45 270.085 174.753 269.503 173.553L252.23 128.983L265.331 128.985Z" fill="#002E86"/>
<path d="M356.257 150.125C355.87 141.449 355.384 130.979 355.482 121.907H355.192C353.056 130.084 350.339 139.158 347.425 147.633L337.917 176.748H328.695L319.964 148.029C317.441 139.455 315.111 130.281 313.365 121.905H313.169C312.88 130.68 312.49 141.349 312.007 150.521L310.552 177.544H299.394L303.759 110.337H319.478L328.018 137.36C330.348 145.236 332.384 153.214 334.037 160.693H334.328C336.072 153.413 338.307 145.137 340.83 137.26L349.853 110.337H365.378L369.163 177.544H357.518L356.257 150.125Z" fill="#002E86"/>
<path d="M401.961 177.546L401.185 172.161H400.895C397.983 175.95 393.032 178.641 386.92 178.641C377.408 178.641 372.071 171.561 372.071 164.182C372.071 151.92 382.648 145.734 400.117 145.834V145.039C400.117 141.849 398.853 136.564 390.508 136.564C385.853 136.564 381 138.056 377.797 140.151L375.469 132.174C378.961 129.979 385.076 127.886 392.547 127.886C407.688 127.886 412.053 137.755 412.053 148.325V165.874C412.053 170.265 412.246 174.552 412.734 177.542H401.962V177.546H401.961ZM400.409 153.814C391.968 153.617 383.911 155.507 383.911 162.888C383.911 167.673 386.921 169.867 390.704 169.867C395.458 169.867 398.954 166.678 400.019 163.185C400.312 162.289 400.409 161.292 400.409 160.494V153.814Z" fill="#002E86"/>
<path d="M453.586 176.05C451.062 177.249 446.111 178.542 440.192 178.542C425.442 178.542 415.836 168.868 415.836 153.813C415.836 139.254 425.539 127.887 442.133 127.887C446.5 127.887 450.965 128.885 453.684 130.181L451.547 139.356C449.606 138.458 446.793 137.46 442.524 137.46C433.399 137.46 427.965 144.341 428.064 153.214C428.064 163.187 434.374 168.868 442.524 168.868C446.696 168.868 449.606 167.972 451.934 166.975L453.586 176.05Z" fill="#002E86"/>
<path d="M460.704 113.419H464.194C466.337 113.419 467.973 114.429 467.973 116.724C467.973 118.27 467.131 119.266 465.862 119.709L468.311 123.826H466.459L464.207 119.969H462.324V123.826H460.703V113.419H460.704ZM464.133 118.608C465.51 118.608 466.305 118.042 466.305 116.725C466.305 115.379 465.494 114.843 464.133 114.843H462.326V118.608H464.133Z" fill="#353535"/>
<path d="M463.956 127.986C458.901 127.986 454.788 123.872 454.788 118.816C454.788 113.76 458.901 109.646 463.956 109.646C469.013 109.646 473.126 113.76 473.126 118.816C473.125 123.873 469.012 127.986 463.956 127.986ZM463.956 111.284C459.805 111.284 456.427 114.663 456.427 118.816C456.427 122.969 459.805 126.348 463.956 126.348C468.11 126.348 471.487 122.969 471.487 118.816C471.487 114.664 468.11 111.284 463.956 111.284Z" fill="#353535"/>
</svg>
