<svg width="264" height="126" viewBox="0 0 264 126" fill="none" xmlns="http://www.w3.org/2000/svg">
<path d="M247.977 56.2218C247.977 55.9842 248.038 55.8019 248.162 55.6749C248.286 55.548 248.465 55.4845 248.699 55.4845C248.937 55.4845 249.118 55.5512 249.241 55.6847C249.365 55.8149 249.427 55.9939 249.427 56.2218C249.427 56.4529 249.363 56.6368 249.236 56.7736C249.113 56.907 248.934 56.9738 248.699 56.9738C248.465 56.9738 248.286 56.907 248.162 56.7736C248.038 56.6401 247.977 56.4562 247.977 56.2218ZM252.942 52.3741C253.662 52.3741 254.231 52.5646 254.651 52.9454C255.071 53.3263 255.281 53.8455 255.281 54.5031C255.281 55.2648 255.042 55.8605 254.563 56.2902C254.088 56.7166 253.411 56.9298 252.532 56.9298C251.735 56.9298 251.108 56.8012 250.652 56.5441V55.504C250.916 55.6538 251.219 55.7693 251.561 55.8507C251.902 55.9321 252.22 55.9728 252.513 55.9728C253.03 55.9728 253.424 55.8572 253.694 55.6261C253.965 55.395 254.1 55.0564 254.1 54.6105C254.1 53.7576 253.556 53.3312 252.469 53.3312C252.316 53.3312 252.127 53.3475 251.902 53.38C251.678 53.4093 251.481 53.4435 251.312 53.4825L250.799 53.1798L251.072 49.6935H254.783V50.714H252.083L251.922 52.4816C252.036 52.462 252.174 52.4392 252.337 52.4132C252.503 52.3872 252.705 52.3741 252.942 52.3741ZM257.815 54.0734L256.004 51.4318H257.312L258.543 53.3214L259.783 51.4318H261.082L259.266 54.0734L261.175 56.8322H259.876L258.543 54.8107L257.215 56.8322H255.916L257.815 54.0734Z" fill="#EE4C89"/>
<path d="M29.75 0.901428V111.249" stroke="#EE4C89" stroke-width="0.5" stroke-linecap="round" stroke-linejoin="round" stroke-dasharray="1 2"/>
<path d="M263.486 45.65H31.1621" stroke="#EE4C89" stroke-width="0.5" stroke-linecap="round" stroke-linejoin="round" stroke-dasharray="1 2"/>
<path d="M263.486 61.85H31.1621" stroke="#EE4C89" stroke-width="0.5" stroke-linecap="round" stroke-linejoin="round" stroke-dasharray="1 2"/>
<path fill-rule="evenodd" clip-rule="evenodd" d="M39.1113 27.2854C37.9073 27.2854 36.9383 27.2134 36.1683 27.0654V15.0374C36.9913 14.8944 38.2263 14.8124 39.6093 14.8124C42.3303 14.8124 46.8943 15.5834 46.8943 20.7494C46.8943 24.9644 44.1303 27.2854 39.1113 27.2854ZM49.3753 13.0314C47.1933 11.0674 43.8733 10.0714 39.5103 10.0714C36.5253 10.0714 33.6863 10.2924 31.0713 10.7294L30.5283 10.8204V45.2474H36.1683V31.9164C37.0823 32.0534 38.0653 32.0764 39.0113 32.0764C43.5863 32.0764 47.4043 30.6924 49.7553 28.1874C51.5983 26.2904 52.5333 23.7204 52.5333 20.5504C52.5333 17.4644 51.4083 14.7904 49.3753 13.0314Z" fill="#243B80"/>
<path fill-rule="evenodd" clip-rule="evenodd" d="M59.6976 27.6378C60.9596 27.6378 61.9746 28.0208 62.7156 28.7748C63.7916 29.8698 64.0456 31.4678 64.0976 32.3728H54.8486C55.2446 30.3868 56.5996 27.6378 59.6976 27.6378ZM59.9806 24.0338C54.2606 24.0338 50.2656 28.5958 50.2656 35.1268C50.2656 41.4718 54.2536 45.5708 60.4266 45.5708C63.6146 45.5708 65.8476 44.8628 67.1606 44.2678L67.5556 44.0898L66.7046 40.5108L66.1306 40.7538C64.9416 41.2588 63.4866 41.7248 60.9106 41.7248C59.1406 41.7248 55.0876 41.1518 54.7406 35.9768H68.4266L68.4976 35.3478C68.5396 34.9908 68.6026 34.4488 68.6026 33.7908C68.6026 26.5898 63.9576 24.0338 59.9806 24.0338Z" fill="#243B80"/>
<path fill-rule="evenodd" clip-rule="evenodd" d="M80.2194 24.0343C77.3924 24.0343 75.3344 25.3033 74.0974 26.7773L73.9534 24.4803H69.7334L69.7754 25.0463C69.8884 26.5453 69.9364 28.1193 69.9364 30.3103V45.1253H74.5524V32.8193C74.5524 32.2473 74.6294 31.7093 74.7734 31.3143C75.2714 29.6863 76.7864 28.0423 79.0454 28.0423C82.3574 28.0423 83.0524 30.9043 83.0524 33.3053V45.1253H87.6684V32.9003C87.6684 28.8103 85.7174 24.0343 80.2194 24.0343Z" fill="#243B80"/>
<path fill-rule="evenodd" clip-rule="evenodd" d="M100.659 24.0343C97.8308 24.0343 95.7738 25.3033 94.5378 26.7773L94.3948 24.4803H90.1738L90.2168 25.0463C90.3288 26.5473 90.3768 28.1213 90.3768 30.3103V45.1253H94.9928V32.8193C94.9928 32.2463 95.0698 31.7083 95.2138 31.3143C95.7108 29.6853 97.2248 28.0423 99.4848 28.0423C102.797 28.0423 103.491 30.9043 103.491 33.3053V45.1253H108.108V32.9003C108.108 28.8103 106.158 24.0343 100.659 24.0343Z" fill="#243B80"/>
<path fill-rule="evenodd" clip-rule="evenodd" d="M122.503 24.4804L118.497 36.3334C118.206 37.1814 117.941 38.0684 117.703 38.8734C117.455 38.0694 117.174 37.2054 116.898 36.4004L112.482 24.4804H107.449L114.978 43.2374C115.041 43.4134 115.188 43.8254 115.188 43.9924C115.187 44.0964 115.034 44.4414 114.952 44.6274C114.298 46.0964 113.236 47.5054 112.097 48.4074C110.892 49.4264 109.641 49.8934 109.16 50.0474L108.667 50.2044L109.84 54.1494L110.306 54.0634C110.862 53.9614 112.838 53.4854 114.926 51.6364C117.304 49.5774 119.037 46.4294 121.795 39.1604L127.41 24.4804H122.503Z" fill="#243B80"/>
<path fill-rule="evenodd" clip-rule="evenodd" d="M148.542 16.7904L143.554 30.3374C142.49 33.3534 141.714 35.7474 141.125 37.8464C140.551 35.7224 139.81 33.3304 138.8 30.3374L134.022 16.7904H128.663L126.687 45.1254H131.107L131.867 32.9314C132.039 30.0344 132.187 26.9694 132.289 24.2314C132.886 26.3494 133.638 28.7374 134.607 31.6124L139.14 44.9634H142.559L147.501 31.3824C148.443 28.8334 149.302 26.3294 150.067 23.9044C150.135 26.7554 150.304 29.9404 150.448 32.6474L151.164 45.1254H155.662L153.897 16.7904H148.542Z" fill="#243B80"/>
<path fill-rule="evenodd" clip-rule="evenodd" d="M168.365 35.122H168.416V38.002C168.416 38.283 168.354 38.626 168.241 38.964C167.783 40.313 166.398 41.887 164.005 41.887C162.23 41.887 161.171 40.812 161.171 39.013C161.171 36.431 163.591 35.122 168.365 35.122ZM172.911 39.904V32.575C172.911 26.988 170.154 24.034 164.936 24.034C162.448 24.034 159.997 24.7 158.212 25.86L157.867 26.085L159.033 29.459L159.598 29.092C160.922 28.233 162.721 27.72 164.41 27.72C167.011 27.72 168.296 28.992 168.334 31.606C158.096 31.713 156.556 36.533 156.556 39.418C156.556 42.476 158.795 45.571 163.073 45.571C165.3 45.571 167.362 44.73 168.788 43.278L169 45.125H173.34L173.227 44.503C173.014 43.338 172.911 41.834 172.911 39.904Z" fill="#243B80"/>
<path fill-rule="evenodd" clip-rule="evenodd" d="M185.212 27.9622C187.162 27.9622 188.393 28.4312 189.081 28.8242L189.661 29.1552L190.783 25.3402L190.388 25.1422C189.405 24.6502 187.458 24.0762 185.212 24.0762C178.707 24.0762 174.163 28.5702 174.163 35.0052C174.163 41.3252 178.295 45.5712 184.444 45.5712C187.03 45.5712 189.172 44.9342 190.314 44.3382L190.674 44.1502L189.837 40.4602L189.252 40.7162C188.232 41.1652 186.985 41.6442 185.092 41.6442C181.34 41.6442 178.819 38.9112 178.819 34.8432C178.819 30.6632 181.329 27.9622 185.212 27.9622Z" fill="#243B80"/>
<path fill-rule="evenodd" clip-rule="evenodd" d="M193.977 23.6738C192.897 23.6738 192.083 22.8158 192.083 21.7358C192.083 20.6698 192.897 19.7958 193.947 19.7958C195.028 19.7958 195.828 20.6698 195.828 21.7498C195.828 22.8158 195.028 23.6898 193.977 23.6738ZM193.977 19.3078C192.571 19.3078 191.461 20.3738 191.461 21.7358C191.461 23.0978 192.571 24.1778 193.962 24.1778C195.354 24.1778 196.448 23.0978 196.448 21.7358C196.448 20.3738 195.354 19.3078 193.977 19.3078Z" fill="#243B80"/>
<path fill-rule="evenodd" clip-rule="evenodd" d="M193.86 21.6312H193.594V20.9362C193.653 20.9212 193.756 20.9062 193.904 20.9062C194.259 20.9062 194.423 21.0542 194.423 21.2772C194.423 21.5282 194.17 21.6312 193.86 21.6312ZM194.526 21.8092V21.7802C194.807 21.6912 195.029 21.4982 195.029 21.2022C195.029 20.9662 194.926 20.7882 194.778 20.6842C194.615 20.5662 194.408 20.4922 193.948 20.4922C193.549 20.4922 193.238 20.5362 193.016 20.5662V22.9932H193.578V22.0312H193.844C194.156 22.0312 194.304 22.1502 194.348 22.4012C194.423 22.6972 194.467 22.9052 194.54 22.9932H195.133C195.089 22.9052 195.029 22.7712 194.955 22.4012C194.882 22.0752 194.763 21.8832 194.526 21.8092Z" fill="#243B80"/>
<mask id="mask0" mask-type="alpha" maskUnits="userSpaceOnUse" x="30" y="0" width="167" height="99">
<path d="M30.2373 98.617H196.448V0.406006H30.2373V98.617Z" fill="white"/>
</mask>
<g mask="url(#mask0)">
<path fill-rule="evenodd" clip-rule="evenodd" d="M71.3037 10.395H76.4507V0.406006H71.3037V10.395Z" fill="#243B80"/>
</g>
<path fill-rule="evenodd" clip-rule="evenodd" d="M121.843 15.4505L94.4369 1.75249C92.2879 0.838495 89.2139 0.721495 87.1359 1.75249L59.7329 15.4505C54.9599 17.8215 62.3399 21.3275 67.0299 18.9965L90.7049 7.15049L114.546 18.9965C119.301 21.3605 126.49 17.7605 121.843 15.4505Z" fill="#F8C511"/>
<path fill-rule="evenodd" clip-rule="evenodd" d="M35.5443 75.8905H34.1193V64.8985H30.2373V63.6335H39.4263V64.8985H35.5443V75.8905Z" fill="#00A1DC"/>
<path fill-rule="evenodd" clip-rule="evenodd" d="M47.1776 75.8905V69.9455C47.1776 69.1975 47.0066 68.6385 46.6666 68.2695C46.3256 67.9005 45.7916 67.7165 45.0646 67.7165C44.0976 67.7165 43.3926 67.9785 42.9476 68.5045C42.5036 69.0295 42.2816 69.8905 42.2816 71.0865V75.8905H40.8896V62.8445H42.2816V66.7935C42.2816 67.2685 42.2586 67.6635 42.2146 67.9755H42.2986C42.5726 67.5345 42.9616 67.1865 43.4676 66.9325C43.9736 66.6775 44.5506 66.5505 45.1986 66.5505C46.3226 66.5505 47.1646 66.8175 47.7266 67.3515C48.2886 67.8855 48.5696 68.7335 48.5696 69.8965V75.8905H47.1776Z" fill="#00A1DC"/>
<path fill-rule="evenodd" clip-rule="evenodd" d="M54.7601 67.6992C54.0221 67.6992 53.4341 67.9392 52.9951 68.4202C52.5561 68.9012 52.2981 69.5662 52.2201 70.4162H57.0241C57.0241 69.5382 56.8281 68.8662 56.4371 68.3992C56.0461 67.9322 55.4871 67.6992 54.7601 67.6992ZM55.1371 76.0582C53.7791 76.0582 52.7071 75.6442 51.9221 74.8172C51.1371 73.9902 50.7441 72.8422 50.7441 71.3712C50.7441 69.8902 51.1091 68.7142 51.8381 67.8422C52.5681 66.9702 53.5471 66.5342 54.7771 66.5342C55.9281 66.5342 56.8391 66.9122 57.5101 67.6702C58.1811 68.4272 58.5161 69.4262 58.5161 70.6672V71.5472H52.1861C52.2141 72.6262 52.4871 73.4452 53.0041 74.0042C53.5211 74.5632 54.2491 74.8422 55.1881 74.8422C56.1771 74.8422 57.1551 74.6352 58.1221 74.2222V75.4632C57.6301 75.6752 57.1651 75.8272 56.7261 75.9192C56.2871 76.0122 55.7581 76.0582 55.1371 76.0582Z" fill="#00A1DC"/>
<mask id="mask1" mask-type="alpha" maskUnits="userSpaceOnUse" x="30" y="0" width="205" height="126">
<path d="M30.2373 125.5H234V0.406006H30.2373V125.5Z" fill="white"/>
</mask>
<g mask="url(#mask1)">
<path fill-rule="evenodd" clip-rule="evenodd" d="M65.0059 75.891H66.3979V62.845H65.0059V75.891Z" fill="#00A1DC"/>
<path fill-rule="evenodd" clip-rule="evenodd" d="M72.682 67.6992C71.944 67.6992 71.356 67.9392 70.917 68.4202C70.478 68.9012 70.22 69.5662 70.142 70.4162H74.946C74.946 69.5382 74.75 68.8662 74.359 68.3992C73.967 67.9322 73.408 67.6992 72.682 67.6992ZM73.059 76.0582C71.701 76.0582 70.629 75.6442 69.844 74.8172C69.059 73.9902 68.666 72.8422 68.666 71.3712C68.666 69.8902 69.031 68.7142 69.76 67.8422C70.49 66.9702 71.469 66.5342 72.699 66.5342C73.85 66.5342 74.761 66.9122 75.432 67.6702C76.102 68.4272 76.438 69.4262 76.438 70.6672V71.5472H70.108C70.136 72.6262 70.409 73.4452 70.926 74.0042C71.443 74.5632 72.17 74.8422 73.109 74.8422C74.099 74.8422 75.077 74.6352 76.044 74.2222V75.4632C75.552 75.6752 75.087 75.8272 74.648 75.9192C74.209 76.0122 73.68 76.0582 73.059 76.0582Z" fill="#00A1DC"/>
<path fill-rule="evenodd" clip-rule="evenodd" d="M84.9267 75.8905V69.9455C84.9267 69.1975 84.7557 68.6385 84.4157 68.2695C84.0747 67.9005 83.5407 67.7165 82.8137 67.7165C81.8527 67.7165 81.1487 67.9755 80.7007 68.4955C80.2537 69.0155 80.0307 69.8735 80.0307 71.0695V75.8905H78.6387V66.7015H79.7707L79.9967 67.9595H80.0637C80.3487 67.5065 80.7487 67.1565 81.2627 66.9075C81.7767 66.6585 82.3497 66.5345 82.9817 66.5345C84.0887 66.5345 84.9217 66.8005 85.4797 67.3345C86.0387 67.8685 86.3187 68.7215 86.3187 69.8965V75.8905H84.9267Z" fill="#00A1DC"/>
<path fill-rule="evenodd" clip-rule="evenodd" d="M92.4761 74.8924C93.4261 74.8924 94.1151 74.6344 94.5421 74.1174C94.9701 73.6004 95.1841 72.7664 95.1841 71.6144V71.3214C95.1841 70.0184 94.9671 69.0894 94.5341 68.5334C94.1011 67.9774 93.4091 67.6994 92.4591 67.6994C91.6431 67.6994 91.0181 68.0164 90.5851 68.6514C90.1521 69.2854 89.9361 70.1804 89.9361 71.3374C89.9361 72.5114 90.1511 73.3974 90.5811 73.9954C91.0111 74.5934 91.6431 74.8924 92.4761 74.8924ZM95.2591 74.6584H95.1841C94.5411 75.5914 93.5801 76.0574 92.3001 76.0574C91.0981 76.0574 90.1631 75.6474 89.4951 74.8254C88.8271 74.0044 88.4941 72.8354 88.4941 71.3214C88.4941 69.8064 88.8291 68.6294 89.4991 67.7914C90.1701 66.9534 91.1041 66.5344 92.3001 66.5344C93.5461 66.5344 94.5021 66.9864 95.1671 67.8924H95.2761L95.2171 67.2294L95.1841 66.5844V62.8454H96.5761V75.8904H95.4441L95.2591 74.6584Z" fill="#00A1DC"/>
<path fill-rule="evenodd" clip-rule="evenodd" d="M102.86 67.6992C102.122 67.6992 101.534 67.9392 101.095 68.4202C100.656 68.9012 100.398 69.5662 100.32 70.4162H105.124C105.124 69.5382 104.928 68.8662 104.537 68.3992C104.146 67.9322 103.587 67.6992 102.86 67.6992ZM103.238 76.0582C101.879 76.0582 100.808 75.6442 100.022 74.8172C99.2368 73.9902 98.8438 72.8422 98.8438 71.3712C98.8438 69.8902 99.2088 68.7142 99.9388 67.8422C100.668 66.9702 101.647 66.5342 102.877 66.5342C104.028 66.5342 104.939 66.9122 105.61 67.6702C106.281 68.4272 106.616 69.4262 106.616 70.6672V71.5472H100.286C100.314 72.6262 100.587 73.4452 101.104 74.0042C101.621 74.5632 102.349 74.8422 103.287 74.8422C104.277 74.8422 105.255 74.6352 106.222 74.2222V75.4632C105.73 75.6752 105.265 75.8272 104.826 75.9192C104.387 76.0122 103.858 76.0582 103.238 76.0582Z" fill="#00A1DC"/>
<path fill-rule="evenodd" clip-rule="evenodd" d="M113.008 66.5341C113.416 66.5341 113.782 66.5671 114.106 66.6351L113.913 67.9261C113.534 67.8421 113.198 67.7991 112.907 67.7991C112.164 67.7991 111.528 68.1011 111 68.7051C110.472 69.3091 110.208 70.0611 110.208 70.9611V75.8901H108.816V66.7011H109.965L110.124 68.4031H110.191C110.532 67.8051 110.943 67.3441 111.424 67.0201C111.904 66.6961 112.432 66.5341 113.008 66.5341Z" fill="#00A1DC"/>
<path fill-rule="evenodd" clip-rule="evenodd" d="M30.623 85.3036H32.115L34.127 90.5436C34.569 91.7396 34.843 92.6036 34.949 93.1336H35.016C35.089 92.8496 35.241 92.3616 35.473 91.6716C35.705 90.9806 36.464 88.8586 37.749 85.3036H39.242L35.293 95.7666C34.902 96.8016 34.445 97.5346 33.922 97.9676C33.399 98.4006 32.758 98.6176 31.998 98.6176C31.573 98.6176 31.154 98.5696 30.74 98.4746V97.3596C31.048 97.4266 31.392 97.4606 31.771 97.4606C32.727 97.4606 33.409 96.9236 33.817 95.8506L34.329 94.5426L30.623 85.3036Z" fill="#00A1DC"/>
<path fill-rule="evenodd" clip-rule="evenodd" d="M41.4928 89.8896C41.4928 91.0636 41.7278 91.9576 42.1968 92.5726C42.6668 93.1876 43.3568 93.4946 44.2678 93.4946C45.1788 93.4946 45.8708 93.1886 46.3428 92.5766C46.8148 91.9646 47.0518 91.0686 47.0518 89.8896C47.0518 88.7216 46.8148 87.8346 46.3428 87.2276C45.8708 86.6216 45.1738 86.3186 44.2508 86.3186C43.3398 86.3186 42.6528 86.6176 42.1888 87.2156C41.7248 87.8136 41.4928 88.7056 41.4928 89.8896ZM48.4938 89.8896C48.4938 91.3876 48.1158 92.5576 47.3618 93.3986C46.6068 94.2396 45.5648 94.6596 44.2348 94.6596C43.4128 94.6596 42.6838 94.4676 42.0458 94.0816C41.4088 93.6956 40.9168 93.1426 40.5708 92.4216C40.2238 91.7006 40.0508 90.8566 40.0508 89.8896C40.0508 88.3916 40.4258 87.2246 41.1738 86.3896C41.9228 85.5546 42.9628 85.1366 44.2928 85.1366C45.5788 85.1366 46.5998 85.5636 47.3578 86.4186C48.1148 87.2746 48.4938 88.4306 48.4938 89.8896Z" fill="#00A1DC"/>
<path fill-rule="evenodd" clip-rule="evenodd" d="M52.0691 85.3036V91.2646C52.0691 92.0136 52.2401 92.5726 52.5801 92.9416C52.9211 93.3106 53.4551 93.4946 54.1821 93.4946C55.1431 93.4946 55.8461 93.2326 56.2901 92.7066C56.7351 92.1816 56.9571 91.3236 56.9571 90.1326V85.3036H58.3491V94.4926H57.2001L56.9991 93.2596H56.9231C56.6381 93.7126 56.2431 94.0596 55.7371 94.2996C55.2311 94.5396 54.6541 94.6596 54.0061 94.6596C52.8881 94.6596 52.0511 94.3946 51.4951 93.8636C50.9391 93.3326 50.6611 92.4826 50.6611 91.3146V85.3036H52.0691Z" fill="#00A1DC"/>
<path fill-rule="evenodd" clip-rule="evenodd" d="M69.0883 94.66C67.7583 94.66 66.7283 94.251 65.9983 93.431C65.2693 92.613 64.9043 91.455 64.9043 89.957C64.9043 88.42 65.2753 87.232 66.0153 86.394C66.7563 85.556 67.8113 85.136 69.1803 85.136C69.6223 85.136 70.0633 85.183 70.5053 85.278C70.9463 85.373 71.2933 85.485 71.5443 85.614L71.1173 86.796C70.8093 86.673 70.4743 86.571 70.1113 86.49C69.7473 86.409 69.4263 86.368 69.1473 86.368C67.2803 86.368 66.3473 87.559 66.3473 89.94C66.3473 91.069 66.5743 91.935 67.0303 92.539C67.4853 93.143 68.1603 93.445 69.0543 93.445C69.8203 93.445 70.6053 93.28 71.4103 92.95V94.182C70.7963 94.501 70.0213 94.66 69.0883 94.66Z" fill="#00A1DC"/>
<path fill-rule="evenodd" clip-rule="evenodd" d="M75.9254 93.5116C76.7924 93.5116 77.4724 93.2736 77.9674 92.7986C78.4614 92.3236 78.7084 91.6586 78.7084 90.8036V89.9736L77.3174 90.0326C76.2104 90.0716 75.4124 90.2436 74.9234 90.5476C74.4344 90.8526 74.1904 91.3266 74.1904 91.9686C74.1904 92.4726 74.3424 92.8546 74.6474 93.1176C74.9514 93.3806 75.3774 93.5116 75.9254 93.5116ZM79.0694 94.4926L78.7924 93.1846H78.7254C78.2674 93.7606 77.8104 94.1506 77.3554 94.3536C76.8994 94.5576 76.3304 94.6596 75.6494 94.6596C74.7374 94.6596 74.0234 94.4256 73.5064 93.9556C72.9894 93.4866 72.7314 92.8186 72.7314 91.9516C72.7314 90.0966 74.2154 89.1236 77.1834 89.0346L78.7424 88.9846V88.4136C78.7424 87.6926 78.5874 87.1606 78.2774 86.8166C77.9674 86.4736 77.4704 86.3016 76.7894 86.3016C76.0234 86.3016 75.1574 86.5366 74.1904 87.0056L73.7624 85.9406C74.2154 85.6956 74.7114 85.5016 75.2504 85.3626C75.7904 85.2226 76.3304 85.1526 76.8724 85.1526C77.9684 85.1526 78.7804 85.3956 79.3084 85.8826C79.8364 86.3686 80.1004 87.1486 80.1004 88.2216V94.4926H79.0694Z" fill="#00A1DC"/>
<path fill-rule="evenodd" clip-rule="evenodd" d="M89.0839 94.4926V88.5486C89.0839 87.7996 88.9139 87.2406 88.5729 86.8716C88.2319 86.5026 87.6979 86.3186 86.9709 86.3186C86.0099 86.3186 85.3059 86.5776 84.8579 87.0976C84.4119 87.6176 84.1879 88.4756 84.1879 89.6716V94.4926H82.7959V85.3036H83.9279L84.1539 86.5616H84.2209C84.5069 86.1086 84.9059 85.7576 85.4199 85.5096C85.9339 85.2606 86.5069 85.1366 87.1389 85.1366C88.2459 85.1366 89.0789 85.4026 89.6379 85.9366C90.1959 86.4706 90.4759 87.3236 90.4759 88.4986V94.4926H89.0839Z" fill="#00A1DC"/>
<path fill-rule="evenodd" clip-rule="evenodd" d="M101.123 94.66C99.7934 94.66 98.7634 94.251 98.0344 93.431C97.3044 92.613 96.9404 91.455 96.9404 89.957C96.9404 88.42 97.3104 87.232 98.0504 86.394C98.7914 85.556 99.8464 85.136 101.215 85.136C101.657 85.136 102.098 85.183 102.54 85.278C102.982 85.373 103.328 85.485 103.58 85.614L103.152 86.796C102.845 86.673 102.509 86.571 102.146 86.49C101.783 86.409 101.461 86.368 101.182 86.368C99.3154 86.368 98.3824 87.559 98.3824 89.94C98.3824 91.069 98.6094 91.935 99.0654 92.539C99.5204 93.143 100.195 93.445 101.09 93.445C101.855 93.445 102.64 93.28 103.445 92.95V94.182C102.831 94.501 102.056 94.66 101.123 94.66Z" fill="#00A1DC"/>
<path fill-rule="evenodd" clip-rule="evenodd" d="M107.962 93.5116C108.828 93.5116 109.509 93.2736 110.003 92.7986C110.498 92.3236 110.745 91.6586 110.745 90.8036V89.9736L109.353 90.0326C108.247 90.0716 107.449 90.2436 106.96 90.5476C106.471 90.8526 106.226 91.3266 106.226 91.9686C106.226 92.4726 106.378 92.8546 106.683 93.1176C106.988 93.3806 107.414 93.5116 107.962 93.5116ZM111.106 94.4926L110.829 93.1846H110.762C110.304 93.7606 109.847 94.1506 109.391 94.3536C108.936 94.5576 108.367 94.6596 107.685 94.6596C106.774 94.6596 106.06 94.4256 105.543 93.9556C105.026 93.4866 104.767 92.8186 104.767 91.9516C104.767 90.0966 106.251 89.1236 109.219 89.0346L110.779 88.9846V88.4136C110.779 87.6926 110.624 87.1606 110.313 86.8166C110.003 86.4736 109.507 86.3016 108.826 86.3016C108.06 86.3016 107.193 86.5366 106.226 87.0056L105.799 85.9406C106.251 85.6956 106.747 85.5016 107.287 85.3626C107.826 85.2226 108.367 85.1526 108.909 85.1526C110.005 85.1526 110.817 85.3956 111.345 85.8826C111.873 86.3686 112.137 87.1486 112.137 88.2216V94.4926H111.106Z" fill="#00A1DC"/>
<path fill-rule="evenodd" clip-rule="evenodd" d="M114.831 94.493H116.223V81.448H114.831V94.493Z" fill="#00A1DC"/>
<path fill-rule="evenodd" clip-rule="evenodd" d="M119.003 94.493H120.394V81.448H119.003V94.493Z" fill="#00A1DC"/>
<path fill-rule="evenodd" clip-rule="evenodd" d="M133.751 94.4926V88.5486C133.751 87.7996 133.58 87.2406 133.24 86.8716C132.899 86.5026 132.365 86.3186 131.639 86.3186C130.672 86.3186 129.966 86.5816 129.521 87.1066C129.077 87.6316 128.855 88.4926 128.855 89.6886V94.4926H127.464V81.4476H128.855V85.3956C128.855 85.8706 128.833 86.2656 128.788 86.5776H128.872C129.146 86.1366 129.535 85.7886 130.041 85.5346C130.547 85.2796 131.124 85.1526 131.773 85.1526C132.896 85.1526 133.739 85.4196 134.3 85.9536C134.862 86.4876 135.143 87.3356 135.143 88.4986V94.4926H133.751Z" fill="#00A1DC"/>
<path fill-rule="evenodd" clip-rule="evenodd" d="M138.76 89.8896C138.76 91.0636 138.995 91.9576 139.465 92.5726C139.934 93.1876 140.624 93.4946 141.535 93.4946C142.446 93.4946 143.138 93.1886 143.61 92.5766C144.083 91.9646 144.319 91.0686 144.319 89.8896C144.319 88.7216 144.083 87.8346 143.61 87.2276C143.138 86.6216 142.441 86.3186 141.518 86.3186C140.608 86.3186 139.92 86.6176 139.456 87.2156C138.992 87.8136 138.76 88.7056 138.76 89.8896ZM145.761 89.8896C145.761 91.3876 145.384 92.5576 144.629 93.3986C143.874 94.2396 142.832 94.6596 141.502 94.6596C140.68 94.6596 139.951 94.4676 139.313 94.0816C138.677 93.6956 138.184 93.1426 137.838 92.4216C137.491 91.7006 137.318 90.8566 137.318 89.8896C137.318 88.3916 137.693 87.2246 138.441 86.3896C139.191 85.5546 140.23 85.1366 141.56 85.1366C142.846 85.1366 143.867 85.5636 144.624 86.4186C145.382 87.2746 145.761 88.4306 145.761 89.8896Z" fill="#00A1DC"/>
<path fill-rule="evenodd" clip-rule="evenodd" d="M159.741 94.4926V88.5146C159.741 87.7826 159.585 87.2336 159.272 86.8676C158.958 86.5006 158.472 86.3186 157.813 86.3186C156.947 86.3186 156.306 86.5676 155.893 87.0646C155.479 87.5616 155.272 88.3276 155.272 89.3616V94.4926H153.881V88.5146C153.881 87.7826 153.724 87.2336 153.411 86.8676C153.098 86.5006 152.609 86.3186 151.944 86.3186C151.072 86.3186 150.434 86.5796 150.028 87.1026C149.623 87.6246 149.421 88.4806 149.421 89.6716V94.4926H148.029V85.3036H149.161L149.387 86.5616H149.454C149.717 86.1146 150.087 85.7646 150.565 85.5136C151.043 85.2616 151.578 85.1366 152.171 85.1366C153.607 85.1366 154.546 85.6556 154.988 86.6956H155.054C155.328 86.2146 155.725 85.8346 156.245 85.5556C156.765 85.2756 157.357 85.1366 158.022 85.1366C159.062 85.1366 159.84 85.4026 160.357 85.9366C160.875 86.4706 161.133 87.3236 161.133 88.4986V94.4926H159.741Z" fill="#00A1DC"/>
<path fill-rule="evenodd" clip-rule="evenodd" d="M167.332 86.3017C166.594 86.3017 166.006 86.5417 165.567 87.0217C165.129 87.5037 164.87 88.1687 164.792 89.0177H169.596C169.596 88.1407 169.4 87.4677 169.009 87.0017C168.618 86.5347 168.059 86.3017 167.332 86.3017ZM167.71 94.6597C166.351 94.6597 165.28 94.2467 164.494 93.4197C163.709 92.5917 163.316 91.4437 163.316 89.9737C163.316 88.4927 163.681 87.3157 164.41 86.4437C165.14 85.5727 166.119 85.1367 167.349 85.1367C168.5 85.1367 169.411 85.5147 170.082 86.2717C170.753 87.0297 171.088 88.0287 171.088 89.2687V90.1487H164.758C164.786 91.2287 165.059 92.0467 165.576 92.6057C166.093 93.1647 166.821 93.4447 167.759 93.4447C168.749 93.4447 169.727 93.2377 170.694 92.8237V94.0647C170.202 94.2767 169.737 94.4297 169.298 94.5217C168.859 94.6137 168.33 94.6597 167.71 94.6597Z" fill="#00A1DC"/>
</g>
<path d="M28.0001 11.125H12.6221V45.025H28.0001" stroke="#EE4C89" stroke-width="0.75"/>
<path d="M2.34863 28.0734L0.537109 25.4318H1.8457L3.07617 27.3214L4.31641 25.4318H5.61523L3.79883 28.0734L5.70801 30.8322H4.40918L3.07617 28.8107L1.74805 30.8322H0.449219L2.34863 28.0734Z" fill="#EE4C89"/>
</svg>
