<svg id="Layer_1" data-name="Layer 1" xmlns="http://www.w3.org/2000/svg" viewBox="0 0 48 48"><title>01. General</title><path d="M34.8,3A13.16,13.16,0,0,0,24,8.62,13.2,13.2,0,0,0,0,16.19c0,6.25,3.33,12.53,9.9,18.66a92,92,0,0,0,13.59,10L24,45l0.52-.15a105.18,105.18,0,0,0,13.57-10C44.85,28.73,48,22.8,48,16.19A13.21,13.21,0,0,0,34.8,3Zm1.94,30.38A103.06,103.06,0,0,1,24,42.82a89.85,89.85,0,0,1-12.73-9.43C5.12,27.65,2,21.86,2,16.19A11.19,11.19,0,0,1,23.11,11L24,12.69,24.89,11A11.19,11.19,0,0,1,46,16.19C46,22.19,43.06,27.66,36.75,33.38Z"/></svg>