<?xml version="1.0" encoding="utf-8"?>
<!-- Generator: Adobe Illustrator 19.2.1, SVG Export Plug-In . SVG Version: 6.00 Build 0)  -->
<svg version="1.1" id="Layer_1" xmlns="http://www.w3.org/2000/svg" xmlns:xlink="http://www.w3.org/1999/xlink" x="0px" y="0px"
	 viewBox="0 0 48 48" style="enable-background:new 0 0 48 48;" xml:space="preserve">
<title>14. Home - Object</title>
<path d="M31,0c-6.9,0-12.5,5.4-13,12.2l-6.9,1.3C8.7,13.9,7,15.9,7,18.3V22h24v-3.7c0-2.4-1.7-4.5-4.1-4.9L20,12.2
	C20.5,6.5,25.2,2,31,2c6.1,0,11,4.9,11,11v35h2V13C44,5.8,38.2,0,31,0z M29,18.3V20H9v-1.7c0-1.5,1-2.7,2.5-3L19,14l7.5,1.4
	C28,15.6,29,16.9,29,18.3z"/>
<circle cx="23" cy="26" r="2"/>
<circle cx="19" cy="32" r="2"/>
<circle cx="15" cy="26" r="2"/>
<circle cx="27" cy="32" r="2"/>
<circle cx="11" cy="32" r="2"/>
<circle cx="15" cy="38" r="2"/>
<circle cx="23" cy="38" r="2"/>
<circle cx="31" cy="38" r="2"/>
<circle cx="7" cy="38" r="2"/>
</svg>
