<svg id="Layer_1" data-name="Layer 1" xmlns="http://www.w3.org/2000/svg" viewBox="0 0 48 48"><title>14. Home - Object</title><path d="M43.55,15.29a6.93,6.93,0,0,0-5.42,1.15l-0.22.17,0.76-5.34A9,9,0,0,0,29.78,1H18.22A9,9,0,0,0,9.31,11.27l0.76,5.34-0.22-.17a6.94,6.94,0,0,0-5.42-1.15L0,16,2.86,33.54a9,9,0,0,0,7.39,7.33L8.1,46.37,10,47l2.32-6H35.5L38,47l1.9-.63L37.58,40.9a9,9,0,0,0,7.56-7.36L48,16ZM12.94,5.41A7,7,0,0,1,18.22,3H29.78a7,7,0,0,1,6.93,8L35.25,21.16h0l0,0.19h0L34.13,29H13.87l-1-7.68,0.1-.16h0L11.42,11A6.92,6.92,0,0,1,12.94,5.41ZM43.17,33.2a7,7,0,0,1-6.9,5.8H11.73a7,7,0,0,1-6.9-5.8L2.3,17.58l2.53-.33a5,5,0,0,1,5.93,4.19l0,0.2h0L12.13,31H35.87l1.34-9.36h0l0-.12V21.45a5,5,0,0,1,5.93-4.19l2.53,0.33Z"/></svg>