<svg id="Layer_1" data-name="Layer 1" xmlns="http://www.w3.org/2000/svg" viewBox="0 0 48 48"><title>06. Location</title><path d="M48,24A24,24,0,0,0,24.38,0H24a24,24,0,0,0,0,48h0.38A24,24,0,0,0,48,24ZM24.25,46H24.17c-2.75,0-5.61-3.82-7.27-10.1a49.17,49.17,0,0,1,7-.44,47.35,47.35,0,0,1,7.56.54C29.82,42.2,27,45.95,24.25,46ZM23.92,33.45a50.27,50.27,0,0,0-7.47.5,48.45,48.45,0,0,1-.95-9H32.91q0,0.5,0,1a47.48,47.48,0,0,1-.94,8A49.31,49.31,0,0,0,23.92,33.45Zm-17.28,4A21.88,21.88,0,0,1,2,25H13.48a50.41,50.41,0,0,0,1,9.3,23.34,23.34,0,0,0-7.62,3ZM6.89,10.19a21.47,21.47,0,0,0,7.69,3A49.93,49.93,0,0,0,13.48,23H2A21.89,21.89,0,0,1,6.89,10.19ZM24.17,2h0.08c2.66,0,5.43,3.6,7.1,9.54A49.4,49.4,0,0,1,24,12a51,51,0,0,1-7-.43C18.71,5.62,21.5,2,24.17,2ZM24,14a51.25,51.25,0,0,0,7.85-.52A47.92,47.92,0,0,1,32.91,23H15.49a48,48,0,0,1,1.05-9.45A52.67,52.67,0,0,0,24,14Zm17.06-3.9A21.89,21.89,0,0,1,46,23H34.92a49.84,49.84,0,0,0-1.12-9.87,22.16,22.16,0,0,0,7-2.86ZM34.92,25H46q0,0.5-.07,1a21.88,21.88,0,0,1-4.57,11.53,22.37,22.37,0,0,0-7.43-3.1A50.32,50.32,0,0,0,34.92,25ZM39.69,8.6a20.24,20.24,0,0,1-6.38,2.58,22,22,0,0,0-4.18-8.57A22,22,0,0,1,39.69,8.6ZM19.37,2.5a21.84,21.84,0,0,0-4.3,8.77,19.75,19.75,0,0,1-6.82-2.6A22,22,0,0,1,19.37,2.5ZM8,39a21.32,21.32,0,0,1,7-2.78,22.37,22.37,0,0,0,4.44,9.26A22,22,0,0,1,8,39Zm21.19,6.36a22.49,22.49,0,0,0,4.3-9A20.5,20.5,0,0,1,40,39.06,22,22,0,0,1,29.14,45.39Z"/></svg>