<svg id="Layer_1" data-name="Layer 1" xmlns="http://www.w3.org/2000/svg" viewBox="0 0 48 48"><title>14. Home - Object</title><path d="M36,37.64c5.4-1.53,9-5.94,9-11,0-3.14-2-9.76-5.37-15.4C36.57,6.12,31.38,0,24,0,16.21,0,11,6.24,8,11.47c-3.44,6-5,12.68-5,15.26,0,5,3.63,9.36,9.09,10.91,0,0,.48.1,1.18,0.19L9.16,47.21,11,48l4.38-10h17L37,48l1.83-.82-4.27-9.33c0.79-.09,1.31-0.19,1.35-0.2ZM32.09,36H15.91a19.08,19.08,0,0,1-3.34-.3h0C8,34.42,5,30.81,5,26.73,5,22,11.33,2,24,2,35.86,2,43,21.56,43,26.67c0,4.11-3,7.74-7.53,9A19.57,19.57,0,0,1,32.09,36Z"/><path d="M13.55,26.11l0.89,1.79A23.56,23.56,0,0,1,24,26a23.56,23.56,0,0,1,9.55,1.89l0.89-1.79A25.09,25.09,0,0,0,24,24,25.09,25.09,0,0,0,13.55,26.11Z"/></svg>