<svg id="Layer_1" data-name="Layer 1" xmlns="http://www.w3.org/2000/svg" viewBox="0 0 48 48"><title>01. General</title><path d="M39.76,20.42a6.62,6.62,0,0,1-5.11,1.07,6.45,6.45,0,0,1-4.25-3L24,8,17.6,18.54a6.45,6.45,0,0,1-4.25,3,6.63,6.63,0,0,1-5.11-1.07L0,14.58,5,33.21A9.17,9.17,0,0,0,13.47,40H34.53A9.17,9.17,0,0,0,43,33.21l5-18.4Zm1.36,12.25A7.19,7.19,0,0,1,34.53,38H13.47a7.19,7.19,0,0,1-6.6-5.33L3.3,19.46,7.09,22a8.59,8.59,0,0,0,6.65,1.35,8.44,8.44,0,0,0,5.53-3.87L24,11.72l4.72,7.78a8.4,8.4,0,0,0,5.53,3.84,8.61,8.61,0,0,0,6.65-1.4l3.8-2.48Z"/></svg>